%TF.GenerationSoftware,KiCad,Pcbnew,10.0.5*%
%TF.CreationDate,2026-08-08T12:56:25-06:00*%
%TF.ProjectId,picoemp-rev2026,7069636f-656d-4702-9d72-657632303236,A*%
%TF.SameCoordinates,Original*%
%TF.FileFunction,Drillmap*%
%TF.FilePolarity,Positive*%
%FSLAX45Y45*%
G04 Gerber Fmt 4.5, Leading zero omitted, Abs format (unit mm)*
G04 Created by KiCad (PCBNEW 10.0.5) date 2026-08-08 12:56:25*
%MOMM*%
%LPD*%
G01*
G04 APERTURE LIST*
%ADD10C,0.050000*%
%ADD11C,0.200000*%
%ADD12C,0.320000*%
G04 APERTURE END LIST*
D10*
X10439000Y-4927200D02*
X10439000Y-16627200D01*
X10439000Y-4927200D02*
G75*
G02*
X10839000Y-4527200I400010J-10D01*
G01*
X10839000Y-17027200D02*
G75*
G02*
X10439000Y-16627200I10J400010D01*
G01*
X10839000Y-17027200D02*
X11628010Y-17027200D01*
X11628010Y-17027200D02*
G75*
G02*
X11677039Y-17087006I0J-50000D01*
G01*
X11649990Y-17527200D02*
G75*
G02*
X11600961Y-17467394I0J50000D01*
G01*
X11649990Y-17527200D02*
X13228010Y-17527200D01*
X11677039Y-17087006D02*
X11600961Y-17467394D01*
X11739000Y-4527200D02*
X10839000Y-4527200D01*
X11739000Y-4527200D02*
G75*
G02*
X11839000Y-4627200I0J-100000D01*
G01*
X11839000Y-5820000D02*
X11839000Y-4627200D01*
X11939000Y-5920000D02*
G75*
G02*
X11839000Y-5820000I0J100000D01*
G01*
X12939000Y-5920000D02*
X11939000Y-5920000D01*
X13039000Y-4627200D02*
X13039000Y-5820000D01*
X13039000Y-4627200D02*
G75*
G02*
X13139000Y-4527200I100000J0D01*
G01*
X13039000Y-5820000D02*
G75*
G02*
X12939000Y-5920000I-100000J0D01*
G01*
X13200961Y-17087006D02*
G75*
G02*
X13249990Y-17027200I49029J9806D01*
G01*
X13249990Y-17027200D02*
X14039000Y-17027200D01*
X13277039Y-17467394D02*
X13200961Y-17087006D01*
X13277039Y-17467394D02*
G75*
G02*
X13228010Y-17527200I-49029J-9806D01*
G01*
X14340207Y-4529785D02*
X13139000Y-4527200D01*
X14340207Y-4529785D02*
G75*
G02*
X14439995Y-4629793I-217J-100005D01*
G01*
X14439000Y-16627200D02*
G75*
G02*
X14039000Y-17027200I-400010J10D01*
G01*
X14439000Y-16627200D02*
X14439992Y-4629793D01*
D11*
D12*
X11104000Y-16292200D02*
X11424000Y-16612200D01*
X11424000Y-16292200D02*
X11104000Y-16612200D01*
X13454000Y-12442200D02*
X13774000Y-12762200D01*
X13774000Y-12442200D02*
X13454000Y-12762200D01*
D11*
X10697277Y-17841184D02*
X10697277Y-17641184D01*
X10697277Y-17641184D02*
X10744896Y-17641184D01*
X10744896Y-17641184D02*
X10773467Y-17650708D01*
X10773467Y-17650708D02*
X10792515Y-17669755D01*
X10792515Y-17669755D02*
X10802039Y-17688803D01*
X10802039Y-17688803D02*
X10811563Y-17726898D01*
X10811563Y-17726898D02*
X10811563Y-17755470D01*
X10811563Y-17755470D02*
X10802039Y-17793565D01*
X10802039Y-17793565D02*
X10792515Y-17812612D01*
X10792515Y-17812612D02*
X10773467Y-17831660D01*
X10773467Y-17831660D02*
X10744896Y-17841184D01*
X10744896Y-17841184D02*
X10697277Y-17841184D01*
X10897277Y-17841184D02*
X10897277Y-17707850D01*
X10897277Y-17745946D02*
X10906801Y-17726898D01*
X10906801Y-17726898D02*
X10916324Y-17717374D01*
X10916324Y-17717374D02*
X10935372Y-17707850D01*
X10935372Y-17707850D02*
X10954420Y-17707850D01*
X11021086Y-17841184D02*
X11021086Y-17707850D01*
X11021086Y-17641184D02*
X11011563Y-17650708D01*
X11011563Y-17650708D02*
X11021086Y-17660231D01*
X11021086Y-17660231D02*
X11030610Y-17650708D01*
X11030610Y-17650708D02*
X11021086Y-17641184D01*
X11021086Y-17641184D02*
X11021086Y-17660231D01*
X11144896Y-17841184D02*
X11125848Y-17831660D01*
X11125848Y-17831660D02*
X11116324Y-17812612D01*
X11116324Y-17812612D02*
X11116324Y-17641184D01*
X11249658Y-17841184D02*
X11230610Y-17831660D01*
X11230610Y-17831660D02*
X11221086Y-17812612D01*
X11221086Y-17812612D02*
X11221086Y-17641184D01*
X11478229Y-17841184D02*
X11478229Y-17641184D01*
X11478229Y-17641184D02*
X11544896Y-17784041D01*
X11544896Y-17784041D02*
X11611562Y-17641184D01*
X11611562Y-17641184D02*
X11611562Y-17841184D01*
X11792515Y-17841184D02*
X11792515Y-17736422D01*
X11792515Y-17736422D02*
X11782991Y-17717374D01*
X11782991Y-17717374D02*
X11763943Y-17707850D01*
X11763943Y-17707850D02*
X11725848Y-17707850D01*
X11725848Y-17707850D02*
X11706801Y-17717374D01*
X11792515Y-17831660D02*
X11773467Y-17841184D01*
X11773467Y-17841184D02*
X11725848Y-17841184D01*
X11725848Y-17841184D02*
X11706801Y-17831660D01*
X11706801Y-17831660D02*
X11697277Y-17812612D01*
X11697277Y-17812612D02*
X11697277Y-17793565D01*
X11697277Y-17793565D02*
X11706801Y-17774517D01*
X11706801Y-17774517D02*
X11725848Y-17764993D01*
X11725848Y-17764993D02*
X11773467Y-17764993D01*
X11773467Y-17764993D02*
X11792515Y-17755470D01*
X11887753Y-17707850D02*
X11887753Y-17907850D01*
X11887753Y-17717374D02*
X11906801Y-17707850D01*
X11906801Y-17707850D02*
X11944896Y-17707850D01*
X11944896Y-17707850D02*
X11963943Y-17717374D01*
X11963943Y-17717374D02*
X11973467Y-17726898D01*
X11973467Y-17726898D02*
X11982991Y-17745946D01*
X11982991Y-17745946D02*
X11982991Y-17803089D01*
X11982991Y-17803089D02*
X11973467Y-17822136D01*
X11973467Y-17822136D02*
X11963943Y-17831660D01*
X11963943Y-17831660D02*
X11944896Y-17841184D01*
X11944896Y-17841184D02*
X11906801Y-17841184D01*
X11906801Y-17841184D02*
X11887753Y-17831660D01*
X12068705Y-17822136D02*
X12078229Y-17831660D01*
X12078229Y-17831660D02*
X12068705Y-17841184D01*
X12068705Y-17841184D02*
X12059182Y-17831660D01*
X12059182Y-17831660D02*
X12068705Y-17822136D01*
X12068705Y-17822136D02*
X12068705Y-17841184D01*
X12068705Y-17717374D02*
X12078229Y-17726898D01*
X12078229Y-17726898D02*
X12068705Y-17736422D01*
X12068705Y-17736422D02*
X12059182Y-17726898D01*
X12059182Y-17726898D02*
X12068705Y-17717374D01*
X12068705Y-17717374D02*
X12068705Y-17736422D01*
X10236500Y-18069700D02*
X10436500Y-18269700D01*
X10436500Y-18069700D02*
X10236500Y-18269700D01*
X10678229Y-18061184D02*
X10802039Y-18061184D01*
X10802039Y-18061184D02*
X10735372Y-18137374D01*
X10735372Y-18137374D02*
X10763944Y-18137374D01*
X10763944Y-18137374D02*
X10782991Y-18146898D01*
X10782991Y-18146898D02*
X10792515Y-18156422D01*
X10792515Y-18156422D02*
X10802039Y-18175470D01*
X10802039Y-18175470D02*
X10802039Y-18223089D01*
X10802039Y-18223089D02*
X10792515Y-18242136D01*
X10792515Y-18242136D02*
X10782991Y-18251660D01*
X10782991Y-18251660D02*
X10763944Y-18261184D01*
X10763944Y-18261184D02*
X10706801Y-18261184D01*
X10706801Y-18261184D02*
X10687753Y-18251660D01*
X10687753Y-18251660D02*
X10678229Y-18242136D01*
X10887753Y-18242136D02*
X10897277Y-18251660D01*
X10897277Y-18251660D02*
X10887753Y-18261184D01*
X10887753Y-18261184D02*
X10878229Y-18251660D01*
X10878229Y-18251660D02*
X10887753Y-18242136D01*
X10887753Y-18242136D02*
X10887753Y-18261184D01*
X10973467Y-18080231D02*
X10982991Y-18070708D01*
X10982991Y-18070708D02*
X11002039Y-18061184D01*
X11002039Y-18061184D02*
X11049658Y-18061184D01*
X11049658Y-18061184D02*
X11068705Y-18070708D01*
X11068705Y-18070708D02*
X11078229Y-18080231D01*
X11078229Y-18080231D02*
X11087753Y-18099279D01*
X11087753Y-18099279D02*
X11087753Y-18118327D01*
X11087753Y-18118327D02*
X11078229Y-18146898D01*
X11078229Y-18146898D02*
X10963944Y-18261184D01*
X10963944Y-18261184D02*
X11087753Y-18261184D01*
X11211562Y-18061184D02*
X11230610Y-18061184D01*
X11230610Y-18061184D02*
X11249658Y-18070708D01*
X11249658Y-18070708D02*
X11259182Y-18080231D01*
X11259182Y-18080231D02*
X11268705Y-18099279D01*
X11268705Y-18099279D02*
X11278229Y-18137374D01*
X11278229Y-18137374D02*
X11278229Y-18184993D01*
X11278229Y-18184993D02*
X11268705Y-18223089D01*
X11268705Y-18223089D02*
X11259182Y-18242136D01*
X11259182Y-18242136D02*
X11249658Y-18251660D01*
X11249658Y-18251660D02*
X11230610Y-18261184D01*
X11230610Y-18261184D02*
X11211562Y-18261184D01*
X11211562Y-18261184D02*
X11192515Y-18251660D01*
X11192515Y-18251660D02*
X11182991Y-18242136D01*
X11182991Y-18242136D02*
X11173467Y-18223089D01*
X11173467Y-18223089D02*
X11163944Y-18184993D01*
X11163944Y-18184993D02*
X11163944Y-18137374D01*
X11163944Y-18137374D02*
X11173467Y-18099279D01*
X11173467Y-18099279D02*
X11182991Y-18080231D01*
X11182991Y-18080231D02*
X11192515Y-18070708D01*
X11192515Y-18070708D02*
X11211562Y-18061184D01*
X11402039Y-18061184D02*
X11421086Y-18061184D01*
X11421086Y-18061184D02*
X11440134Y-18070708D01*
X11440134Y-18070708D02*
X11449658Y-18080231D01*
X11449658Y-18080231D02*
X11459182Y-18099279D01*
X11459182Y-18099279D02*
X11468705Y-18137374D01*
X11468705Y-18137374D02*
X11468705Y-18184993D01*
X11468705Y-18184993D02*
X11459182Y-18223089D01*
X11459182Y-18223089D02*
X11449658Y-18242136D01*
X11449658Y-18242136D02*
X11440134Y-18251660D01*
X11440134Y-18251660D02*
X11421086Y-18261184D01*
X11421086Y-18261184D02*
X11402039Y-18261184D01*
X11402039Y-18261184D02*
X11382991Y-18251660D01*
X11382991Y-18251660D02*
X11373467Y-18242136D01*
X11373467Y-18242136D02*
X11363943Y-18223089D01*
X11363943Y-18223089D02*
X11354420Y-18184993D01*
X11354420Y-18184993D02*
X11354420Y-18137374D01*
X11354420Y-18137374D02*
X11363943Y-18099279D01*
X11363943Y-18099279D02*
X11373467Y-18080231D01*
X11373467Y-18080231D02*
X11382991Y-18070708D01*
X11382991Y-18070708D02*
X11402039Y-18061184D01*
X11554420Y-18261184D02*
X11554420Y-18127850D01*
X11554420Y-18146898D02*
X11563943Y-18137374D01*
X11563943Y-18137374D02*
X11582991Y-18127850D01*
X11582991Y-18127850D02*
X11611563Y-18127850D01*
X11611563Y-18127850D02*
X11630610Y-18137374D01*
X11630610Y-18137374D02*
X11640134Y-18156422D01*
X11640134Y-18156422D02*
X11640134Y-18261184D01*
X11640134Y-18156422D02*
X11649658Y-18137374D01*
X11649658Y-18137374D02*
X11668705Y-18127850D01*
X11668705Y-18127850D02*
X11697277Y-18127850D01*
X11697277Y-18127850D02*
X11716324Y-18137374D01*
X11716324Y-18137374D02*
X11725848Y-18156422D01*
X11725848Y-18156422D02*
X11725848Y-18261184D01*
X11821086Y-18261184D02*
X11821086Y-18127850D01*
X11821086Y-18146898D02*
X11830610Y-18137374D01*
X11830610Y-18137374D02*
X11849658Y-18127850D01*
X11849658Y-18127850D02*
X11878229Y-18127850D01*
X11878229Y-18127850D02*
X11897277Y-18137374D01*
X11897277Y-18137374D02*
X11906801Y-18156422D01*
X11906801Y-18156422D02*
X11906801Y-18261184D01*
X11906801Y-18156422D02*
X11916324Y-18137374D01*
X11916324Y-18137374D02*
X11935372Y-18127850D01*
X11935372Y-18127850D02*
X11963943Y-18127850D01*
X11963943Y-18127850D02*
X11982991Y-18137374D01*
X11982991Y-18137374D02*
X11992515Y-18156422D01*
X11992515Y-18156422D02*
X11992515Y-18261184D01*
X12382991Y-18051660D02*
X12211563Y-18308803D01*
X12640134Y-18061184D02*
X12659182Y-18061184D01*
X12659182Y-18061184D02*
X12678229Y-18070708D01*
X12678229Y-18070708D02*
X12687753Y-18080231D01*
X12687753Y-18080231D02*
X12697277Y-18099279D01*
X12697277Y-18099279D02*
X12706801Y-18137374D01*
X12706801Y-18137374D02*
X12706801Y-18184993D01*
X12706801Y-18184993D02*
X12697277Y-18223089D01*
X12697277Y-18223089D02*
X12687753Y-18242136D01*
X12687753Y-18242136D02*
X12678229Y-18251660D01*
X12678229Y-18251660D02*
X12659182Y-18261184D01*
X12659182Y-18261184D02*
X12640134Y-18261184D01*
X12640134Y-18261184D02*
X12621086Y-18251660D01*
X12621086Y-18251660D02*
X12611563Y-18242136D01*
X12611563Y-18242136D02*
X12602039Y-18223089D01*
X12602039Y-18223089D02*
X12592515Y-18184993D01*
X12592515Y-18184993D02*
X12592515Y-18137374D01*
X12592515Y-18137374D02*
X12602039Y-18099279D01*
X12602039Y-18099279D02*
X12611563Y-18080231D01*
X12611563Y-18080231D02*
X12621086Y-18070708D01*
X12621086Y-18070708D02*
X12640134Y-18061184D01*
X12792515Y-18242136D02*
X12802039Y-18251660D01*
X12802039Y-18251660D02*
X12792515Y-18261184D01*
X12792515Y-18261184D02*
X12782991Y-18251660D01*
X12782991Y-18251660D02*
X12792515Y-18242136D01*
X12792515Y-18242136D02*
X12792515Y-18261184D01*
X12992515Y-18261184D02*
X12878229Y-18261184D01*
X12935372Y-18261184D02*
X12935372Y-18061184D01*
X12935372Y-18061184D02*
X12916325Y-18089755D01*
X12916325Y-18089755D02*
X12897277Y-18108803D01*
X12897277Y-18108803D02*
X12878229Y-18118327D01*
X13068706Y-18080231D02*
X13078229Y-18070708D01*
X13078229Y-18070708D02*
X13097277Y-18061184D01*
X13097277Y-18061184D02*
X13144896Y-18061184D01*
X13144896Y-18061184D02*
X13163944Y-18070708D01*
X13163944Y-18070708D02*
X13173467Y-18080231D01*
X13173467Y-18080231D02*
X13182991Y-18099279D01*
X13182991Y-18099279D02*
X13182991Y-18118327D01*
X13182991Y-18118327D02*
X13173467Y-18146898D01*
X13173467Y-18146898D02*
X13059182Y-18261184D01*
X13059182Y-18261184D02*
X13182991Y-18261184D01*
X13354420Y-18061184D02*
X13316325Y-18061184D01*
X13316325Y-18061184D02*
X13297277Y-18070708D01*
X13297277Y-18070708D02*
X13287753Y-18080231D01*
X13287753Y-18080231D02*
X13268706Y-18108803D01*
X13268706Y-18108803D02*
X13259182Y-18146898D01*
X13259182Y-18146898D02*
X13259182Y-18223089D01*
X13259182Y-18223089D02*
X13268706Y-18242136D01*
X13268706Y-18242136D02*
X13278229Y-18251660D01*
X13278229Y-18251660D02*
X13297277Y-18261184D01*
X13297277Y-18261184D02*
X13335372Y-18261184D01*
X13335372Y-18261184D02*
X13354420Y-18251660D01*
X13354420Y-18251660D02*
X13363944Y-18242136D01*
X13363944Y-18242136D02*
X13373467Y-18223089D01*
X13373467Y-18223089D02*
X13373467Y-18175470D01*
X13373467Y-18175470D02*
X13363944Y-18156422D01*
X13363944Y-18156422D02*
X13354420Y-18146898D01*
X13354420Y-18146898D02*
X13335372Y-18137374D01*
X13335372Y-18137374D02*
X13297277Y-18137374D01*
X13297277Y-18137374D02*
X13278229Y-18146898D01*
X13278229Y-18146898D02*
X13268706Y-18156422D01*
X13268706Y-18156422D02*
X13259182Y-18175470D01*
X13497277Y-18061184D02*
X13516325Y-18061184D01*
X13516325Y-18061184D02*
X13535372Y-18070708D01*
X13535372Y-18070708D02*
X13544896Y-18080231D01*
X13544896Y-18080231D02*
X13554420Y-18099279D01*
X13554420Y-18099279D02*
X13563944Y-18137374D01*
X13563944Y-18137374D02*
X13563944Y-18184993D01*
X13563944Y-18184993D02*
X13554420Y-18223089D01*
X13554420Y-18223089D02*
X13544896Y-18242136D01*
X13544896Y-18242136D02*
X13535372Y-18251660D01*
X13535372Y-18251660D02*
X13516325Y-18261184D01*
X13516325Y-18261184D02*
X13497277Y-18261184D01*
X13497277Y-18261184D02*
X13478229Y-18251660D01*
X13478229Y-18251660D02*
X13468706Y-18242136D01*
X13468706Y-18242136D02*
X13459182Y-18223089D01*
X13459182Y-18223089D02*
X13449658Y-18184993D01*
X13449658Y-18184993D02*
X13449658Y-18137374D01*
X13449658Y-18137374D02*
X13459182Y-18099279D01*
X13459182Y-18099279D02*
X13468706Y-18080231D01*
X13468706Y-18080231D02*
X13478229Y-18070708D01*
X13478229Y-18070708D02*
X13497277Y-18061184D01*
X13640134Y-18061184D02*
X13640134Y-18099279D01*
X13716325Y-18061184D02*
X13716325Y-18099279D01*
X14011563Y-18337374D02*
X14002039Y-18327850D01*
X14002039Y-18327850D02*
X13982991Y-18299279D01*
X13982991Y-18299279D02*
X13973468Y-18280231D01*
X13973468Y-18280231D02*
X13963944Y-18251660D01*
X13963944Y-18251660D02*
X13954420Y-18204041D01*
X13954420Y-18204041D02*
X13954420Y-18165946D01*
X13954420Y-18165946D02*
X13963944Y-18118327D01*
X13963944Y-18118327D02*
X13973468Y-18089755D01*
X13973468Y-18089755D02*
X13982991Y-18070708D01*
X13982991Y-18070708D02*
X14002039Y-18042136D01*
X14002039Y-18042136D02*
X14011563Y-18032612D01*
X14078229Y-18080231D02*
X14087753Y-18070708D01*
X14087753Y-18070708D02*
X14106801Y-18061184D01*
X14106801Y-18061184D02*
X14154420Y-18061184D01*
X14154420Y-18061184D02*
X14173468Y-18070708D01*
X14173468Y-18070708D02*
X14182991Y-18080231D01*
X14182991Y-18080231D02*
X14192515Y-18099279D01*
X14192515Y-18099279D02*
X14192515Y-18118327D01*
X14192515Y-18118327D02*
X14182991Y-18146898D01*
X14182991Y-18146898D02*
X14068706Y-18261184D01*
X14068706Y-18261184D02*
X14192515Y-18261184D01*
X14430610Y-18261184D02*
X14430610Y-18061184D01*
X14516325Y-18261184D02*
X14516325Y-18156422D01*
X14516325Y-18156422D02*
X14506801Y-18137374D01*
X14506801Y-18137374D02*
X14487753Y-18127850D01*
X14487753Y-18127850D02*
X14459182Y-18127850D01*
X14459182Y-18127850D02*
X14440134Y-18137374D01*
X14440134Y-18137374D02*
X14430610Y-18146898D01*
X14640134Y-18261184D02*
X14621087Y-18251660D01*
X14621087Y-18251660D02*
X14611563Y-18242136D01*
X14611563Y-18242136D02*
X14602039Y-18223089D01*
X14602039Y-18223089D02*
X14602039Y-18165946D01*
X14602039Y-18165946D02*
X14611563Y-18146898D01*
X14611563Y-18146898D02*
X14621087Y-18137374D01*
X14621087Y-18137374D02*
X14640134Y-18127850D01*
X14640134Y-18127850D02*
X14668706Y-18127850D01*
X14668706Y-18127850D02*
X14687753Y-18137374D01*
X14687753Y-18137374D02*
X14697277Y-18146898D01*
X14697277Y-18146898D02*
X14706801Y-18165946D01*
X14706801Y-18165946D02*
X14706801Y-18223089D01*
X14706801Y-18223089D02*
X14697277Y-18242136D01*
X14697277Y-18242136D02*
X14687753Y-18251660D01*
X14687753Y-18251660D02*
X14668706Y-18261184D01*
X14668706Y-18261184D02*
X14640134Y-18261184D01*
X14821087Y-18261184D02*
X14802039Y-18251660D01*
X14802039Y-18251660D02*
X14792515Y-18232612D01*
X14792515Y-18232612D02*
X14792515Y-18061184D01*
X14973468Y-18251660D02*
X14954420Y-18261184D01*
X14954420Y-18261184D02*
X14916325Y-18261184D01*
X14916325Y-18261184D02*
X14897277Y-18251660D01*
X14897277Y-18251660D02*
X14887753Y-18232612D01*
X14887753Y-18232612D02*
X14887753Y-18156422D01*
X14887753Y-18156422D02*
X14897277Y-18137374D01*
X14897277Y-18137374D02*
X14916325Y-18127850D01*
X14916325Y-18127850D02*
X14954420Y-18127850D01*
X14954420Y-18127850D02*
X14973468Y-18137374D01*
X14973468Y-18137374D02*
X14982991Y-18156422D01*
X14982991Y-18156422D02*
X14982991Y-18175470D01*
X14982991Y-18175470D02*
X14887753Y-18194517D01*
X15059182Y-18251660D02*
X15078230Y-18261184D01*
X15078230Y-18261184D02*
X15116325Y-18261184D01*
X15116325Y-18261184D02*
X15135372Y-18251660D01*
X15135372Y-18251660D02*
X15144896Y-18232612D01*
X15144896Y-18232612D02*
X15144896Y-18223089D01*
X15144896Y-18223089D02*
X15135372Y-18204041D01*
X15135372Y-18204041D02*
X15116325Y-18194517D01*
X15116325Y-18194517D02*
X15087753Y-18194517D01*
X15087753Y-18194517D02*
X15068706Y-18184993D01*
X15068706Y-18184993D02*
X15059182Y-18165946D01*
X15059182Y-18165946D02*
X15059182Y-18156422D01*
X15059182Y-18156422D02*
X15068706Y-18137374D01*
X15068706Y-18137374D02*
X15087753Y-18127850D01*
X15087753Y-18127850D02*
X15116325Y-18127850D01*
X15116325Y-18127850D02*
X15135372Y-18137374D01*
X15211563Y-18337374D02*
X15221087Y-18327850D01*
X15221087Y-18327850D02*
X15240134Y-18299279D01*
X15240134Y-18299279D02*
X15249658Y-18280231D01*
X15249658Y-18280231D02*
X15259182Y-18251660D01*
X15259182Y-18251660D02*
X15268706Y-18204041D01*
X15268706Y-18204041D02*
X15268706Y-18165946D01*
X15268706Y-18165946D02*
X15259182Y-18118327D01*
X15259182Y-18118327D02*
X15249658Y-18089755D01*
X15249658Y-18089755D02*
X15240134Y-18070708D01*
X15240134Y-18070708D02*
X15221087Y-18042136D01*
X15221087Y-18042136D02*
X15211563Y-18032612D01*
X15573468Y-18337374D02*
X15563944Y-18327850D01*
X15563944Y-18327850D02*
X15544896Y-18299279D01*
X15544896Y-18299279D02*
X15535372Y-18280231D01*
X15535372Y-18280231D02*
X15525849Y-18251660D01*
X15525849Y-18251660D02*
X15516325Y-18204041D01*
X15516325Y-18204041D02*
X15516325Y-18165946D01*
X15516325Y-18165946D02*
X15525849Y-18118327D01*
X15525849Y-18118327D02*
X15535372Y-18089755D01*
X15535372Y-18089755D02*
X15544896Y-18070708D01*
X15544896Y-18070708D02*
X15563944Y-18042136D01*
X15563944Y-18042136D02*
X15573468Y-18032612D01*
X15649658Y-18127850D02*
X15649658Y-18261184D01*
X15649658Y-18146898D02*
X15659182Y-18137374D01*
X15659182Y-18137374D02*
X15678230Y-18127850D01*
X15678230Y-18127850D02*
X15706801Y-18127850D01*
X15706801Y-18127850D02*
X15725849Y-18137374D01*
X15725849Y-18137374D02*
X15735372Y-18156422D01*
X15735372Y-18156422D02*
X15735372Y-18261184D01*
X15859182Y-18261184D02*
X15840134Y-18251660D01*
X15840134Y-18251660D02*
X15830611Y-18242136D01*
X15830611Y-18242136D02*
X15821087Y-18223089D01*
X15821087Y-18223089D02*
X15821087Y-18165946D01*
X15821087Y-18165946D02*
X15830611Y-18146898D01*
X15830611Y-18146898D02*
X15840134Y-18137374D01*
X15840134Y-18137374D02*
X15859182Y-18127850D01*
X15859182Y-18127850D02*
X15887753Y-18127850D01*
X15887753Y-18127850D02*
X15906801Y-18137374D01*
X15906801Y-18137374D02*
X15916325Y-18146898D01*
X15916325Y-18146898D02*
X15925849Y-18165946D01*
X15925849Y-18165946D02*
X15925849Y-18223089D01*
X15925849Y-18223089D02*
X15916325Y-18242136D01*
X15916325Y-18242136D02*
X15906801Y-18251660D01*
X15906801Y-18251660D02*
X15887753Y-18261184D01*
X15887753Y-18261184D02*
X15859182Y-18261184D01*
X15982992Y-18127850D02*
X16059182Y-18127850D01*
X16011563Y-18061184D02*
X16011563Y-18232612D01*
X16011563Y-18232612D02*
X16021087Y-18251660D01*
X16021087Y-18251660D02*
X16040134Y-18261184D01*
X16040134Y-18261184D02*
X16059182Y-18261184D01*
X16278230Y-18127850D02*
X16278230Y-18327850D01*
X16278230Y-18137374D02*
X16297277Y-18127850D01*
X16297277Y-18127850D02*
X16335373Y-18127850D01*
X16335373Y-18127850D02*
X16354420Y-18137374D01*
X16354420Y-18137374D02*
X16363944Y-18146898D01*
X16363944Y-18146898D02*
X16373468Y-18165946D01*
X16373468Y-18165946D02*
X16373468Y-18223089D01*
X16373468Y-18223089D02*
X16363944Y-18242136D01*
X16363944Y-18242136D02*
X16354420Y-18251660D01*
X16354420Y-18251660D02*
X16335373Y-18261184D01*
X16335373Y-18261184D02*
X16297277Y-18261184D01*
X16297277Y-18261184D02*
X16278230Y-18251660D01*
X16487753Y-18261184D02*
X16468706Y-18251660D01*
X16468706Y-18251660D02*
X16459182Y-18232612D01*
X16459182Y-18232612D02*
X16459182Y-18061184D01*
X16649658Y-18261184D02*
X16649658Y-18156422D01*
X16649658Y-18156422D02*
X16640134Y-18137374D01*
X16640134Y-18137374D02*
X16621087Y-18127850D01*
X16621087Y-18127850D02*
X16582992Y-18127850D01*
X16582992Y-18127850D02*
X16563944Y-18137374D01*
X16649658Y-18251660D02*
X16630611Y-18261184D01*
X16630611Y-18261184D02*
X16582992Y-18261184D01*
X16582992Y-18261184D02*
X16563944Y-18251660D01*
X16563944Y-18251660D02*
X16554420Y-18232612D01*
X16554420Y-18232612D02*
X16554420Y-18213565D01*
X16554420Y-18213565D02*
X16563944Y-18194517D01*
X16563944Y-18194517D02*
X16582992Y-18184993D01*
X16582992Y-18184993D02*
X16630611Y-18184993D01*
X16630611Y-18184993D02*
X16649658Y-18175470D01*
X16716325Y-18127850D02*
X16792515Y-18127850D01*
X16744896Y-18061184D02*
X16744896Y-18232612D01*
X16744896Y-18232612D02*
X16754420Y-18251660D01*
X16754420Y-18251660D02*
X16773468Y-18261184D01*
X16773468Y-18261184D02*
X16792515Y-18261184D01*
X16935373Y-18251660D02*
X16916325Y-18261184D01*
X16916325Y-18261184D02*
X16878230Y-18261184D01*
X16878230Y-18261184D02*
X16859182Y-18251660D01*
X16859182Y-18251660D02*
X16849658Y-18232612D01*
X16849658Y-18232612D02*
X16849658Y-18156422D01*
X16849658Y-18156422D02*
X16859182Y-18137374D01*
X16859182Y-18137374D02*
X16878230Y-18127850D01*
X16878230Y-18127850D02*
X16916325Y-18127850D01*
X16916325Y-18127850D02*
X16935373Y-18137374D01*
X16935373Y-18137374D02*
X16944896Y-18156422D01*
X16944896Y-18156422D02*
X16944896Y-18175470D01*
X16944896Y-18175470D02*
X16849658Y-18194517D01*
X17116325Y-18261184D02*
X17116325Y-18061184D01*
X17116325Y-18251660D02*
X17097277Y-18261184D01*
X17097277Y-18261184D02*
X17059182Y-18261184D01*
X17059182Y-18261184D02*
X17040135Y-18251660D01*
X17040135Y-18251660D02*
X17030611Y-18242136D01*
X17030611Y-18242136D02*
X17021087Y-18223089D01*
X17021087Y-18223089D02*
X17021087Y-18165946D01*
X17021087Y-18165946D02*
X17030611Y-18146898D01*
X17030611Y-18146898D02*
X17040135Y-18137374D01*
X17040135Y-18137374D02*
X17059182Y-18127850D01*
X17059182Y-18127850D02*
X17097277Y-18127850D01*
X17097277Y-18127850D02*
X17116325Y-18137374D01*
X17192516Y-18337374D02*
X17202039Y-18327850D01*
X17202039Y-18327850D02*
X17221087Y-18299279D01*
X17221087Y-18299279D02*
X17230611Y-18280231D01*
X17230611Y-18280231D02*
X17240135Y-18251660D01*
X17240135Y-18251660D02*
X17249658Y-18204041D01*
X17249658Y-18204041D02*
X17249658Y-18165946D01*
X17249658Y-18165946D02*
X17240135Y-18118327D01*
X17240135Y-18118327D02*
X17230611Y-18089755D01*
X17230611Y-18089755D02*
X17221087Y-18070708D01*
X17221087Y-18070708D02*
X17202039Y-18042136D01*
X17202039Y-18042136D02*
X17192516Y-18032612D01*
M02*
