M48
; DRILL file KiCad 10.0.5 date 2026-08-08T12:56:25
; FORMAT={-:-/ absolute / metric / decimal}
; #@! TF.CreationDate,2026-08-08T12:56:25-06:00
; #@! TF.GenerationSoftware,Kicad,Pcbnew,10.0.5
; #@! TF.FileFunction,Plated,1,2,PTH
FMAT,2
METRIC
; #@! TA.AperFunction,Plated,PTH,ViaDrill
T1C0.300
; #@! TA.AperFunction,Plated,PTH,ViaDrill
T2C0.400
; #@! TA.AperFunction,Plated,PTH,ComponentDrill
T3C0.500
; #@! TA.AperFunction,Plated,PTH,ComponentDrill
T4C1.000
; #@! TA.AperFunction,Plated,PTH,ComponentDrill
T5C1.300
; #@! TA.AperFunction,Plated,PTH,ComponentDrill
T6C3.200
%
G90
G05
T1
X105.65Y-64.6
X105.9Y-54.44
X105.9Y-56.98
X105.9Y-59.245
X105.9Y-62.65
X105.9Y-67.14
X105.9Y-69.68
X105.9Y-72.22
X105.9Y-74.76
X105.9Y-77.3
X105.9Y-79.76
X105.9Y-92.22
X105.9Y-94.76
X105.9Y-97.3
X105.9Y-110.76
X105.9Y-113.3
X105.95Y-90.05
X111.2Y-112.9
X116.9Y-46.72
X116.9Y-49.26
X116.9Y-51.8
X117.75Y-62.07
X117.75Y-64.61
X117.75Y-69.69
X117.75Y-72.23
X117.75Y-74.77
X117.75Y-77.31
X117.75Y-79.85
X117.75Y-82.39
X117.75Y-84.93
X117.75Y-87.47
X117.75Y-90.01
X117.75Y-92.55
X117.75Y-95.09
X117.75Y-97.63
X117.75Y-100.17
X117.75Y-102.71
X117.75Y-105.25
X117.75Y-107.79
X117.8Y-110.4
X118.9Y-61.3
X118.9Y-67.15
X121.65Y-121.4
X122.9Y-146.55
X129.9Y-62.3
X129.9Y-64.72
X129.9Y-67.26
X129.9Y-69.8
X129.9Y-75.02
X129.9Y-77.56
X129.9Y-80.1
X129.9Y-82.64
X129.9Y-85.18
X129.9Y-87.72
X129.9Y-90.26
X129.9Y-92.8
X129.9Y-95.1
X129.9Y-97.64
X129.9Y-100.18
X129.9Y-102.72
X129.9Y-105.26
X129.9Y-107.8
X129.9Y-110.4
X130.9Y-104.1
X131.4Y-46.3
X131.4Y-47.8
X131.4Y-49.3
X131.7Y-98.95
X132.6Y-112.879
X133.0Y-52.3
X134.5Y-52.3
X134.9Y-46.3
X134.9Y-47.8
X134.9Y-49.3
X136.0Y-52.3
X136.6Y-54.1
X137.4Y-51.95
X137.7Y-91.85
X139.4Y-47.8
X140.1Y-94.4
X140.1Y-95.75
X140.1Y-99.2
X141.9Y-108.0
X142.55Y-90.55
X142.6Y-99.0
X142.65Y-103.0
X142.9Y-47.8
X142.9Y-50.34
X142.9Y-52.88
X142.9Y-55.42
X142.9Y-57.96
X142.9Y-60.5
X142.9Y-63.04
X142.9Y-65.58
X142.9Y-68.12
X142.9Y-70.66
X142.9Y-98.06
X142.9Y-110.76
X142.9Y-113.3
X142.95Y-95.9
T2
X110.3Y-60.1
X112.015Y-144.7
X112.015Y-148.7
X113.0Y-133.9
X116.4Y-130.1
X119.2Y-169.4
X122.2Y-172.6
X123.35Y-121.25
X125.4Y-121.2
X126.6Y-172.6
X129.539Y-126.975
X131.4Y-124.475
X131.5Y-72.2
T3
X105.99Y-49.272
X106.693Y-47.575
X106.693Y-50.969
X108.39Y-46.872
X108.39Y-51.672
X110.087Y-47.575
X110.087Y-50.969
X110.79Y-49.272
T4
X111.0Y-64.61
X111.0Y-67.15
X111.0Y-69.69
X111.0Y-72.23
X111.0Y-74.77
X111.0Y-77.31
X111.0Y-79.85
X119.32Y-118.65
X121.86Y-118.65
X124.4Y-118.65
X126.94Y-118.65
X129.48Y-118.65
X133.945Y-54.65
X133.945Y-57.15
T5
X132.6Y-152.92
X132.6Y-158.0
T6
X108.39Y-49.272
M30
