%TF.GenerationSoftware,KiCad,Pcbnew,10.0.5*%
%TF.CreationDate,2026-08-08T12:56:25-06:00*%
%TF.ProjectId,picoemp-rev2026,7069636f-656d-4702-9d72-657632303236,A*%
%TF.SameCoordinates,Original*%
%TF.FileFunction,Soldermask,Top*%
%TF.FilePolarity,Negative*%
%FSLAX46Y46*%
G04 Gerber Fmt 4.6, Leading zero omitted, Abs format (unit mm)*
G04 Created by KiCad (PCBNEW 10.0.5) date 2026-08-08 12:56:25*
%MOMM*%
%LPD*%
G01*
G04 APERTURE LIST*
G04 Aperture macros list*
%AMRoundRect*
0 Rectangle with rounded corners*
0 $1 Rounding radius*
0 $2 $3 $4 $5 $6 $7 $8 $9 X,Y pos of 4 corners*
0 Add a 4 corners polygon primitive as box body*
4,1,4,$2,$3,$4,$5,$6,$7,$8,$9,$2,$3,0*
0 Add four circle primitives for the rounded corners*
1,1,$1+$1,$2,$3*
1,1,$1+$1,$4,$5*
1,1,$1+$1,$6,$7*
1,1,$1+$1,$8,$9*
0 Add four rect primitives between the rounded corners*
20,1,$1+$1,$2,$3,$4,$5,0*
20,1,$1+$1,$4,$5,$6,$7,0*
20,1,$1+$1,$6,$7,$8,$9,0*
20,1,$1+$1,$8,$9,$2,$3,0*%
%AMFreePoly0*
4,1,37,0.800000,0.796148,0.878414,0.796148,1.032228,0.765552,1.177117,0.705537,1.307515,0.618408,1.418408,0.507515,1.505537,0.377117,1.565552,0.232228,1.596148,0.078414,1.596148,-0.078414,1.565552,-0.232228,1.505537,-0.377117,1.418408,-0.507515,1.307515,-0.618408,1.177117,-0.705537,1.032228,-0.765552,0.878414,-0.796148,0.800000,-0.796148,0.800000,-0.800000,-1.400000,-0.800000,
-1.403843,-0.796157,-1.439018,-0.796157,-1.511114,-0.766294,-1.566294,-0.711114,-1.596157,-0.639018,-1.596157,-0.603843,-1.600000,-0.600000,-1.600000,0.600000,-1.596157,0.603843,-1.596157,0.639018,-1.566294,0.711114,-1.511114,0.766294,-1.439018,0.796157,-1.403843,0.796157,-1.400000,0.800000,0.800000,0.800000,0.800000,0.796148,0.800000,0.796148,$1*%
%AMFreePoly1*
4,1,37,1.403843,0.796157,1.439018,0.796157,1.511114,0.766294,1.566294,0.711114,1.596157,0.639018,1.596157,0.603843,1.600000,0.600000,1.600000,-0.600000,1.596157,-0.603843,1.596157,-0.639018,1.566294,-0.711114,1.511114,-0.766294,1.439018,-0.796157,1.403843,-0.796157,1.400000,-0.800000,-0.800000,-0.800000,-0.800000,-0.796148,-0.878414,-0.796148,-1.032228,-0.765552,-1.177117,-0.705537,
-1.307515,-0.618408,-1.418408,-0.507515,-1.505537,-0.377117,-1.565552,-0.232228,-1.596148,-0.078414,-1.596148,0.078414,-1.565552,0.232228,-1.505537,0.377117,-1.418408,0.507515,-1.307515,0.618408,-1.177117,0.705537,-1.032228,0.765552,-0.878414,0.796148,-0.800000,0.796148,-0.800000,0.800000,1.400000,0.800000,1.403843,0.796157,1.403843,0.796157,$1*%
%AMFreePoly2*
4,1,37,1.600000,0.796148,1.678414,0.796148,1.832228,0.765552,1.977117,0.705537,2.107515,0.618408,2.218408,0.507515,2.305537,0.377117,2.365552,0.232228,2.396148,0.078414,2.396148,-0.078414,2.365552,-0.232228,2.305537,-0.377117,2.218408,-0.507515,2.107515,-0.618408,1.977117,-0.705537,1.832228,-0.765552,1.678414,-0.796148,1.600000,-0.796148,1.600000,-0.800000,-0.600000,-0.800000,
-0.603843,-0.796157,-0.639018,-0.796157,-0.711114,-0.766294,-0.766294,-0.711114,-0.796157,-0.639018,-0.796157,-0.603843,-0.800000,-0.600000,-0.800000,0.600000,-0.796157,0.603843,-0.796157,0.639018,-0.766294,0.711114,-0.711114,0.766294,-0.639018,0.796157,-0.603843,0.796157,-0.600000,0.800000,1.600000,0.800000,1.600000,0.796148,1.600000,0.796148,$1*%
G04 Aperture macros list end*
%ADD10RoundRect,0.218750X0.218750X0.256250X-0.218750X0.256250X-0.218750X-0.256250X0.218750X-0.256250X0*%
%ADD11RoundRect,0.225000X-0.250000X0.225000X-0.250000X-0.225000X0.250000X-0.225000X0.250000X0.225000X0*%
%ADD12RoundRect,0.250000X0.262500X0.450000X-0.262500X0.450000X-0.262500X-0.450000X0.262500X-0.450000X0*%
%ADD13RoundRect,0.200000X-0.275000X0.200000X-0.275000X-0.200000X0.275000X-0.200000X0.275000X0.200000X0*%
%ADD14RoundRect,0.150000X-0.587500X-0.150000X0.587500X-0.150000X0.587500X0.150000X-0.587500X0.150000X0*%
%ADD15RoundRect,0.250000X0.250000X0.475000X-0.250000X0.475000X-0.250000X-0.475000X0.250000X-0.475000X0*%
%ADD16RoundRect,0.287500X-0.287500X-0.362500X0.287500X-0.362500X0.287500X0.362500X-0.287500X0.362500X0*%
%ADD17R,1.500000X5.600000*%
%ADD18R,1.600000X4.900000*%
%ADD19R,0.550000X1.000000*%
%ADD20RoundRect,0.250000X-0.362500X-1.425000X0.362500X-1.425000X0.362500X1.425000X-0.362500X1.425000X0*%
%ADD21RoundRect,0.250000X1.075000X-0.362500X1.075000X0.362500X-1.075000X0.362500X-1.075000X-0.362500X0*%
%ADD22RoundRect,0.200000X-0.200000X-0.275000X0.200000X-0.275000X0.200000X0.275000X-0.200000X0.275000X0*%
%ADD23C,0.800000*%
%ADD24C,6.400000*%
%ADD25C,3.200000*%
%ADD26RoundRect,0.218750X-0.218750X-0.256250X0.218750X-0.256250X0.218750X0.256250X-0.218750X0.256250X0*%
%ADD27RoundRect,0.250000X0.350000X-0.850000X0.350000X0.850000X-0.350000X0.850000X-0.350000X-0.850000X0*%
%ADD28RoundRect,0.249997X2.650003X-2.950003X2.650003X2.950003X-2.650003X2.950003X-2.650003X-2.950003X0*%
%ADD29RoundRect,0.200000X0.200000X0.275000X-0.200000X0.275000X-0.200000X-0.275000X0.200000X-0.275000X0*%
%ADD30C,1.500000*%
%ADD31RoundRect,0.125000X-0.125000X-0.125000X0.125000X-0.125000X0.125000X0.125000X-0.125000X0.125000X0*%
%ADD32RoundRect,0.200000X0.275000X-0.200000X0.275000X0.200000X-0.275000X0.200000X-0.275000X-0.200000X0*%
%ADD33RoundRect,0.250000X0.250000X-1.150000X0.250000X1.150000X-0.250000X1.150000X-0.250000X-1.150000X0*%
%ADD34R,1.270000X2.540000*%
%ADD35RoundRect,0.250000X0.750000X-0.600000X0.750000X0.600000X-0.750000X0.600000X-0.750000X-0.600000X0*%
%ADD36O,2.000000X1.700000*%
%ADD37RoundRect,0.350000X0.350000X-0.665000X0.350000X0.665000X-0.350000X0.665000X-0.350000X-0.665000X0*%
%ADD38RoundRect,0.250000X0.450000X-0.262500X0.450000X0.262500X-0.450000X0.262500X-0.450000X-0.262500X0*%
%ADD39R,1.700000X1.700000*%
%ADD40C,1.700000*%
%ADD41RoundRect,0.250000X-0.250000X1.150000X-0.250000X-1.150000X0.250000X-1.150000X0.250000X1.150000X0*%
%ADD42RoundRect,0.225000X-0.225000X-0.250000X0.225000X-0.250000X0.225000X0.250000X-0.225000X0.250000X0*%
%ADD43RoundRect,0.250000X-1.000000X-0.650000X1.000000X-0.650000X1.000000X0.650000X-1.000000X0.650000X0*%
%ADD44O,1.100000X1.800000*%
%ADD45O,1.050000X1.450000*%
%ADD46FreePoly0,0.000000*%
%ADD47RoundRect,0.800000X-0.800000X-0.000010X0.800000X-0.000010X0.800000X0.000010X-0.800000X0.000010X0*%
%ADD48FreePoly1,0.000000*%
%ADD49RoundRect,0.800000X0.000010X-0.800000X0.000010X0.800000X-0.000010X0.800000X-0.000010X-0.800000X0*%
%ADD50FreePoly2,270.000000*%
%ADD51RoundRect,0.300000X-0.450000X-0.450000X0.450000X-0.450000X0.450000X0.450000X-0.450000X0.450000X0*%
%ADD52RoundRect,0.650000X0.650000X-0.650000X0.650000X0.650000X-0.650000X0.650000X-0.650000X-0.650000X0*%
%ADD53C,2.600000*%
%ADD54RoundRect,0.150000X-0.150000X0.512500X-0.150000X-0.512500X0.150000X-0.512500X0.150000X0.512500X0*%
%ADD55RoundRect,0.250000X-2.450000X0.650000X-2.450000X-0.650000X2.450000X-0.650000X2.450000X0.650000X0*%
G04 APERTURE END LIST*
D10*
%TO.C,D9*%
X142487500Y-83150000D03*
X140912500Y-83150000D03*
%TD*%
D11*
%TO.C,C6*%
X111500000Y-60125000D03*
X111500000Y-61675000D03*
%TD*%
D12*
%TO.C,R9*%
X114912500Y-146900000D03*
X113087500Y-146900000D03*
%TD*%
D13*
%TO.C,R5*%
X132900000Y-125975000D03*
X132900000Y-127625000D03*
%TD*%
D14*
%TO.C,Q3*%
X133062500Y-129650000D03*
X133062500Y-131550000D03*
X134937500Y-130600000D03*
%TD*%
D15*
%TO.C,C2*%
X132350000Y-133450000D03*
X130450000Y-133450000D03*
%TD*%
D16*
%TO.C,D1*%
X137650000Y-62100000D03*
X140750000Y-62100000D03*
%TD*%
D17*
%TO.C,J3*%
X137400000Y-48600000D03*
D18*
X141660000Y-48250000D03*
X133140000Y-48250000D03*
%TD*%
D19*
%TO.C,T2*%
X118390000Y-137515000D03*
X118390000Y-139285000D03*
X115390000Y-139285000D03*
X115390000Y-137515000D03*
%TD*%
D20*
%TO.C,R2*%
X128037500Y-147900000D03*
X133962500Y-147900000D03*
%TD*%
D21*
%TO.C,R1*%
X121875200Y-144135300D03*
X121875200Y-139510300D03*
%TD*%
D22*
%TO.C,R3*%
X116775000Y-135300000D03*
X118425000Y-135300000D03*
%TD*%
D14*
%TO.C,Q4*%
X114262500Y-131150000D03*
X114262500Y-133050000D03*
X116137500Y-132100000D03*
%TD*%
D22*
%TO.C,R7*%
X113175000Y-143300000D03*
X114825000Y-143300000D03*
%TD*%
D23*
%TO.C,MH3*%
X105990000Y-49272000D03*
X106692944Y-47574944D03*
X106692944Y-50969056D03*
X108390000Y-46872000D03*
D24*
X108390000Y-49272000D03*
D23*
X108390000Y-51672000D03*
X110087056Y-47574944D03*
X110087056Y-50969056D03*
X110790000Y-49272000D03*
%TD*%
D25*
%TO.C,MH2*%
X112640000Y-164522000D03*
%TD*%
D26*
%TO.C,D8*%
X107112500Y-86300000D03*
X108687500Y-86300000D03*
%TD*%
D16*
%TO.C,D5*%
X117300000Y-123800000D03*
X120400000Y-123800000D03*
%TD*%
D27*
%TO.C,Q2*%
X116910000Y-166640000D03*
X119190000Y-166640000D03*
D28*
X119190000Y-160340000D03*
D27*
X121470000Y-166640000D03*
%TD*%
D29*
%TO.C,R10*%
X117725000Y-128800000D03*
X116075000Y-128800000D03*
%TD*%
D30*
%TO.C,FID3*%
X108390000Y-113275000D03*
%TD*%
D31*
%TO.C,D7*%
X112900000Y-150100000D03*
X115100000Y-150100000D03*
%TD*%
D19*
%TO.C,T1*%
X133390000Y-137515000D03*
X133390000Y-139285000D03*
X130390000Y-139285000D03*
X130390000Y-137515000D03*
%TD*%
D32*
%TO.C,R16*%
X109000000Y-61725000D03*
X109000000Y-60075000D03*
%TD*%
D26*
%TO.C,D6*%
X107112500Y-82800000D03*
X108687500Y-82800000D03*
%TD*%
D33*
%TO.C,SW1*%
X138000000Y-78950000D03*
X138000000Y-73150000D03*
X142000000Y-78950000D03*
X142000000Y-73150000D03*
%TD*%
D34*
%TO.C,Q1*%
X121860000Y-135525000D03*
X124400000Y-135525000D03*
X126940000Y-135525000D03*
X126940000Y-126675000D03*
X124400000Y-126675000D03*
X121860000Y-126675000D03*
%TD*%
D35*
%TO.C,J2*%
X133945000Y-57150000D03*
D36*
X133945000Y-54650000D03*
%TD*%
D29*
%TO.C,R12*%
X111932100Y-86300000D03*
X110282100Y-86300000D03*
%TD*%
D16*
%TO.C,D3*%
X123250000Y-123800000D03*
X126350000Y-123800000D03*
%TD*%
D15*
%TO.C,C1*%
X132350000Y-135650000D03*
X130450000Y-135650000D03*
%TD*%
D29*
%TO.C,R11*%
X111932100Y-82800000D03*
X110282100Y-82800000D03*
%TD*%
D37*
%TO.C,SW3*%
X118442000Y-155234000D03*
X118442000Y-149664000D03*
X122942000Y-155234000D03*
X122942000Y-149664000D03*
%TD*%
D38*
%TO.C,R4*%
X130400000Y-131300000D03*
X130400000Y-129475000D03*
%TD*%
D39*
%TO.C,J6*%
X111000000Y-64610000D03*
D40*
X111000000Y-67150000D03*
X111000000Y-69690000D03*
X111000000Y-72230000D03*
X111000000Y-74770000D03*
X111000000Y-77310000D03*
X111000000Y-79850000D03*
%TD*%
D41*
%TO.C,SW2*%
X110700000Y-99900000D03*
X110700000Y-105700000D03*
X106700000Y-99900000D03*
X106700000Y-105700000D03*
%TD*%
D39*
%TO.C,J5*%
X119320000Y-118650000D03*
D40*
X121860000Y-118650000D03*
X124400000Y-118650000D03*
X126940000Y-118650000D03*
X129480000Y-118650000D03*
%TD*%
D42*
%TO.C,C5*%
X113825000Y-135300000D03*
X115375000Y-135300000D03*
%TD*%
D22*
%TO.C,R13*%
X137500000Y-83150000D03*
X139150000Y-83150000D03*
%TD*%
D43*
%TO.C,D2*%
X128850000Y-142700000D03*
X132850000Y-142700000D03*
%TD*%
D32*
%TO.C,R15*%
X113800000Y-57725000D03*
X113800000Y-56075000D03*
%TD*%
D25*
%TO.C,MH1*%
X136140000Y-126022000D03*
%TD*%
D44*
%TO.C,U1*%
X121665000Y-62197100D03*
D45*
X121965000Y-65227100D03*
X126815000Y-65227100D03*
D44*
X127115000Y-62197100D03*
D46*
X114700000Y-62067100D03*
D47*
X114700000Y-64607100D03*
D48*
X114700000Y-67147100D03*
D47*
X114700000Y-69687100D03*
X114700000Y-72227100D03*
X114700000Y-74767100D03*
X114700000Y-77307100D03*
D48*
X114700000Y-79847100D03*
D47*
X114700000Y-82387100D03*
X114700000Y-84927100D03*
X114700000Y-87467100D03*
X114700000Y-90007100D03*
D48*
X114700000Y-92547100D03*
D47*
X114700000Y-95087100D03*
X114700000Y-97627100D03*
X114700000Y-100167100D03*
X114700000Y-102707100D03*
D48*
X114700000Y-105247100D03*
D47*
X114700000Y-107787100D03*
X114700000Y-110327100D03*
X134080000Y-110327100D03*
X134080000Y-107787100D03*
D46*
X134080000Y-105247100D03*
D47*
X134080000Y-102707100D03*
X134080000Y-100167100D03*
X134080000Y-97627100D03*
X134080000Y-95087100D03*
D46*
X134080000Y-92547100D03*
D47*
X134080000Y-90007100D03*
X134080000Y-87467100D03*
X134080000Y-84927100D03*
X134080000Y-82387100D03*
D46*
X134080000Y-79847100D03*
D47*
X134080000Y-77307100D03*
X134080000Y-74767100D03*
X134080000Y-72227100D03*
X134080000Y-69687100D03*
D46*
X134080000Y-67147100D03*
D47*
X134080000Y-64607100D03*
X134080000Y-62067100D03*
D49*
X121850000Y-110897100D03*
D50*
X124390000Y-110097100D03*
D49*
X126930000Y-110897100D03*
D51*
X124390000Y-65197100D03*
X125390000Y-61897100D03*
X123390000Y-61897100D03*
X121890000Y-68697100D03*
X121890000Y-71197100D03*
X121890000Y-73697100D03*
%TD*%
D30*
%TO.C,FID2*%
X140390000Y-66400000D03*
%TD*%
D17*
%TO.C,J1*%
X124390000Y-172372000D03*
D18*
X120130000Y-172722000D03*
X128650000Y-172722000D03*
%TD*%
D52*
%TO.C,J4*%
X132600000Y-158000000D03*
D53*
X132600000Y-152920000D03*
%TD*%
D54*
%TO.C,U2*%
X111950000Y-55762500D03*
X111000000Y-55762500D03*
X110050000Y-55762500D03*
X110050000Y-58037500D03*
X111950000Y-58037500D03*
%TD*%
D32*
%TO.C,R6*%
X128100000Y-124300000D03*
X128100000Y-122650000D03*
%TD*%
D29*
%TO.C,R14*%
X115425000Y-59500000D03*
X113775000Y-59500000D03*
%TD*%
D55*
%TO.C,C3*%
X126900000Y-162190000D03*
X126900000Y-167290000D03*
%TD*%
D30*
%TO.C,FID1*%
X114390000Y-49272000D03*
%TD*%
D16*
%TO.C,D4*%
X129800000Y-123800000D03*
X132900000Y-123800000D03*
%TD*%
M02*
