%TF.GenerationSoftware,KiCad,Pcbnew,10.0.5*%
%TF.CreationDate,2026-08-08T12:56:25-06:00*%
%TF.ProjectId,picoemp-rev2026,7069636f-656d-4702-9d72-657632303236,A*%
%TF.SameCoordinates,Original*%
%TF.FileFunction,Legend,Bot*%
%TF.FilePolarity,Positive*%
%FSLAX46Y46*%
G04 Gerber Fmt 4.6, Leading zero omitted, Abs format (unit mm)*
G04 Created by KiCad (PCBNEW 10.0.5) date 2026-08-08 12:56:25*
%MOMM*%
%LPD*%
G01*
G04 APERTURE LIST*
%ADD10C,0.150000*%
%ADD11C,0.200000*%
G04 APERTURE END LIST*
D10*
G36*
X115161778Y-64618628D02*
G01*
X114873531Y-64618628D01*
X114805015Y-64584370D01*
X114774608Y-64553963D01*
X114740350Y-64485447D01*
X114740350Y-64378000D01*
X114774608Y-64309484D01*
X114805015Y-64279077D01*
X114873531Y-64244819D01*
X115161778Y-64244819D01*
X115161778Y-64618628D01*
G37*
G36*
X116326210Y-65355930D02*
G01*
X113003049Y-65355930D01*
X113003049Y-64741247D01*
X113114160Y-64741247D01*
X113114160Y-65074580D01*
X113115601Y-65089212D01*
X113119518Y-65098668D01*
X113126799Y-65116247D01*
X113136126Y-65127612D01*
X113183745Y-65175232D01*
X113195111Y-65184560D01*
X113197599Y-65185590D01*
X113199636Y-65187357D01*
X113213062Y-65193351D01*
X113355918Y-65240970D01*
X113363173Y-65242619D01*
X113365004Y-65243378D01*
X113367657Y-65243639D01*
X113370255Y-65244230D01*
X113372229Y-65244089D01*
X113379636Y-65244819D01*
X113474874Y-65244819D01*
X113482279Y-65244089D01*
X113484254Y-65244230D01*
X113486851Y-65243639D01*
X113489506Y-65243378D01*
X113491337Y-65242619D01*
X113498591Y-65240970D01*
X113641448Y-65193351D01*
X113654873Y-65187357D01*
X113656908Y-65185591D01*
X113659399Y-65184560D01*
X113670764Y-65175233D01*
X113766003Y-65079993D01*
X113770720Y-65074244D01*
X113772219Y-65072945D01*
X113773640Y-65070686D01*
X113775330Y-65068628D01*
X113776087Y-65066798D01*
X113780051Y-65060502D01*
X113827670Y-64965264D01*
X113828079Y-64964194D01*
X113828402Y-64963759D01*
X113830594Y-64957622D01*
X113832925Y-64951533D01*
X113832963Y-64950992D01*
X113833349Y-64949913D01*
X113880968Y-64759437D01*
X113881343Y-64756900D01*
X113881766Y-64755879D01*
X113882308Y-64750366D01*
X113883118Y-64744893D01*
X113882955Y-64743800D01*
X113883207Y-64741247D01*
X113883207Y-64598390D01*
X113882955Y-64595836D01*
X113883118Y-64594744D01*
X113882308Y-64589270D01*
X113881766Y-64583758D01*
X113881343Y-64582736D01*
X113880968Y-64580200D01*
X113833349Y-64389724D01*
X113832963Y-64388644D01*
X113832925Y-64388104D01*
X113830594Y-64382014D01*
X113828402Y-64375878D01*
X113828079Y-64375442D01*
X113827670Y-64374373D01*
X113780051Y-64279135D01*
X113776088Y-64272840D01*
X113775330Y-64271008D01*
X113773638Y-64268946D01*
X113772219Y-64266692D01*
X113770722Y-64265393D01*
X113766002Y-64259643D01*
X113676178Y-64169819D01*
X114161778Y-64169819D01*
X114161778Y-65169819D01*
X114163219Y-65184451D01*
X114174418Y-65211487D01*
X114195110Y-65232179D01*
X114222146Y-65243378D01*
X114251410Y-65243378D01*
X114278446Y-65232179D01*
X114299138Y-65211487D01*
X114310337Y-65184451D01*
X114311778Y-65169819D01*
X114311778Y-64360295D01*
X114590350Y-64360295D01*
X114590350Y-64503152D01*
X114591791Y-64517784D01*
X114592822Y-64520273D01*
X114593013Y-64522961D01*
X114598268Y-64536693D01*
X114645887Y-64631931D01*
X114649851Y-64638230D01*
X114650609Y-64640058D01*
X114652297Y-64642114D01*
X114653719Y-64644374D01*
X114655217Y-64645673D01*
X114659936Y-64651423D01*
X114707555Y-64699042D01*
X114713304Y-64703760D01*
X114714604Y-64705259D01*
X114716863Y-64706680D01*
X114718920Y-64708369D01*
X114720747Y-64709126D01*
X114727047Y-64713091D01*
X114822285Y-64760710D01*
X114836016Y-64765965D01*
X114838705Y-64766156D01*
X114841194Y-64767187D01*
X114854711Y-64768518D01*
X114603908Y-65126809D01*
X114596697Y-65139623D01*
X114590368Y-65168194D01*
X114595453Y-65197011D01*
X114611180Y-65221690D01*
X114635154Y-65238472D01*
X114663725Y-65244801D01*
X114692542Y-65239716D01*
X114717221Y-65223989D01*
X114726792Y-65212829D01*
X115037732Y-64768628D01*
X115161778Y-64768628D01*
X115161778Y-65169819D01*
X115163219Y-65184451D01*
X115174418Y-65211487D01*
X115195110Y-65232179D01*
X115222146Y-65243378D01*
X115251410Y-65243378D01*
X115278446Y-65232179D01*
X115299138Y-65211487D01*
X115310337Y-65184451D01*
X115311778Y-65169819D01*
X115311778Y-64169819D01*
X115310337Y-64155187D01*
X115496553Y-64155187D01*
X115496553Y-64184451D01*
X115507752Y-64211487D01*
X115528444Y-64232179D01*
X115555480Y-64243378D01*
X115570112Y-64244819D01*
X115780826Y-64244819D01*
X115780826Y-65169819D01*
X115782267Y-65184451D01*
X115793466Y-65211487D01*
X115814158Y-65232179D01*
X115841194Y-65243378D01*
X115870458Y-65243378D01*
X115897494Y-65232179D01*
X115918186Y-65211487D01*
X115929385Y-65184451D01*
X115930826Y-65169819D01*
X115930826Y-64244819D01*
X116141540Y-64244819D01*
X116156172Y-64243378D01*
X116183208Y-64232179D01*
X116203900Y-64211487D01*
X116215099Y-64184451D01*
X116215099Y-64155187D01*
X116203900Y-64128151D01*
X116183208Y-64107459D01*
X116156172Y-64096260D01*
X116141540Y-64094819D01*
X115570112Y-64094819D01*
X115555480Y-64096260D01*
X115528444Y-64107459D01*
X115507752Y-64128151D01*
X115496553Y-64155187D01*
X115310337Y-64155187D01*
X115299138Y-64128151D01*
X115278446Y-64107459D01*
X115251410Y-64096260D01*
X115236778Y-64094819D01*
X114855826Y-64094819D01*
X114841194Y-64096260D01*
X114838705Y-64097290D01*
X114836016Y-64097482D01*
X114822285Y-64102737D01*
X114727047Y-64150356D01*
X114720747Y-64154320D01*
X114718920Y-64155078D01*
X114716863Y-64156766D01*
X114714604Y-64158188D01*
X114713304Y-64159686D01*
X114707555Y-64164405D01*
X114659936Y-64212024D01*
X114655217Y-64217773D01*
X114653719Y-64219073D01*
X114652297Y-64221332D01*
X114650609Y-64223389D01*
X114649851Y-64225216D01*
X114645887Y-64231516D01*
X114598268Y-64326754D01*
X114593013Y-64340486D01*
X114592822Y-64343173D01*
X114591791Y-64345663D01*
X114590350Y-64360295D01*
X114311778Y-64360295D01*
X114311778Y-64169819D01*
X114310337Y-64155187D01*
X114299138Y-64128151D01*
X114278446Y-64107459D01*
X114251410Y-64096260D01*
X114222146Y-64096260D01*
X114195110Y-64107459D01*
X114174418Y-64128151D01*
X114163219Y-64155187D01*
X114161778Y-64169819D01*
X113676178Y-64169819D01*
X113670764Y-64164405D01*
X113659399Y-64155078D01*
X113656908Y-64154046D01*
X113654873Y-64152281D01*
X113641448Y-64146287D01*
X113498591Y-64098668D01*
X113491337Y-64097018D01*
X113489506Y-64096260D01*
X113486851Y-64095998D01*
X113484254Y-64095408D01*
X113482279Y-64095548D01*
X113474874Y-64094819D01*
X113332017Y-64094819D01*
X113317385Y-64096260D01*
X113314896Y-64097290D01*
X113312207Y-64097482D01*
X113298476Y-64102737D01*
X113203238Y-64150356D01*
X113190795Y-64158188D01*
X113171622Y-64180296D01*
X113162368Y-64208057D01*
X113164442Y-64237247D01*
X113177529Y-64263422D01*
X113199637Y-64282595D01*
X113227398Y-64291849D01*
X113256588Y-64289775D01*
X113270320Y-64284520D01*
X113349722Y-64244819D01*
X113462704Y-64244819D01*
X113577217Y-64282990D01*
X113651330Y-64357103D01*
X113689823Y-64434090D01*
X113733207Y-64607624D01*
X113733207Y-64732013D01*
X113689823Y-64905547D01*
X113651329Y-64982534D01*
X113577217Y-65056647D01*
X113462704Y-65094819D01*
X113391806Y-65094819D01*
X113277293Y-65056648D01*
X113264160Y-65043514D01*
X113264160Y-64816247D01*
X113379636Y-64816247D01*
X113394268Y-64814806D01*
X113421304Y-64803607D01*
X113441996Y-64782915D01*
X113453195Y-64755879D01*
X113453195Y-64726615D01*
X113441996Y-64699579D01*
X113421304Y-64678887D01*
X113394268Y-64667688D01*
X113379636Y-64666247D01*
X113189160Y-64666247D01*
X113174528Y-64667688D01*
X113147492Y-64678887D01*
X113126800Y-64699579D01*
X113115601Y-64726615D01*
X113114160Y-64741247D01*
X113003049Y-64741247D01*
X113003049Y-63983708D01*
X116326210Y-63983708D01*
X116326210Y-65355930D01*
G37*
G36*
X114637969Y-66998628D02*
G01*
X114349722Y-66998628D01*
X114281206Y-66964370D01*
X114250799Y-66933963D01*
X114216541Y-66865447D01*
X114216541Y-66758000D01*
X114250799Y-66689484D01*
X114281206Y-66659077D01*
X114349722Y-66624819D01*
X114637969Y-66624819D01*
X114637969Y-66998628D01*
G37*
G36*
X115946699Y-67735930D02*
G01*
X113004490Y-67735930D01*
X113004490Y-67535187D01*
X113115601Y-67535187D01*
X113115601Y-67564451D01*
X113126800Y-67591487D01*
X113147492Y-67612179D01*
X113174528Y-67623378D01*
X113189160Y-67624819D01*
X113760588Y-67624819D01*
X113775220Y-67623378D01*
X113802256Y-67612179D01*
X113822948Y-67591487D01*
X113834147Y-67564451D01*
X113834147Y-67535187D01*
X113822948Y-67508151D01*
X113802256Y-67487459D01*
X113775220Y-67476260D01*
X113760588Y-67474819D01*
X113549874Y-67474819D01*
X113549874Y-66778504D01*
X113612317Y-66840947D01*
X113618067Y-66845667D01*
X113619366Y-66847164D01*
X113621620Y-66848583D01*
X113623682Y-66850275D01*
X113625514Y-66851033D01*
X113631809Y-66854996D01*
X113727047Y-66902615D01*
X113740778Y-66907870D01*
X113769968Y-66909944D01*
X113797730Y-66900690D01*
X113819837Y-66881517D01*
X113832925Y-66855342D01*
X113834999Y-66826152D01*
X113825745Y-66798391D01*
X113806572Y-66776283D01*
X113794129Y-66768451D01*
X113737817Y-66740295D01*
X114066541Y-66740295D01*
X114066541Y-66883152D01*
X114067982Y-66897784D01*
X114069013Y-66900273D01*
X114069204Y-66902961D01*
X114074459Y-66916693D01*
X114122078Y-67011931D01*
X114126042Y-67018230D01*
X114126800Y-67020058D01*
X114128488Y-67022114D01*
X114129910Y-67024374D01*
X114131408Y-67025673D01*
X114136127Y-67031423D01*
X114183746Y-67079042D01*
X114189495Y-67083760D01*
X114190795Y-67085259D01*
X114193054Y-67086680D01*
X114195111Y-67088369D01*
X114196938Y-67089126D01*
X114203238Y-67093091D01*
X114298476Y-67140710D01*
X114312207Y-67145965D01*
X114314896Y-67146156D01*
X114317385Y-67147187D01*
X114332017Y-67148628D01*
X114637969Y-67148628D01*
X114637969Y-67549819D01*
X114639410Y-67564451D01*
X114650609Y-67591487D01*
X114671301Y-67612179D01*
X114698337Y-67623378D01*
X114727601Y-67623378D01*
X114754637Y-67612179D01*
X114775329Y-67591487D01*
X114786528Y-67564451D01*
X114787969Y-67549819D01*
X114787969Y-67121247D01*
X115066541Y-67121247D01*
X115066541Y-67454580D01*
X115067982Y-67469212D01*
X115071899Y-67478668D01*
X115079180Y-67496247D01*
X115088507Y-67507612D01*
X115136126Y-67555232D01*
X115147492Y-67564560D01*
X115149980Y-67565590D01*
X115152017Y-67567357D01*
X115165443Y-67573351D01*
X115308299Y-67620970D01*
X115315554Y-67622619D01*
X115317385Y-67623378D01*
X115320038Y-67623639D01*
X115322636Y-67624230D01*
X115324610Y-67624089D01*
X115332017Y-67624819D01*
X115427255Y-67624819D01*
X115434660Y-67624089D01*
X115436635Y-67624230D01*
X115439232Y-67623639D01*
X115441887Y-67623378D01*
X115443718Y-67622619D01*
X115450972Y-67620970D01*
X115593829Y-67573351D01*
X115607254Y-67567357D01*
X115609289Y-67565591D01*
X115611780Y-67564560D01*
X115623145Y-67555233D01*
X115718384Y-67459993D01*
X115723101Y-67454244D01*
X115724600Y-67452945D01*
X115726021Y-67450686D01*
X115727711Y-67448628D01*
X115728468Y-67446798D01*
X115732432Y-67440502D01*
X115780051Y-67345264D01*
X115780460Y-67344194D01*
X115780783Y-67343759D01*
X115782975Y-67337622D01*
X115785306Y-67331533D01*
X115785344Y-67330992D01*
X115785730Y-67329913D01*
X115833349Y-67139437D01*
X115833724Y-67136900D01*
X115834147Y-67135879D01*
X115834689Y-67130366D01*
X115835499Y-67124893D01*
X115835336Y-67123800D01*
X115835588Y-67121247D01*
X115835588Y-66978390D01*
X115835336Y-66975836D01*
X115835499Y-66974744D01*
X115834689Y-66969270D01*
X115834147Y-66963758D01*
X115833724Y-66962736D01*
X115833349Y-66960200D01*
X115785730Y-66769724D01*
X115785344Y-66768644D01*
X115785306Y-66768104D01*
X115782969Y-66761997D01*
X115780783Y-66755878D01*
X115780460Y-66755442D01*
X115780051Y-66754373D01*
X115732432Y-66659135D01*
X115728469Y-66652840D01*
X115727711Y-66651008D01*
X115726019Y-66648946D01*
X115724600Y-66646692D01*
X115723103Y-66645393D01*
X115718383Y-66639643D01*
X115623145Y-66544405D01*
X115611780Y-66535078D01*
X115609289Y-66534046D01*
X115607254Y-66532281D01*
X115593829Y-66526287D01*
X115450972Y-66478668D01*
X115443718Y-66477018D01*
X115441887Y-66476260D01*
X115439232Y-66475998D01*
X115436635Y-66475408D01*
X115434660Y-66475548D01*
X115427255Y-66474819D01*
X115284398Y-66474819D01*
X115269766Y-66476260D01*
X115267277Y-66477290D01*
X115264588Y-66477482D01*
X115250857Y-66482737D01*
X115155619Y-66530356D01*
X115143176Y-66538188D01*
X115124003Y-66560296D01*
X115114749Y-66588057D01*
X115116823Y-66617247D01*
X115129910Y-66643422D01*
X115152018Y-66662595D01*
X115179779Y-66671849D01*
X115208969Y-66669775D01*
X115222701Y-66664520D01*
X115302103Y-66624819D01*
X115415085Y-66624819D01*
X115529598Y-66662990D01*
X115603711Y-66737103D01*
X115642204Y-66814090D01*
X115685588Y-66987624D01*
X115685588Y-67112013D01*
X115642204Y-67285547D01*
X115603710Y-67362534D01*
X115529598Y-67436647D01*
X115415085Y-67474819D01*
X115344187Y-67474819D01*
X115229674Y-67436648D01*
X115216541Y-67423514D01*
X115216541Y-67196247D01*
X115332017Y-67196247D01*
X115346649Y-67194806D01*
X115373685Y-67183607D01*
X115394377Y-67162915D01*
X115405576Y-67135879D01*
X115405576Y-67106615D01*
X115394377Y-67079579D01*
X115373685Y-67058887D01*
X115346649Y-67047688D01*
X115332017Y-67046247D01*
X115141541Y-67046247D01*
X115126909Y-67047688D01*
X115099873Y-67058887D01*
X115079181Y-67079579D01*
X115067982Y-67106615D01*
X115066541Y-67121247D01*
X114787969Y-67121247D01*
X114787969Y-66549819D01*
X114786528Y-66535187D01*
X114775329Y-66508151D01*
X114754637Y-66487459D01*
X114727601Y-66476260D01*
X114712969Y-66474819D01*
X114332017Y-66474819D01*
X114317385Y-66476260D01*
X114314896Y-66477290D01*
X114312207Y-66477482D01*
X114298476Y-66482737D01*
X114203238Y-66530356D01*
X114196938Y-66534320D01*
X114195111Y-66535078D01*
X114193054Y-66536766D01*
X114190795Y-66538188D01*
X114189495Y-66539686D01*
X114183746Y-66544405D01*
X114136127Y-66592024D01*
X114131408Y-66597773D01*
X114129910Y-66599073D01*
X114128488Y-66601332D01*
X114126800Y-66603389D01*
X114126042Y-66605216D01*
X114122078Y-66611516D01*
X114074459Y-66706754D01*
X114069204Y-66720486D01*
X114069013Y-66723173D01*
X114067982Y-66725663D01*
X114066541Y-66740295D01*
X113737817Y-66740295D01*
X113709777Y-66726275D01*
X113628396Y-66644894D01*
X113537278Y-66508216D01*
X113537243Y-66508173D01*
X113537234Y-66508151D01*
X113537182Y-66508099D01*
X113527962Y-66496841D01*
X113521792Y-66492709D01*
X113516542Y-66487459D01*
X113509752Y-66484646D01*
X113503647Y-66480558D01*
X113496366Y-66479101D01*
X113489506Y-66476260D01*
X113482158Y-66476260D01*
X113474953Y-66474819D01*
X113467669Y-66476260D01*
X113460242Y-66476260D01*
X113453453Y-66479072D01*
X113446245Y-66480498D01*
X113440066Y-66484617D01*
X113433206Y-66487459D01*
X113428010Y-66492654D01*
X113421896Y-66496731D01*
X113417764Y-66502900D01*
X113412514Y-66508151D01*
X113409701Y-66514940D01*
X113405613Y-66521046D01*
X113404156Y-66528326D01*
X113401315Y-66535187D01*
X113399889Y-66549663D01*
X113399874Y-66549740D01*
X113399879Y-66549766D01*
X113399874Y-66549819D01*
X113399874Y-67474819D01*
X113189160Y-67474819D01*
X113174528Y-67476260D01*
X113147492Y-67487459D01*
X113126800Y-67508151D01*
X113115601Y-67535187D01*
X113004490Y-67535187D01*
X113004490Y-66363708D01*
X115946699Y-66363708D01*
X115946699Y-67735930D01*
G37*
G36*
X114637969Y-69538628D02*
G01*
X114349722Y-69538628D01*
X114281206Y-69504370D01*
X114250799Y-69473963D01*
X114216541Y-69405447D01*
X114216541Y-69298000D01*
X114250799Y-69229484D01*
X114281206Y-69199077D01*
X114349722Y-69164819D01*
X114637969Y-69164819D01*
X114637969Y-69538628D01*
G37*
G36*
X115946699Y-70275930D02*
G01*
X113003049Y-70275930D01*
X113003049Y-69280295D01*
X113114160Y-69280295D01*
X113114160Y-69375533D01*
X113114889Y-69382938D01*
X113114749Y-69384913D01*
X113115339Y-69387510D01*
X113115601Y-69390165D01*
X113116359Y-69391996D01*
X113118009Y-69399250D01*
X113165628Y-69542107D01*
X113171622Y-69555532D01*
X113173387Y-69557567D01*
X113174419Y-69560058D01*
X113183746Y-69571423D01*
X113627141Y-70014819D01*
X113189160Y-70014819D01*
X113174528Y-70016260D01*
X113147492Y-70027459D01*
X113126800Y-70048151D01*
X113115601Y-70075187D01*
X113115601Y-70104451D01*
X113126800Y-70131487D01*
X113147492Y-70152179D01*
X113174528Y-70163378D01*
X113189160Y-70164819D01*
X113808207Y-70164819D01*
X113822839Y-70163378D01*
X113830757Y-70160098D01*
X113849875Y-70152180D01*
X113870567Y-70131487D01*
X113881766Y-70104451D01*
X113881766Y-70075188D01*
X113878846Y-70068139D01*
X113874163Y-70056832D01*
X113870568Y-70048151D01*
X113861240Y-70036786D01*
X113302331Y-69477876D01*
X113264160Y-69363362D01*
X113264160Y-69298000D01*
X113273013Y-69280295D01*
X114066541Y-69280295D01*
X114066541Y-69423152D01*
X114067982Y-69437784D01*
X114069013Y-69440273D01*
X114069204Y-69442961D01*
X114074459Y-69456693D01*
X114122078Y-69551931D01*
X114126042Y-69558230D01*
X114126800Y-69560058D01*
X114128488Y-69562114D01*
X114129910Y-69564374D01*
X114131408Y-69565673D01*
X114136127Y-69571423D01*
X114183746Y-69619042D01*
X114189495Y-69623760D01*
X114190795Y-69625259D01*
X114193054Y-69626680D01*
X114195111Y-69628369D01*
X114196938Y-69629126D01*
X114203238Y-69633091D01*
X114298476Y-69680710D01*
X114312207Y-69685965D01*
X114314896Y-69686156D01*
X114317385Y-69687187D01*
X114332017Y-69688628D01*
X114637969Y-69688628D01*
X114637969Y-70089819D01*
X114639410Y-70104451D01*
X114650609Y-70131487D01*
X114671301Y-70152179D01*
X114698337Y-70163378D01*
X114727601Y-70163378D01*
X114754637Y-70152179D01*
X114775329Y-70131487D01*
X114786528Y-70104451D01*
X114787969Y-70089819D01*
X114787969Y-69661247D01*
X115066541Y-69661247D01*
X115066541Y-69994580D01*
X115067982Y-70009212D01*
X115071899Y-70018668D01*
X115079180Y-70036247D01*
X115088507Y-70047612D01*
X115136126Y-70095232D01*
X115147492Y-70104560D01*
X115149980Y-70105590D01*
X115152017Y-70107357D01*
X115165443Y-70113351D01*
X115308299Y-70160970D01*
X115315554Y-70162619D01*
X115317385Y-70163378D01*
X115320038Y-70163639D01*
X115322636Y-70164230D01*
X115324610Y-70164089D01*
X115332017Y-70164819D01*
X115427255Y-70164819D01*
X115434660Y-70164089D01*
X115436635Y-70164230D01*
X115439232Y-70163639D01*
X115441887Y-70163378D01*
X115443718Y-70162619D01*
X115450972Y-70160970D01*
X115593829Y-70113351D01*
X115607254Y-70107357D01*
X115609289Y-70105591D01*
X115611780Y-70104560D01*
X115623145Y-70095233D01*
X115718384Y-69999993D01*
X115723101Y-69994244D01*
X115724600Y-69992945D01*
X115726021Y-69990686D01*
X115727711Y-69988628D01*
X115728468Y-69986798D01*
X115732432Y-69980502D01*
X115780051Y-69885264D01*
X115780460Y-69884194D01*
X115780783Y-69883759D01*
X115782975Y-69877622D01*
X115785306Y-69871533D01*
X115785344Y-69870992D01*
X115785730Y-69869913D01*
X115833349Y-69679437D01*
X115833724Y-69676900D01*
X115834147Y-69675879D01*
X115834689Y-69670366D01*
X115835499Y-69664893D01*
X115835336Y-69663800D01*
X115835588Y-69661247D01*
X115835588Y-69518390D01*
X115835336Y-69515836D01*
X115835499Y-69514744D01*
X115834689Y-69509270D01*
X115834147Y-69503758D01*
X115833724Y-69502736D01*
X115833349Y-69500200D01*
X115785730Y-69309724D01*
X115785344Y-69308644D01*
X115785306Y-69308104D01*
X115782975Y-69302014D01*
X115780783Y-69295878D01*
X115780460Y-69295442D01*
X115780051Y-69294373D01*
X115732432Y-69199135D01*
X115728469Y-69192840D01*
X115727711Y-69191008D01*
X115726019Y-69188946D01*
X115724600Y-69186692D01*
X115723103Y-69185393D01*
X115718383Y-69179643D01*
X115623145Y-69084405D01*
X115611780Y-69075078D01*
X115609289Y-69074046D01*
X115607254Y-69072281D01*
X115593829Y-69066287D01*
X115450972Y-69018668D01*
X115443718Y-69017018D01*
X115441887Y-69016260D01*
X115439232Y-69015998D01*
X115436635Y-69015408D01*
X115434660Y-69015548D01*
X115427255Y-69014819D01*
X115284398Y-69014819D01*
X115269766Y-69016260D01*
X115267277Y-69017290D01*
X115264588Y-69017482D01*
X115250857Y-69022737D01*
X115155619Y-69070356D01*
X115143176Y-69078188D01*
X115124003Y-69100296D01*
X115114749Y-69128057D01*
X115116823Y-69157247D01*
X115129910Y-69183422D01*
X115152018Y-69202595D01*
X115179779Y-69211849D01*
X115208969Y-69209775D01*
X115222701Y-69204520D01*
X115302103Y-69164819D01*
X115415085Y-69164819D01*
X115529598Y-69202990D01*
X115603711Y-69277103D01*
X115642204Y-69354090D01*
X115685588Y-69527624D01*
X115685588Y-69652013D01*
X115642204Y-69825547D01*
X115603710Y-69902534D01*
X115529598Y-69976647D01*
X115415085Y-70014819D01*
X115344187Y-70014819D01*
X115229674Y-69976648D01*
X115216541Y-69963514D01*
X115216541Y-69736247D01*
X115332017Y-69736247D01*
X115346649Y-69734806D01*
X115373685Y-69723607D01*
X115394377Y-69702915D01*
X115405576Y-69675879D01*
X115405576Y-69646615D01*
X115394377Y-69619579D01*
X115373685Y-69598887D01*
X115346649Y-69587688D01*
X115332017Y-69586247D01*
X115141541Y-69586247D01*
X115126909Y-69587688D01*
X115099873Y-69598887D01*
X115079181Y-69619579D01*
X115067982Y-69646615D01*
X115066541Y-69661247D01*
X114787969Y-69661247D01*
X114787969Y-69089819D01*
X114786528Y-69075187D01*
X114775329Y-69048151D01*
X114754637Y-69027459D01*
X114727601Y-69016260D01*
X114712969Y-69014819D01*
X114332017Y-69014819D01*
X114317385Y-69016260D01*
X114314896Y-69017290D01*
X114312207Y-69017482D01*
X114298476Y-69022737D01*
X114203238Y-69070356D01*
X114196938Y-69074320D01*
X114195111Y-69075078D01*
X114193054Y-69076766D01*
X114190795Y-69078188D01*
X114189495Y-69079686D01*
X114183746Y-69084405D01*
X114136127Y-69132024D01*
X114131408Y-69137773D01*
X114129910Y-69139073D01*
X114128488Y-69141332D01*
X114126800Y-69143389D01*
X114126042Y-69145216D01*
X114122078Y-69151516D01*
X114074459Y-69246754D01*
X114069204Y-69260486D01*
X114069013Y-69263173D01*
X114067982Y-69265663D01*
X114066541Y-69280295D01*
X113273013Y-69280295D01*
X113298418Y-69229484D01*
X113328825Y-69199077D01*
X113397341Y-69164819D01*
X113600026Y-69164819D01*
X113668542Y-69199077D01*
X113707555Y-69238090D01*
X113718920Y-69247417D01*
X113745956Y-69258616D01*
X113775219Y-69258616D01*
X113802255Y-69247417D01*
X113822948Y-69226724D01*
X113834147Y-69199688D01*
X113834147Y-69170425D01*
X113822948Y-69143389D01*
X113813621Y-69132024D01*
X113766002Y-69084405D01*
X113760252Y-69079686D01*
X113758953Y-69078188D01*
X113756693Y-69076766D01*
X113754637Y-69075078D01*
X113752809Y-69074320D01*
X113746510Y-69070356D01*
X113651272Y-69022737D01*
X113637540Y-69017482D01*
X113634852Y-69017291D01*
X113632363Y-69016260D01*
X113617731Y-69014819D01*
X113379636Y-69014819D01*
X113365004Y-69016260D01*
X113362515Y-69017290D01*
X113359826Y-69017482D01*
X113346095Y-69022737D01*
X113250857Y-69070356D01*
X113244557Y-69074320D01*
X113242730Y-69075078D01*
X113240673Y-69076766D01*
X113238414Y-69078188D01*
X113237114Y-69079686D01*
X113231365Y-69084405D01*
X113183746Y-69132024D01*
X113179027Y-69137773D01*
X113177529Y-69139073D01*
X113176107Y-69141332D01*
X113174419Y-69143389D01*
X113173661Y-69145216D01*
X113169697Y-69151516D01*
X113122078Y-69246754D01*
X113116823Y-69260486D01*
X113116632Y-69263173D01*
X113115601Y-69265663D01*
X113114160Y-69280295D01*
X113003049Y-69280295D01*
X113003049Y-68903708D01*
X115946699Y-68903708D01*
X115946699Y-70275930D01*
G37*
G36*
X114637969Y-72078628D02*
G01*
X114349722Y-72078628D01*
X114281206Y-72044370D01*
X114250799Y-72013963D01*
X114216541Y-71945447D01*
X114216541Y-71838000D01*
X114250799Y-71769484D01*
X114281206Y-71739077D01*
X114349722Y-71704819D01*
X114637969Y-71704819D01*
X114637969Y-72078628D01*
G37*
G36*
X115946699Y-72815930D02*
G01*
X113003049Y-72815930D01*
X113003049Y-72201247D01*
X113114160Y-72201247D01*
X113114160Y-72439342D01*
X113115601Y-72453974D01*
X113116632Y-72456463D01*
X113116823Y-72459151D01*
X113122078Y-72472883D01*
X113169697Y-72568121D01*
X113173660Y-72574417D01*
X113174418Y-72576247D01*
X113176107Y-72578305D01*
X113177529Y-72580564D01*
X113179027Y-72581863D01*
X113183745Y-72587612D01*
X113231364Y-72635232D01*
X113237113Y-72639950D01*
X113238414Y-72641450D01*
X113240673Y-72642872D01*
X113242730Y-72644560D01*
X113244557Y-72645317D01*
X113250857Y-72649282D01*
X113346095Y-72696901D01*
X113359826Y-72702156D01*
X113362515Y-72702347D01*
X113365004Y-72703378D01*
X113379636Y-72704819D01*
X113665350Y-72704819D01*
X113679982Y-72703378D01*
X113682471Y-72702346D01*
X113685159Y-72702156D01*
X113698891Y-72696901D01*
X113794129Y-72649282D01*
X113800428Y-72645317D01*
X113802256Y-72644560D01*
X113804312Y-72642872D01*
X113806572Y-72641450D01*
X113807872Y-72639950D01*
X113813622Y-72635232D01*
X113861240Y-72587613D01*
X113870568Y-72576247D01*
X113881766Y-72549211D01*
X113881766Y-72519948D01*
X113870567Y-72492912D01*
X113849874Y-72472219D01*
X113822838Y-72461021D01*
X113793575Y-72461021D01*
X113766539Y-72472220D01*
X113755173Y-72481548D01*
X113716160Y-72520561D01*
X113647645Y-72554819D01*
X113397341Y-72554819D01*
X113328825Y-72520561D01*
X113298418Y-72490153D01*
X113264160Y-72421637D01*
X113264160Y-72218952D01*
X113298418Y-72150436D01*
X113328825Y-72120029D01*
X113397341Y-72085771D01*
X113522493Y-72085771D01*
X113530231Y-72085008D01*
X113532199Y-72085140D01*
X113533554Y-72084681D01*
X113537125Y-72084330D01*
X113548382Y-72079666D01*
X113559920Y-72075765D01*
X113561824Y-72074099D01*
X113564161Y-72073131D01*
X113572771Y-72064520D01*
X113581944Y-72056495D01*
X113583066Y-72054225D01*
X113584853Y-72052439D01*
X113589513Y-72041188D01*
X113594916Y-72030263D01*
X113595084Y-72027739D01*
X113596052Y-72025403D01*
X113596052Y-72013218D01*
X113596862Y-72001065D01*
X113596052Y-71998669D01*
X113596052Y-71996139D01*
X113591388Y-71984881D01*
X113587487Y-71973344D01*
X113585401Y-71970426D01*
X113584853Y-71969103D01*
X113583457Y-71967707D01*
X113578936Y-71961383D01*
X113455484Y-71820295D01*
X114066541Y-71820295D01*
X114066541Y-71963152D01*
X114067982Y-71977784D01*
X114069013Y-71980273D01*
X114069204Y-71982961D01*
X114074459Y-71996693D01*
X114122078Y-72091931D01*
X114126042Y-72098230D01*
X114126800Y-72100058D01*
X114128488Y-72102114D01*
X114129910Y-72104374D01*
X114131408Y-72105673D01*
X114136127Y-72111423D01*
X114183746Y-72159042D01*
X114189495Y-72163760D01*
X114190795Y-72165259D01*
X114193054Y-72166680D01*
X114195111Y-72168369D01*
X114196938Y-72169126D01*
X114203238Y-72173091D01*
X114298476Y-72220710D01*
X114312207Y-72225965D01*
X114314896Y-72226156D01*
X114317385Y-72227187D01*
X114332017Y-72228628D01*
X114637969Y-72228628D01*
X114637969Y-72629819D01*
X114639410Y-72644451D01*
X114650609Y-72671487D01*
X114671301Y-72692179D01*
X114698337Y-72703378D01*
X114727601Y-72703378D01*
X114754637Y-72692179D01*
X114775329Y-72671487D01*
X114786528Y-72644451D01*
X114787969Y-72629819D01*
X114787969Y-72201247D01*
X115066541Y-72201247D01*
X115066541Y-72534580D01*
X115067982Y-72549212D01*
X115071899Y-72558668D01*
X115079180Y-72576247D01*
X115088507Y-72587612D01*
X115136126Y-72635232D01*
X115147492Y-72644560D01*
X115149980Y-72645590D01*
X115152017Y-72647357D01*
X115165443Y-72653351D01*
X115308299Y-72700970D01*
X115315554Y-72702619D01*
X115317385Y-72703378D01*
X115320038Y-72703639D01*
X115322636Y-72704230D01*
X115324610Y-72704089D01*
X115332017Y-72704819D01*
X115427255Y-72704819D01*
X115434660Y-72704089D01*
X115436635Y-72704230D01*
X115439232Y-72703639D01*
X115441887Y-72703378D01*
X115443718Y-72702619D01*
X115450972Y-72700970D01*
X115593829Y-72653351D01*
X115607254Y-72647357D01*
X115609289Y-72645591D01*
X115611780Y-72644560D01*
X115623145Y-72635233D01*
X115718384Y-72539993D01*
X115723101Y-72534244D01*
X115724600Y-72532945D01*
X115726021Y-72530686D01*
X115727711Y-72528628D01*
X115728468Y-72526798D01*
X115732432Y-72520502D01*
X115780051Y-72425264D01*
X115780460Y-72424194D01*
X115780783Y-72423759D01*
X115782975Y-72417622D01*
X115785306Y-72411533D01*
X115785344Y-72410992D01*
X115785730Y-72409913D01*
X115833349Y-72219437D01*
X115833724Y-72216900D01*
X115834147Y-72215879D01*
X115834689Y-72210366D01*
X115835499Y-72204893D01*
X115835336Y-72203800D01*
X115835588Y-72201247D01*
X115835588Y-72058390D01*
X115835336Y-72055836D01*
X115835499Y-72054744D01*
X115834689Y-72049270D01*
X115834147Y-72043758D01*
X115833724Y-72042736D01*
X115833349Y-72040200D01*
X115785730Y-71849724D01*
X115785344Y-71848644D01*
X115785306Y-71848104D01*
X115782975Y-71842014D01*
X115780783Y-71835878D01*
X115780460Y-71835442D01*
X115780051Y-71834373D01*
X115732432Y-71739135D01*
X115728469Y-71732840D01*
X115727711Y-71731008D01*
X115726019Y-71728946D01*
X115724600Y-71726692D01*
X115723103Y-71725393D01*
X115718383Y-71719643D01*
X115623145Y-71624405D01*
X115611780Y-71615078D01*
X115609289Y-71614046D01*
X115607254Y-71612281D01*
X115593829Y-71606287D01*
X115450972Y-71558668D01*
X115443718Y-71557018D01*
X115441887Y-71556260D01*
X115439232Y-71555998D01*
X115436635Y-71555408D01*
X115434660Y-71555548D01*
X115427255Y-71554819D01*
X115284398Y-71554819D01*
X115269766Y-71556260D01*
X115267277Y-71557290D01*
X115264588Y-71557482D01*
X115250857Y-71562737D01*
X115155619Y-71610356D01*
X115143176Y-71618188D01*
X115124003Y-71640296D01*
X115114749Y-71668057D01*
X115116823Y-71697247D01*
X115129910Y-71723422D01*
X115152018Y-71742595D01*
X115179779Y-71751849D01*
X115208969Y-71749775D01*
X115222701Y-71744520D01*
X115302103Y-71704819D01*
X115415085Y-71704819D01*
X115529598Y-71742990D01*
X115603711Y-71817103D01*
X115642204Y-71894090D01*
X115685588Y-72067624D01*
X115685588Y-72192013D01*
X115642204Y-72365547D01*
X115603710Y-72442534D01*
X115529598Y-72516647D01*
X115415085Y-72554819D01*
X115344187Y-72554819D01*
X115229674Y-72516648D01*
X115216541Y-72503514D01*
X115216541Y-72276247D01*
X115332017Y-72276247D01*
X115346649Y-72274806D01*
X115373685Y-72263607D01*
X115394377Y-72242915D01*
X115405576Y-72215879D01*
X115405576Y-72186615D01*
X115394377Y-72159579D01*
X115373685Y-72138887D01*
X115346649Y-72127688D01*
X115332017Y-72126247D01*
X115141541Y-72126247D01*
X115126909Y-72127688D01*
X115099873Y-72138887D01*
X115079181Y-72159579D01*
X115067982Y-72186615D01*
X115066541Y-72201247D01*
X114787969Y-72201247D01*
X114787969Y-71629819D01*
X114786528Y-71615187D01*
X114775329Y-71588151D01*
X114754637Y-71567459D01*
X114727601Y-71556260D01*
X114712969Y-71554819D01*
X114332017Y-71554819D01*
X114317385Y-71556260D01*
X114314896Y-71557290D01*
X114312207Y-71557482D01*
X114298476Y-71562737D01*
X114203238Y-71610356D01*
X114196938Y-71614320D01*
X114195111Y-71615078D01*
X114193054Y-71616766D01*
X114190795Y-71618188D01*
X114189495Y-71619686D01*
X114183746Y-71624405D01*
X114136127Y-71672024D01*
X114131408Y-71677773D01*
X114129910Y-71679073D01*
X114128488Y-71681332D01*
X114126800Y-71683389D01*
X114126042Y-71685216D01*
X114122078Y-71691516D01*
X114074459Y-71786754D01*
X114069204Y-71800486D01*
X114069013Y-71803173D01*
X114067982Y-71805663D01*
X114066541Y-71820295D01*
X113455484Y-71820295D01*
X113354442Y-71704819D01*
X113808207Y-71704819D01*
X113822839Y-71703378D01*
X113849875Y-71692179D01*
X113870567Y-71671487D01*
X113881766Y-71644451D01*
X113881766Y-71615187D01*
X113870567Y-71588151D01*
X113849875Y-71567459D01*
X113822839Y-71556260D01*
X113808207Y-71554819D01*
X113189160Y-71554819D01*
X113181421Y-71555581D01*
X113179454Y-71555450D01*
X113178098Y-71555908D01*
X113174528Y-71556260D01*
X113163270Y-71560923D01*
X113151733Y-71564825D01*
X113149828Y-71566490D01*
X113147492Y-71567459D01*
X113138881Y-71576069D01*
X113129709Y-71584095D01*
X113128586Y-71586364D01*
X113126800Y-71588151D01*
X113122139Y-71599401D01*
X113116737Y-71610327D01*
X113116568Y-71612850D01*
X113115601Y-71615187D01*
X113115601Y-71627371D01*
X113114791Y-71639525D01*
X113115601Y-71641920D01*
X113115601Y-71644451D01*
X113120264Y-71655708D01*
X113124166Y-71667246D01*
X113126251Y-71670163D01*
X113126800Y-71671487D01*
X113128195Y-71672882D01*
X113132717Y-71679207D01*
X113359612Y-71938515D01*
X113346095Y-71943689D01*
X113250857Y-71991308D01*
X113244557Y-71995272D01*
X113242730Y-71996030D01*
X113240673Y-71997718D01*
X113238414Y-71999140D01*
X113237114Y-72000638D01*
X113231365Y-72005357D01*
X113183746Y-72052976D01*
X113179027Y-72058725D01*
X113177529Y-72060025D01*
X113176107Y-72062284D01*
X113174419Y-72064341D01*
X113173661Y-72066168D01*
X113169697Y-72072468D01*
X113122078Y-72167706D01*
X113116823Y-72181438D01*
X113116632Y-72184125D01*
X113115601Y-72186615D01*
X113114160Y-72201247D01*
X113003049Y-72201247D01*
X113003049Y-71443708D01*
X115946699Y-71443708D01*
X115946699Y-72815930D01*
G37*
G36*
X114637969Y-74618628D02*
G01*
X114349722Y-74618628D01*
X114281206Y-74584370D01*
X114250799Y-74553963D01*
X114216541Y-74485447D01*
X114216541Y-74378000D01*
X114250799Y-74309484D01*
X114281206Y-74279077D01*
X114349722Y-74244819D01*
X114637969Y-74244819D01*
X114637969Y-74618628D01*
G37*
G36*
X115946699Y-75355930D02*
G01*
X112956871Y-75355930D01*
X112956871Y-74821853D01*
X113067982Y-74821853D01*
X113067982Y-74851117D01*
X113079181Y-74878153D01*
X113099873Y-74898845D01*
X113126909Y-74910044D01*
X113141541Y-74911485D01*
X113209398Y-74911485D01*
X113209398Y-75169819D01*
X113210839Y-75184451D01*
X113222038Y-75211487D01*
X113242730Y-75232179D01*
X113269766Y-75243378D01*
X113299030Y-75243378D01*
X113326066Y-75232179D01*
X113346758Y-75211487D01*
X113357957Y-75184451D01*
X113359398Y-75169819D01*
X113359398Y-74911485D01*
X113760588Y-74911485D01*
X113767993Y-74910755D01*
X113769968Y-74910896D01*
X113771393Y-74910420D01*
X113775220Y-74910044D01*
X113786329Y-74905442D01*
X113797730Y-74901642D01*
X113799765Y-74899876D01*
X113802256Y-74898845D01*
X113810758Y-74890342D01*
X113819838Y-74882468D01*
X113821042Y-74880058D01*
X113822948Y-74878153D01*
X113827550Y-74867041D01*
X113832924Y-74856294D01*
X113833114Y-74853608D01*
X113834147Y-74851117D01*
X113834147Y-74839089D01*
X113834999Y-74827104D01*
X113834147Y-74823357D01*
X113834147Y-74821853D01*
X113833388Y-74820022D01*
X113831739Y-74812767D01*
X113680915Y-74360295D01*
X114066541Y-74360295D01*
X114066541Y-74503152D01*
X114067982Y-74517784D01*
X114069013Y-74520273D01*
X114069204Y-74522961D01*
X114074459Y-74536693D01*
X114122078Y-74631931D01*
X114126042Y-74638230D01*
X114126800Y-74640058D01*
X114128488Y-74642114D01*
X114129910Y-74644374D01*
X114131408Y-74645673D01*
X114136127Y-74651423D01*
X114183746Y-74699042D01*
X114189495Y-74703760D01*
X114190795Y-74705259D01*
X114193054Y-74706680D01*
X114195111Y-74708369D01*
X114196938Y-74709126D01*
X114203238Y-74713091D01*
X114298476Y-74760710D01*
X114312207Y-74765965D01*
X114314896Y-74766156D01*
X114317385Y-74767187D01*
X114332017Y-74768628D01*
X114637969Y-74768628D01*
X114637969Y-75169819D01*
X114639410Y-75184451D01*
X114650609Y-75211487D01*
X114671301Y-75232179D01*
X114698337Y-75243378D01*
X114727601Y-75243378D01*
X114754637Y-75232179D01*
X114775329Y-75211487D01*
X114786528Y-75184451D01*
X114787969Y-75169819D01*
X114787969Y-74741247D01*
X115066541Y-74741247D01*
X115066541Y-75074580D01*
X115067982Y-75089212D01*
X115071899Y-75098668D01*
X115079180Y-75116247D01*
X115088507Y-75127612D01*
X115136126Y-75175232D01*
X115147492Y-75184560D01*
X115149980Y-75185590D01*
X115152017Y-75187357D01*
X115165443Y-75193351D01*
X115308299Y-75240970D01*
X115315554Y-75242619D01*
X115317385Y-75243378D01*
X115320038Y-75243639D01*
X115322636Y-75244230D01*
X115324610Y-75244089D01*
X115332017Y-75244819D01*
X115427255Y-75244819D01*
X115434660Y-75244089D01*
X115436635Y-75244230D01*
X115439232Y-75243639D01*
X115441887Y-75243378D01*
X115443718Y-75242619D01*
X115450972Y-75240970D01*
X115593829Y-75193351D01*
X115607254Y-75187357D01*
X115609289Y-75185591D01*
X115611780Y-75184560D01*
X115623145Y-75175233D01*
X115718384Y-75079993D01*
X115723101Y-75074244D01*
X115724600Y-75072945D01*
X115726021Y-75070686D01*
X115727711Y-75068628D01*
X115728468Y-75066798D01*
X115732432Y-75060502D01*
X115780051Y-74965264D01*
X115780460Y-74964194D01*
X115780783Y-74963759D01*
X115782975Y-74957622D01*
X115785306Y-74951533D01*
X115785344Y-74950992D01*
X115785730Y-74949913D01*
X115833349Y-74759437D01*
X115833724Y-74756900D01*
X115834147Y-74755879D01*
X115834689Y-74750366D01*
X115835499Y-74744893D01*
X115835336Y-74743800D01*
X115835588Y-74741247D01*
X115835588Y-74598390D01*
X115835336Y-74595836D01*
X115835499Y-74594744D01*
X115834689Y-74589270D01*
X115834147Y-74583758D01*
X115833724Y-74582736D01*
X115833349Y-74580200D01*
X115785730Y-74389724D01*
X115785344Y-74388644D01*
X115785306Y-74388104D01*
X115782975Y-74382014D01*
X115780783Y-74375878D01*
X115780460Y-74375442D01*
X115780051Y-74374373D01*
X115732432Y-74279135D01*
X115728469Y-74272840D01*
X115727711Y-74271008D01*
X115726019Y-74268946D01*
X115724600Y-74266692D01*
X115723103Y-74265393D01*
X115718383Y-74259643D01*
X115623145Y-74164405D01*
X115611780Y-74155078D01*
X115609289Y-74154046D01*
X115607254Y-74152281D01*
X115593829Y-74146287D01*
X115450972Y-74098668D01*
X115443718Y-74097018D01*
X115441887Y-74096260D01*
X115439232Y-74095998D01*
X115436635Y-74095408D01*
X115434660Y-74095548D01*
X115427255Y-74094819D01*
X115284398Y-74094819D01*
X115269766Y-74096260D01*
X115267277Y-74097290D01*
X115264588Y-74097482D01*
X115250857Y-74102737D01*
X115155619Y-74150356D01*
X115143176Y-74158188D01*
X115124003Y-74180296D01*
X115114749Y-74208057D01*
X115116823Y-74237247D01*
X115129910Y-74263422D01*
X115152018Y-74282595D01*
X115179779Y-74291849D01*
X115208969Y-74289775D01*
X115222701Y-74284520D01*
X115302103Y-74244819D01*
X115415085Y-74244819D01*
X115529598Y-74282990D01*
X115603711Y-74357103D01*
X115642204Y-74434090D01*
X115685588Y-74607624D01*
X115685588Y-74732013D01*
X115642204Y-74905547D01*
X115603710Y-74982534D01*
X115529598Y-75056647D01*
X115415085Y-75094819D01*
X115344187Y-75094819D01*
X115229674Y-75056648D01*
X115216541Y-75043514D01*
X115216541Y-74816247D01*
X115332017Y-74816247D01*
X115346649Y-74814806D01*
X115373685Y-74803607D01*
X115394377Y-74782915D01*
X115405576Y-74755879D01*
X115405576Y-74726615D01*
X115394377Y-74699579D01*
X115373685Y-74678887D01*
X115346649Y-74667688D01*
X115332017Y-74666247D01*
X115141541Y-74666247D01*
X115126909Y-74667688D01*
X115099873Y-74678887D01*
X115079181Y-74699579D01*
X115067982Y-74726615D01*
X115066541Y-74741247D01*
X114787969Y-74741247D01*
X114787969Y-74169819D01*
X114786528Y-74155187D01*
X114775329Y-74128151D01*
X114754637Y-74107459D01*
X114727601Y-74096260D01*
X114712969Y-74094819D01*
X114332017Y-74094819D01*
X114317385Y-74096260D01*
X114314896Y-74097290D01*
X114312207Y-74097482D01*
X114298476Y-74102737D01*
X114203238Y-74150356D01*
X114196938Y-74154320D01*
X114195111Y-74155078D01*
X114193054Y-74156766D01*
X114190795Y-74158188D01*
X114189495Y-74159686D01*
X114183746Y-74164405D01*
X114136127Y-74212024D01*
X114131408Y-74217773D01*
X114129910Y-74219073D01*
X114128488Y-74221332D01*
X114126800Y-74223389D01*
X114126042Y-74225216D01*
X114122078Y-74231516D01*
X114074459Y-74326754D01*
X114069204Y-74340486D01*
X114069013Y-74343173D01*
X114067982Y-74345663D01*
X114066541Y-74360295D01*
X113680915Y-74360295D01*
X113593644Y-74098483D01*
X113587650Y-74085057D01*
X113568476Y-74062950D01*
X113542303Y-74049864D01*
X113513113Y-74047789D01*
X113485350Y-74057043D01*
X113463243Y-74076217D01*
X113450157Y-74102390D01*
X113448082Y-74131580D01*
X113451342Y-74145917D01*
X113656531Y-74761485D01*
X113359398Y-74761485D01*
X113359398Y-74503152D01*
X113357957Y-74488520D01*
X113346758Y-74461484D01*
X113326066Y-74440792D01*
X113299030Y-74429593D01*
X113269766Y-74429593D01*
X113242730Y-74440792D01*
X113222038Y-74461484D01*
X113210839Y-74488520D01*
X113209398Y-74503152D01*
X113209398Y-74761485D01*
X113141541Y-74761485D01*
X113126909Y-74762926D01*
X113099873Y-74774125D01*
X113079181Y-74794817D01*
X113067982Y-74821853D01*
X112956871Y-74821853D01*
X112956871Y-73936678D01*
X115946699Y-73936678D01*
X115946699Y-75355930D01*
G37*
G36*
X114637969Y-77158628D02*
G01*
X114349722Y-77158628D01*
X114281206Y-77124370D01*
X114250799Y-77093963D01*
X114216541Y-77025447D01*
X114216541Y-76918000D01*
X114250799Y-76849484D01*
X114281206Y-76819077D01*
X114349722Y-76784819D01*
X114637969Y-76784819D01*
X114637969Y-77158628D01*
G37*
G36*
X115946699Y-77895930D02*
G01*
X113003049Y-77895930D01*
X113003049Y-77281247D01*
X113114160Y-77281247D01*
X113114160Y-77519342D01*
X113115601Y-77533974D01*
X113116632Y-77536463D01*
X113116823Y-77539151D01*
X113122078Y-77552883D01*
X113169697Y-77648121D01*
X113173660Y-77654417D01*
X113174418Y-77656247D01*
X113176107Y-77658305D01*
X113177529Y-77660564D01*
X113179027Y-77661863D01*
X113183745Y-77667612D01*
X113231364Y-77715232D01*
X113237113Y-77719950D01*
X113238414Y-77721450D01*
X113240673Y-77722872D01*
X113242730Y-77724560D01*
X113244557Y-77725317D01*
X113250857Y-77729282D01*
X113346095Y-77776901D01*
X113359826Y-77782156D01*
X113362515Y-77782347D01*
X113365004Y-77783378D01*
X113379636Y-77784819D01*
X113617731Y-77784819D01*
X113632363Y-77783378D01*
X113634852Y-77782346D01*
X113637540Y-77782156D01*
X113651272Y-77776901D01*
X113746510Y-77729282D01*
X113752809Y-77725317D01*
X113754637Y-77724560D01*
X113756693Y-77722872D01*
X113758953Y-77721450D01*
X113760253Y-77719950D01*
X113766003Y-77715232D01*
X113813621Y-77667613D01*
X113822949Y-77656247D01*
X113834147Y-77629211D01*
X113834147Y-77599948D01*
X113822948Y-77572912D01*
X113802255Y-77552219D01*
X113775219Y-77541021D01*
X113745956Y-77541021D01*
X113718920Y-77552220D01*
X113707554Y-77561548D01*
X113668541Y-77600561D01*
X113600026Y-77634819D01*
X113397341Y-77634819D01*
X113328825Y-77600561D01*
X113298418Y-77570153D01*
X113264160Y-77501637D01*
X113264160Y-77298952D01*
X113298418Y-77230436D01*
X113328825Y-77200029D01*
X113397341Y-77165771D01*
X113600026Y-77165771D01*
X113668542Y-77200029D01*
X113707555Y-77239042D01*
X113718920Y-77248369D01*
X113722408Y-77249814D01*
X113725332Y-77252206D01*
X113735829Y-77255373D01*
X113745956Y-77259568D01*
X113749732Y-77259568D01*
X113753348Y-77260659D01*
X113764258Y-77259568D01*
X113775219Y-77259568D01*
X113778707Y-77258122D01*
X113782467Y-77257747D01*
X113792130Y-77252562D01*
X113802255Y-77248369D01*
X113804925Y-77245698D01*
X113808254Y-77243913D01*
X113815199Y-77235424D01*
X113822948Y-77227676D01*
X113824392Y-77224189D01*
X113826785Y-77221265D01*
X113829953Y-77210764D01*
X113834147Y-77200640D01*
X113834147Y-77196864D01*
X113835238Y-77193249D01*
X113835216Y-77178546D01*
X113807391Y-76900295D01*
X114066541Y-76900295D01*
X114066541Y-77043152D01*
X114067982Y-77057784D01*
X114069013Y-77060273D01*
X114069204Y-77062961D01*
X114074459Y-77076693D01*
X114122078Y-77171931D01*
X114126042Y-77178230D01*
X114126800Y-77180058D01*
X114128488Y-77182114D01*
X114129910Y-77184374D01*
X114131408Y-77185673D01*
X114136127Y-77191423D01*
X114183746Y-77239042D01*
X114189495Y-77243760D01*
X114190795Y-77245259D01*
X114193054Y-77246680D01*
X114195111Y-77248369D01*
X114196938Y-77249126D01*
X114203238Y-77253091D01*
X114298476Y-77300710D01*
X114312207Y-77305965D01*
X114314896Y-77306156D01*
X114317385Y-77307187D01*
X114332017Y-77308628D01*
X114637969Y-77308628D01*
X114637969Y-77709819D01*
X114639410Y-77724451D01*
X114650609Y-77751487D01*
X114671301Y-77772179D01*
X114698337Y-77783378D01*
X114727601Y-77783378D01*
X114754637Y-77772179D01*
X114775329Y-77751487D01*
X114786528Y-77724451D01*
X114787969Y-77709819D01*
X114787969Y-77281247D01*
X115066541Y-77281247D01*
X115066541Y-77614580D01*
X115067982Y-77629212D01*
X115071899Y-77638668D01*
X115079180Y-77656247D01*
X115088507Y-77667612D01*
X115136126Y-77715232D01*
X115147492Y-77724560D01*
X115149980Y-77725590D01*
X115152017Y-77727357D01*
X115165443Y-77733351D01*
X115308299Y-77780970D01*
X115315554Y-77782619D01*
X115317385Y-77783378D01*
X115320038Y-77783639D01*
X115322636Y-77784230D01*
X115324610Y-77784089D01*
X115332017Y-77784819D01*
X115427255Y-77784819D01*
X115434660Y-77784089D01*
X115436635Y-77784230D01*
X115439232Y-77783639D01*
X115441887Y-77783378D01*
X115443718Y-77782619D01*
X115450972Y-77780970D01*
X115593829Y-77733351D01*
X115607254Y-77727357D01*
X115609289Y-77725591D01*
X115611780Y-77724560D01*
X115623145Y-77715233D01*
X115718384Y-77619993D01*
X115723101Y-77614244D01*
X115724600Y-77612945D01*
X115726021Y-77610686D01*
X115727711Y-77608628D01*
X115728468Y-77606798D01*
X115732432Y-77600502D01*
X115780051Y-77505264D01*
X115780460Y-77504194D01*
X115780783Y-77503759D01*
X115782975Y-77497622D01*
X115785306Y-77491533D01*
X115785344Y-77490992D01*
X115785730Y-77489913D01*
X115833349Y-77299437D01*
X115833724Y-77296900D01*
X115834147Y-77295879D01*
X115834689Y-77290366D01*
X115835499Y-77284893D01*
X115835336Y-77283800D01*
X115835588Y-77281247D01*
X115835588Y-77138390D01*
X115835336Y-77135836D01*
X115835499Y-77134744D01*
X115834689Y-77129270D01*
X115834147Y-77123758D01*
X115833724Y-77122736D01*
X115833349Y-77120200D01*
X115785730Y-76929724D01*
X115785344Y-76928644D01*
X115785306Y-76928104D01*
X115782975Y-76922014D01*
X115780783Y-76915878D01*
X115780460Y-76915442D01*
X115780051Y-76914373D01*
X115732432Y-76819135D01*
X115728469Y-76812840D01*
X115727711Y-76811008D01*
X115726019Y-76808946D01*
X115724600Y-76806692D01*
X115723103Y-76805393D01*
X115718383Y-76799643D01*
X115623145Y-76704405D01*
X115611780Y-76695078D01*
X115609289Y-76694046D01*
X115607254Y-76692281D01*
X115593829Y-76686287D01*
X115450972Y-76638668D01*
X115443718Y-76637018D01*
X115441887Y-76636260D01*
X115439232Y-76635998D01*
X115436635Y-76635408D01*
X115434660Y-76635548D01*
X115427255Y-76634819D01*
X115284398Y-76634819D01*
X115269766Y-76636260D01*
X115267277Y-76637290D01*
X115264588Y-76637482D01*
X115250857Y-76642737D01*
X115155619Y-76690356D01*
X115143176Y-76698188D01*
X115124003Y-76720296D01*
X115114749Y-76748057D01*
X115116823Y-76777247D01*
X115129910Y-76803422D01*
X115152018Y-76822595D01*
X115179779Y-76831849D01*
X115208969Y-76829775D01*
X115222701Y-76824520D01*
X115302103Y-76784819D01*
X115415085Y-76784819D01*
X115529598Y-76822990D01*
X115603711Y-76897103D01*
X115642204Y-76974090D01*
X115685588Y-77147624D01*
X115685588Y-77272013D01*
X115642204Y-77445547D01*
X115603710Y-77522534D01*
X115529598Y-77596647D01*
X115415085Y-77634819D01*
X115344187Y-77634819D01*
X115229674Y-77596648D01*
X115216541Y-77583514D01*
X115216541Y-77356247D01*
X115332017Y-77356247D01*
X115346649Y-77354806D01*
X115373685Y-77343607D01*
X115394377Y-77322915D01*
X115405576Y-77295879D01*
X115405576Y-77266615D01*
X115394377Y-77239579D01*
X115373685Y-77218887D01*
X115346649Y-77207688D01*
X115332017Y-77206247D01*
X115141541Y-77206247D01*
X115126909Y-77207688D01*
X115099873Y-77218887D01*
X115079181Y-77239579D01*
X115067982Y-77266615D01*
X115066541Y-77281247D01*
X114787969Y-77281247D01*
X114787969Y-76709819D01*
X114786528Y-76695187D01*
X114775329Y-76668151D01*
X114754637Y-76647459D01*
X114727601Y-76636260D01*
X114712969Y-76634819D01*
X114332017Y-76634819D01*
X114317385Y-76636260D01*
X114314896Y-76637290D01*
X114312207Y-76637482D01*
X114298476Y-76642737D01*
X114203238Y-76690356D01*
X114196938Y-76694320D01*
X114195111Y-76695078D01*
X114193054Y-76696766D01*
X114190795Y-76698188D01*
X114189495Y-76699686D01*
X114183746Y-76704405D01*
X114136127Y-76752024D01*
X114131408Y-76757773D01*
X114129910Y-76759073D01*
X114128488Y-76761332D01*
X114126800Y-76763389D01*
X114126042Y-76765216D01*
X114122078Y-76771516D01*
X114074459Y-76866754D01*
X114069204Y-76880486D01*
X114069013Y-76883173D01*
X114067982Y-76885663D01*
X114066541Y-76900295D01*
X113807391Y-76900295D01*
X113787597Y-76702356D01*
X113786528Y-76697023D01*
X113786528Y-76695187D01*
X113785814Y-76693464D01*
X113784707Y-76687940D01*
X113779524Y-76678280D01*
X113775329Y-76668151D01*
X113772657Y-76665479D01*
X113770873Y-76662153D01*
X113762390Y-76655212D01*
X113754637Y-76647459D01*
X113751148Y-76646013D01*
X113748225Y-76643622D01*
X113737727Y-76640454D01*
X113727601Y-76636260D01*
X113721995Y-76635707D01*
X113720209Y-76635169D01*
X113718380Y-76635351D01*
X113712969Y-76634819D01*
X113236779Y-76634819D01*
X113222147Y-76636260D01*
X113195111Y-76647459D01*
X113174419Y-76668151D01*
X113163220Y-76695187D01*
X113163220Y-76724451D01*
X113174419Y-76751487D01*
X113195111Y-76772179D01*
X113222147Y-76783378D01*
X113236779Y-76784819D01*
X113645095Y-76784819D01*
X113669913Y-77033009D01*
X113651272Y-77023689D01*
X113637540Y-77018434D01*
X113634852Y-77018243D01*
X113632363Y-77017212D01*
X113617731Y-77015771D01*
X113379636Y-77015771D01*
X113365004Y-77017212D01*
X113362515Y-77018242D01*
X113359826Y-77018434D01*
X113346095Y-77023689D01*
X113250857Y-77071308D01*
X113244557Y-77075272D01*
X113242730Y-77076030D01*
X113240673Y-77077718D01*
X113238414Y-77079140D01*
X113237114Y-77080638D01*
X113231365Y-77085357D01*
X113183746Y-77132976D01*
X113179027Y-77138725D01*
X113177529Y-77140025D01*
X113176107Y-77142284D01*
X113174419Y-77144341D01*
X113173661Y-77146168D01*
X113169697Y-77152468D01*
X113122078Y-77247706D01*
X113116823Y-77261438D01*
X113116632Y-77264125D01*
X113115601Y-77266615D01*
X113114160Y-77281247D01*
X113003049Y-77281247D01*
X113003049Y-76523708D01*
X115946699Y-76523708D01*
X115946699Y-77895930D01*
G37*
G36*
X113685588Y-80174819D02*
G01*
X113534663Y-80174819D01*
X113420150Y-80136648D01*
X113346037Y-80062534D01*
X113307543Y-79985547D01*
X113264160Y-79812013D01*
X113264160Y-79687624D01*
X113307543Y-79514090D01*
X113346037Y-79437103D01*
X113420150Y-79362990D01*
X113534663Y-79324819D01*
X113685588Y-79324819D01*
X113685588Y-80174819D01*
G37*
G36*
X116041937Y-80435930D02*
G01*
X113003049Y-80435930D01*
X113003049Y-79678390D01*
X113114160Y-79678390D01*
X113114160Y-79821247D01*
X113114411Y-79823800D01*
X113114249Y-79824893D01*
X113115058Y-79830366D01*
X113115601Y-79835879D01*
X113116023Y-79836900D01*
X113116399Y-79839437D01*
X113164018Y-80029913D01*
X113164403Y-80030992D01*
X113164442Y-80031532D01*
X113166769Y-80037613D01*
X113168965Y-80043759D01*
X113169287Y-80044194D01*
X113169697Y-80045264D01*
X113217316Y-80140502D01*
X113221279Y-80146798D01*
X113222037Y-80148628D01*
X113223726Y-80150686D01*
X113225148Y-80152945D01*
X113226646Y-80154244D01*
X113231365Y-80159994D01*
X113326603Y-80255233D01*
X113337968Y-80264561D01*
X113340458Y-80265592D01*
X113342493Y-80267357D01*
X113355919Y-80273351D01*
X113498775Y-80320970D01*
X113506030Y-80322619D01*
X113507861Y-80323378D01*
X113510514Y-80323639D01*
X113513112Y-80324230D01*
X113515086Y-80324089D01*
X113522493Y-80324819D01*
X113760588Y-80324819D01*
X113775220Y-80323378D01*
X113802256Y-80312179D01*
X113822948Y-80291487D01*
X113834147Y-80264451D01*
X113835588Y-80249819D01*
X113835588Y-79249819D01*
X114161779Y-79249819D01*
X114161779Y-80249819D01*
X114162149Y-80253582D01*
X114161962Y-80255058D01*
X114162483Y-80256968D01*
X114163220Y-80264451D01*
X114167037Y-80273666D01*
X114169662Y-80283290D01*
X114172589Y-80287070D01*
X114174419Y-80291487D01*
X114181469Y-80298537D01*
X114187579Y-80306427D01*
X114191732Y-80308800D01*
X114195111Y-80312179D01*
X114204323Y-80315995D01*
X114212988Y-80320946D01*
X114217731Y-80321548D01*
X114222147Y-80323378D01*
X114232121Y-80323378D01*
X114242018Y-80324636D01*
X114246630Y-80323378D01*
X114251411Y-80323378D01*
X114260626Y-80319560D01*
X114270250Y-80316936D01*
X114274030Y-80314008D01*
X114278447Y-80312179D01*
X114285497Y-80305128D01*
X114293387Y-80299019D01*
X114297739Y-80292886D01*
X114299139Y-80291487D01*
X114299708Y-80290112D01*
X114301897Y-80287029D01*
X114733207Y-79532235D01*
X114733207Y-80249819D01*
X114734648Y-80264451D01*
X114745847Y-80291487D01*
X114766539Y-80312179D01*
X114793575Y-80323378D01*
X114822839Y-80323378D01*
X114849875Y-80312179D01*
X114870567Y-80291487D01*
X114881766Y-80264451D01*
X114883207Y-80249819D01*
X114883207Y-79821247D01*
X115161779Y-79821247D01*
X115161779Y-80154580D01*
X115163220Y-80169212D01*
X115167137Y-80178668D01*
X115174418Y-80196247D01*
X115183745Y-80207612D01*
X115231364Y-80255232D01*
X115242730Y-80264560D01*
X115245218Y-80265590D01*
X115247255Y-80267357D01*
X115260681Y-80273351D01*
X115403537Y-80320970D01*
X115410792Y-80322619D01*
X115412623Y-80323378D01*
X115415276Y-80323639D01*
X115417874Y-80324230D01*
X115419848Y-80324089D01*
X115427255Y-80324819D01*
X115522493Y-80324819D01*
X115529898Y-80324089D01*
X115531873Y-80324230D01*
X115534470Y-80323639D01*
X115537125Y-80323378D01*
X115538956Y-80322619D01*
X115546210Y-80320970D01*
X115689067Y-80273351D01*
X115702492Y-80267357D01*
X115704527Y-80265591D01*
X115707018Y-80264560D01*
X115718383Y-80255233D01*
X115813622Y-80159993D01*
X115818339Y-80154244D01*
X115819838Y-80152945D01*
X115821259Y-80150686D01*
X115822949Y-80148628D01*
X115823706Y-80146798D01*
X115827670Y-80140502D01*
X115875289Y-80045264D01*
X115875698Y-80044194D01*
X115876021Y-80043759D01*
X115878213Y-80037622D01*
X115880544Y-80031533D01*
X115880582Y-80030992D01*
X115880968Y-80029913D01*
X115928587Y-79839437D01*
X115928962Y-79836900D01*
X115929385Y-79835879D01*
X115929927Y-79830366D01*
X115930737Y-79824893D01*
X115930574Y-79823800D01*
X115930826Y-79821247D01*
X115930826Y-79678390D01*
X115930574Y-79675836D01*
X115930737Y-79674744D01*
X115929927Y-79669270D01*
X115929385Y-79663758D01*
X115928962Y-79662736D01*
X115928587Y-79660200D01*
X115880968Y-79469724D01*
X115880582Y-79468644D01*
X115880544Y-79468104D01*
X115878213Y-79462014D01*
X115876021Y-79455878D01*
X115875698Y-79455442D01*
X115875289Y-79454373D01*
X115827670Y-79359135D01*
X115823707Y-79352840D01*
X115822949Y-79351008D01*
X115821257Y-79348946D01*
X115819838Y-79346692D01*
X115818341Y-79345393D01*
X115813621Y-79339643D01*
X115718383Y-79244405D01*
X115707018Y-79235078D01*
X115704527Y-79234046D01*
X115702492Y-79232281D01*
X115689067Y-79226287D01*
X115546210Y-79178668D01*
X115538956Y-79177018D01*
X115537125Y-79176260D01*
X115534470Y-79175998D01*
X115531873Y-79175408D01*
X115529898Y-79175548D01*
X115522493Y-79174819D01*
X115379636Y-79174819D01*
X115365004Y-79176260D01*
X115362515Y-79177290D01*
X115359826Y-79177482D01*
X115346095Y-79182737D01*
X115250857Y-79230356D01*
X115238414Y-79238188D01*
X115219241Y-79260296D01*
X115209987Y-79288057D01*
X115212061Y-79317247D01*
X115225148Y-79343422D01*
X115247256Y-79362595D01*
X115275017Y-79371849D01*
X115304207Y-79369775D01*
X115317939Y-79364520D01*
X115397341Y-79324819D01*
X115510323Y-79324819D01*
X115624836Y-79362990D01*
X115698949Y-79437103D01*
X115737442Y-79514090D01*
X115780826Y-79687624D01*
X115780826Y-79812013D01*
X115737442Y-79985547D01*
X115698948Y-80062534D01*
X115624836Y-80136647D01*
X115510323Y-80174819D01*
X115439425Y-80174819D01*
X115324912Y-80136648D01*
X115311779Y-80123514D01*
X115311779Y-79896247D01*
X115427255Y-79896247D01*
X115441887Y-79894806D01*
X115468923Y-79883607D01*
X115489615Y-79862915D01*
X115500814Y-79835879D01*
X115500814Y-79806615D01*
X115489615Y-79779579D01*
X115468923Y-79758887D01*
X115441887Y-79747688D01*
X115427255Y-79746247D01*
X115236779Y-79746247D01*
X115222147Y-79747688D01*
X115195111Y-79758887D01*
X115174419Y-79779579D01*
X115163220Y-79806615D01*
X115161779Y-79821247D01*
X114883207Y-79821247D01*
X114883207Y-79249819D01*
X114882836Y-79246055D01*
X114883024Y-79244580D01*
X114882502Y-79242669D01*
X114881766Y-79235187D01*
X114877948Y-79225971D01*
X114875324Y-79216348D01*
X114872396Y-79212567D01*
X114870567Y-79208151D01*
X114863516Y-79201100D01*
X114857407Y-79193211D01*
X114853253Y-79190837D01*
X114849875Y-79187459D01*
X114840662Y-79183642D01*
X114831998Y-79178692D01*
X114827254Y-79178089D01*
X114822839Y-79176260D01*
X114812865Y-79176260D01*
X114802968Y-79175002D01*
X114798356Y-79176260D01*
X114793575Y-79176260D01*
X114784358Y-79180077D01*
X114774737Y-79182702D01*
X114770957Y-79185628D01*
X114766539Y-79187459D01*
X114759487Y-79194510D01*
X114751599Y-79200619D01*
X114747244Y-79206753D01*
X114745847Y-79208151D01*
X114745278Y-79209523D01*
X114743089Y-79212608D01*
X114311779Y-79967402D01*
X114311779Y-79249819D01*
X114310338Y-79235187D01*
X114299139Y-79208151D01*
X114278447Y-79187459D01*
X114251411Y-79176260D01*
X114222147Y-79176260D01*
X114195111Y-79187459D01*
X114174419Y-79208151D01*
X114163220Y-79235187D01*
X114161779Y-79249819D01*
X113835588Y-79249819D01*
X113834147Y-79235187D01*
X113822948Y-79208151D01*
X113802256Y-79187459D01*
X113775220Y-79176260D01*
X113760588Y-79174819D01*
X113522493Y-79174819D01*
X113515086Y-79175548D01*
X113513112Y-79175408D01*
X113510514Y-79175998D01*
X113507861Y-79176260D01*
X113506030Y-79177018D01*
X113498775Y-79178668D01*
X113355919Y-79226287D01*
X113342493Y-79232281D01*
X113340458Y-79234045D01*
X113337968Y-79235077D01*
X113326603Y-79244405D01*
X113231365Y-79339643D01*
X113226646Y-79345392D01*
X113225148Y-79346692D01*
X113223726Y-79348951D01*
X113222038Y-79351008D01*
X113221280Y-79352835D01*
X113217316Y-79359135D01*
X113169697Y-79454373D01*
X113169287Y-79455442D01*
X113168965Y-79455878D01*
X113166769Y-79462023D01*
X113164442Y-79468105D01*
X113164403Y-79468644D01*
X113164018Y-79469724D01*
X113116399Y-79660200D01*
X113116023Y-79662736D01*
X113115601Y-79663758D01*
X113115058Y-79669270D01*
X113114249Y-79674744D01*
X113114411Y-79675836D01*
X113114160Y-79678390D01*
X113003049Y-79678390D01*
X113003049Y-79063708D01*
X116041937Y-79063708D01*
X116041937Y-80435930D01*
G37*
D11*
G36*
X115269335Y-88831070D02*
G01*
X115317815Y-88879550D01*
X115371429Y-88986777D01*
X115371429Y-89296707D01*
X115317815Y-89403934D01*
X115269335Y-89452414D01*
X115162108Y-89506028D01*
X114923608Y-89506028D01*
X114816380Y-89452414D01*
X114767900Y-89403934D01*
X114714286Y-89296705D01*
X114714286Y-88986779D01*
X114767900Y-88879550D01*
X114816380Y-88831070D01*
X114923608Y-88777457D01*
X115162108Y-88777457D01*
X115269335Y-88831070D01*
G37*
G36*
X118055049Y-88259642D02*
G01*
X118103527Y-88308119D01*
X118162792Y-88426647D01*
X118228571Y-88689765D01*
X118228571Y-89022291D01*
X118162792Y-89285408D01*
X118103527Y-89403937D01*
X118055050Y-89452413D01*
X117947821Y-89506028D01*
X117852178Y-89506028D01*
X117744949Y-89452414D01*
X117696473Y-89403937D01*
X117637207Y-89285407D01*
X117571428Y-89022289D01*
X117571428Y-88689767D01*
X117637207Y-88426648D01*
X117696472Y-88308120D01*
X117744948Y-88259643D01*
X117852178Y-88206028D01*
X117947821Y-88206028D01*
X118055049Y-88259642D01*
G37*
G36*
X123840765Y-88902501D02*
G01*
X123889241Y-88950977D01*
X123942856Y-89058206D01*
X123942856Y-89296707D01*
X123889242Y-89403934D01*
X123840762Y-89452414D01*
X123733535Y-89506028D01*
X123495035Y-89506028D01*
X123387807Y-89452414D01*
X123339327Y-89403934D01*
X123285713Y-89296705D01*
X123285713Y-89058207D01*
X123339327Y-88950977D01*
X123387804Y-88902500D01*
X123495035Y-88848885D01*
X123733534Y-88848885D01*
X123840765Y-88902501D01*
G37*
G36*
X123840765Y-88259644D02*
G01*
X123889242Y-88308120D01*
X123942856Y-88415348D01*
X123942856Y-88439564D01*
X123889242Y-88546791D01*
X123840762Y-88595271D01*
X123733535Y-88648885D01*
X123495035Y-88648885D01*
X123387807Y-88595271D01*
X123339327Y-88546791D01*
X123285713Y-88439562D01*
X123285713Y-88415350D01*
X123339328Y-88308119D01*
X123387804Y-88259643D01*
X123495035Y-88206028D01*
X123733534Y-88206028D01*
X123840765Y-88259644D01*
G37*
G36*
X127942856Y-89506028D02*
G01*
X127495034Y-89506028D01*
X127387806Y-89452414D01*
X127339326Y-89403934D01*
X127285713Y-89296707D01*
X127285713Y-89129634D01*
X127339326Y-89022407D01*
X127382589Y-88979144D01*
X127559082Y-88920314D01*
X127942856Y-88920314D01*
X127942856Y-89506028D01*
G37*
G36*
X127942856Y-88720314D02*
G01*
X127566463Y-88720314D01*
X127459232Y-88666698D01*
X127410756Y-88618222D01*
X127357141Y-88510991D01*
X127357141Y-88415350D01*
X127410756Y-88308119D01*
X127459232Y-88259643D01*
X127566463Y-88206028D01*
X127942856Y-88206028D01*
X127942856Y-88720314D01*
G37*
G36*
X131539748Y-88751993D02*
G01*
X131585712Y-88843920D01*
X131585712Y-88984047D01*
X131071427Y-88881190D01*
X131071427Y-88843920D01*
X131117390Y-88751992D01*
X131209319Y-88706028D01*
X131447819Y-88706028D01*
X131539748Y-88751993D01*
G37*
G36*
X133014284Y-88791742D02*
G01*
X132566462Y-88791742D01*
X132459234Y-88738128D01*
X132410754Y-88689648D01*
X132357141Y-88582421D01*
X132357141Y-88415348D01*
X132410754Y-88308120D01*
X132459231Y-88259643D01*
X132566462Y-88206028D01*
X133014284Y-88206028D01*
X133014284Y-88791742D01*
G37*
G36*
X119264285Y-86324344D02*
G01*
X119264285Y-87057880D01*
X119197821Y-87091112D01*
X118959320Y-87091112D01*
X118852091Y-87037498D01*
X118803615Y-86989021D01*
X118749999Y-86881789D01*
X118749999Y-86500434D01*
X118803614Y-86393204D01*
X118852090Y-86344727D01*
X118959320Y-86291112D01*
X119197820Y-86291112D01*
X119264285Y-86324344D01*
G37*
G36*
X120621428Y-86324344D02*
G01*
X120621428Y-87057880D01*
X120554964Y-87091112D01*
X120316463Y-87091112D01*
X120209234Y-87037498D01*
X120160758Y-86989021D01*
X120107142Y-86881789D01*
X120107142Y-86500434D01*
X120160757Y-86393204D01*
X120209233Y-86344727D01*
X120316463Y-86291112D01*
X120554963Y-86291112D01*
X120621428Y-86324344D01*
G37*
G36*
X117932606Y-86337077D02*
G01*
X117978570Y-86429004D01*
X117978570Y-86569131D01*
X117464285Y-86466274D01*
X117464285Y-86429004D01*
X117510248Y-86337076D01*
X117602177Y-86291112D01*
X117840677Y-86291112D01*
X117932606Y-86337077D01*
G37*
G36*
X123947908Y-86344728D02*
G01*
X123996385Y-86393204D01*
X124049999Y-86500432D01*
X124049999Y-86881791D01*
X123996385Y-86989018D01*
X123947905Y-87037498D01*
X123840678Y-87091112D01*
X123673606Y-87091112D01*
X123566377Y-87037498D01*
X123517901Y-86989021D01*
X123464285Y-86881789D01*
X123464285Y-86500434D01*
X123517900Y-86393204D01*
X123566376Y-86344727D01*
X123673606Y-86291112D01*
X123840677Y-86291112D01*
X123947908Y-86344728D01*
G37*
G36*
X129146892Y-86337077D02*
G01*
X129192856Y-86429004D01*
X129192856Y-86569131D01*
X128678571Y-86466274D01*
X128678571Y-86429004D01*
X128724534Y-86337076D01*
X128816463Y-86291112D01*
X129054963Y-86291112D01*
X129146892Y-86337077D01*
G37*
G36*
X131225542Y-86662541D02*
G01*
X130788740Y-86662541D01*
X131007141Y-86007339D01*
X131225542Y-86662541D01*
G37*
G36*
X116697905Y-84001238D02*
G01*
X116746385Y-84049718D01*
X116799999Y-84156945D01*
X116799999Y-84466875D01*
X116746385Y-84574102D01*
X116697905Y-84622582D01*
X116590678Y-84676196D01*
X116352178Y-84676196D01*
X116244950Y-84622582D01*
X116196470Y-84574102D01*
X116142856Y-84466873D01*
X116142856Y-84156947D01*
X116196470Y-84049718D01*
X116244950Y-84001238D01*
X116352178Y-83947625D01*
X116590678Y-83947625D01*
X116697905Y-84001238D01*
G37*
G36*
X119483619Y-83429810D02*
G01*
X119532097Y-83478287D01*
X119591362Y-83596815D01*
X119657141Y-83859933D01*
X119657141Y-84192459D01*
X119591362Y-84455576D01*
X119532097Y-84574105D01*
X119483620Y-84622581D01*
X119376391Y-84676196D01*
X119280748Y-84676196D01*
X119173519Y-84622582D01*
X119125043Y-84574105D01*
X119065777Y-84455575D01*
X118999998Y-84192457D01*
X118999998Y-83859935D01*
X119065777Y-83596816D01*
X119125042Y-83478288D01*
X119173518Y-83429811D01*
X119280748Y-83376196D01*
X119376391Y-83376196D01*
X119483619Y-83429810D01*
G37*
G36*
X128055050Y-83929812D02*
G01*
X128103527Y-83978288D01*
X128157141Y-84085516D01*
X128157141Y-84466875D01*
X128103527Y-84574102D01*
X128055047Y-84622582D01*
X127947820Y-84676196D01*
X127780748Y-84676196D01*
X127673519Y-84622582D01*
X127625043Y-84574105D01*
X127571427Y-84466873D01*
X127571427Y-84085518D01*
X127625042Y-83978288D01*
X127673518Y-83929811D01*
X127780748Y-83876196D01*
X127947819Y-83876196D01*
X128055050Y-83929812D01*
G37*
G36*
X123657141Y-83961910D02*
G01*
X123209319Y-83961910D01*
X123102091Y-83908296D01*
X123053611Y-83859816D01*
X122999998Y-83752589D01*
X122999998Y-83585516D01*
X123053611Y-83478288D01*
X123102088Y-83429811D01*
X123209319Y-83376196D01*
X123657141Y-83376196D01*
X123657141Y-83961910D01*
G37*
G36*
X131585713Y-83961910D02*
G01*
X131137891Y-83961910D01*
X131030663Y-83908296D01*
X130982183Y-83859816D01*
X130928570Y-83752589D01*
X130928570Y-83585516D01*
X130982183Y-83478288D01*
X131030660Y-83429811D01*
X131137891Y-83376196D01*
X131585713Y-83376196D01*
X131585713Y-83961910D01*
G37*
G36*
X133380951Y-89872695D02*
G01*
X114347619Y-89872695D01*
X114347619Y-88963171D01*
X114514286Y-88963171D01*
X114514286Y-89320314D01*
X114516207Y-89339823D01*
X114517582Y-89343143D01*
X114517837Y-89346727D01*
X114524843Y-89365036D01*
X114596272Y-89507892D01*
X114601558Y-89516290D01*
X114602568Y-89518728D01*
X114604819Y-89521471D01*
X114606715Y-89524483D01*
X114608712Y-89526215D01*
X114615004Y-89533882D01*
X114686433Y-89605311D01*
X114694103Y-89611605D01*
X114695833Y-89613600D01*
X114698840Y-89615493D01*
X114701587Y-89617747D01*
X114704026Y-89618757D01*
X114712423Y-89624043D01*
X114855280Y-89695471D01*
X114873589Y-89702477D01*
X114877171Y-89702731D01*
X114880492Y-89704107D01*
X114900001Y-89706028D01*
X115185715Y-89706028D01*
X115205224Y-89704107D01*
X115208544Y-89702731D01*
X115212128Y-89702477D01*
X115230436Y-89695471D01*
X115373293Y-89624043D01*
X115381691Y-89618756D01*
X115384129Y-89617747D01*
X115386872Y-89615495D01*
X115389884Y-89613600D01*
X115391616Y-89611602D01*
X115399283Y-89605311D01*
X115470712Y-89533882D01*
X115477006Y-89526211D01*
X115479001Y-89524482D01*
X115480894Y-89521474D01*
X115483148Y-89518728D01*
X115484158Y-89516288D01*
X115489444Y-89507892D01*
X115560872Y-89365035D01*
X115567878Y-89346726D01*
X115568132Y-89343143D01*
X115569508Y-89339823D01*
X115571429Y-89320314D01*
X115571429Y-88748885D01*
X115571093Y-88745482D01*
X115571311Y-88744024D01*
X115570231Y-88736726D01*
X115569508Y-88729376D01*
X115568943Y-88728012D01*
X115568443Y-88724631D01*
X115497015Y-88438918D01*
X115492910Y-88427427D01*
X115492430Y-88425000D01*
X115491257Y-88422800D01*
X115490420Y-88420457D01*
X115488949Y-88418472D01*
X115483206Y-88407701D01*
X115472567Y-88391742D01*
X115942857Y-88391742D01*
X115942857Y-88534600D01*
X115943829Y-88544473D01*
X115943642Y-88547108D01*
X115944429Y-88550571D01*
X115944778Y-88554109D01*
X115945789Y-88556550D01*
X115947989Y-88566223D01*
X116019418Y-88780508D01*
X116027409Y-88798408D01*
X116029764Y-88801123D01*
X116031139Y-88804442D01*
X116043575Y-88819596D01*
X116730008Y-89506028D01*
X116042857Y-89506028D01*
X116023348Y-89507949D01*
X115987300Y-89522881D01*
X115959710Y-89550471D01*
X115944778Y-89586519D01*
X115944778Y-89625537D01*
X115959710Y-89661585D01*
X115987300Y-89689175D01*
X116023348Y-89704107D01*
X116042857Y-89706028D01*
X116971429Y-89706028D01*
X116990938Y-89704107D01*
X117026986Y-89689175D01*
X117054576Y-89661585D01*
X117069508Y-89625537D01*
X117069508Y-89586519D01*
X117058366Y-89559620D01*
X117054576Y-89550470D01*
X117042139Y-89535317D01*
X116201688Y-88694865D01*
X116195885Y-88677457D01*
X117371428Y-88677457D01*
X117371428Y-89034600D01*
X117371763Y-89038002D01*
X117371546Y-89039461D01*
X117372625Y-89046758D01*
X117373349Y-89054109D01*
X117373913Y-89055472D01*
X117374414Y-89058854D01*
X117445843Y-89344567D01*
X117446356Y-89346004D01*
X117446408Y-89346727D01*
X117449519Y-89354857D01*
X117452438Y-89363028D01*
X117452867Y-89363607D01*
X117453414Y-89365036D01*
X117524843Y-89507892D01*
X117530126Y-89516286D01*
X117531138Y-89518728D01*
X117533392Y-89521475D01*
X117535286Y-89524483D01*
X117537282Y-89526214D01*
X117543575Y-89533881D01*
X117615003Y-89605310D01*
X117622672Y-89611605D01*
X117624403Y-89613600D01*
X117627408Y-89615491D01*
X117630156Y-89617747D01*
X117632597Y-89618758D01*
X117640993Y-89624043D01*
X117783850Y-89695471D01*
X117802159Y-89702477D01*
X117805741Y-89702731D01*
X117809062Y-89704107D01*
X117828571Y-89706028D01*
X117971428Y-89706028D01*
X117990937Y-89704107D01*
X117994257Y-89702731D01*
X117997840Y-89702477D01*
X118016149Y-89695471D01*
X118159007Y-89624043D01*
X118167403Y-89618757D01*
X118169844Y-89617747D01*
X118172589Y-89615493D01*
X118175598Y-89613600D01*
X118177330Y-89611602D01*
X118184997Y-89605310D01*
X118256425Y-89533881D01*
X118262717Y-89526214D01*
X118264714Y-89524483D01*
X118266607Y-89521474D01*
X118268862Y-89518728D01*
X118269872Y-89516287D01*
X118275157Y-89507893D01*
X118346586Y-89365036D01*
X118347132Y-89363607D01*
X118347562Y-89363028D01*
X118350480Y-89354857D01*
X118353592Y-89346727D01*
X118353643Y-89346004D01*
X118354157Y-89344567D01*
X118425585Y-89058854D01*
X118426085Y-89055472D01*
X118426650Y-89054109D01*
X118427373Y-89046758D01*
X118428453Y-89039461D01*
X118428235Y-89038002D01*
X118428571Y-89034600D01*
X118428571Y-88677457D01*
X118428235Y-88674054D01*
X118428453Y-88672596D01*
X118427373Y-88665299D01*
X118426650Y-88657948D01*
X118426084Y-88656583D01*
X118425585Y-88653204D01*
X118360220Y-88391742D01*
X118799999Y-88391742D01*
X118799999Y-88534600D01*
X118800971Y-88544473D01*
X118800784Y-88547108D01*
X118801571Y-88550571D01*
X118801920Y-88554109D01*
X118802931Y-88556550D01*
X118805131Y-88566223D01*
X118876560Y-88780508D01*
X118884551Y-88798408D01*
X118886906Y-88801123D01*
X118888281Y-88804442D01*
X118900717Y-88819596D01*
X119587150Y-89506028D01*
X118899999Y-89506028D01*
X118880490Y-89507949D01*
X118844442Y-89522881D01*
X118816852Y-89550471D01*
X118801920Y-89586519D01*
X118801920Y-89625537D01*
X118816852Y-89661585D01*
X118844442Y-89689175D01*
X118880490Y-89704107D01*
X118899999Y-89706028D01*
X119828571Y-89706028D01*
X119848080Y-89704107D01*
X119884128Y-89689175D01*
X119911718Y-89661585D01*
X119926650Y-89625537D01*
X119926650Y-89586519D01*
X119915508Y-89559620D01*
X119911718Y-89550470D01*
X119899281Y-89535317D01*
X119879055Y-89515091D01*
X120230492Y-89515091D01*
X120230492Y-89554109D01*
X120233921Y-89562386D01*
X120245424Y-89590158D01*
X120257861Y-89605311D01*
X120329290Y-89676739D01*
X120344443Y-89689176D01*
X120368703Y-89699224D01*
X120380491Y-89704107D01*
X120380492Y-89704107D01*
X120419509Y-89704107D01*
X120449143Y-89691832D01*
X120455558Y-89689175D01*
X120455562Y-89689170D01*
X120470711Y-89676739D01*
X120542138Y-89605311D01*
X120554575Y-89590158D01*
X120561933Y-89572394D01*
X120569506Y-89554110D01*
X120569507Y-89515092D01*
X120554576Y-89479043D01*
X120542139Y-89463890D01*
X120470711Y-89392461D01*
X120455558Y-89380024D01*
X120440626Y-89373839D01*
X120419509Y-89365092D01*
X120380491Y-89365092D01*
X120369933Y-89369465D01*
X120344443Y-89380023D01*
X120344437Y-89380028D01*
X120329289Y-89392460D01*
X120257860Y-89463889D01*
X120245428Y-89479037D01*
X120245423Y-89479043D01*
X120243917Y-89482680D01*
X120230492Y-89515091D01*
X119879055Y-89515091D01*
X119058830Y-88694865D01*
X118999999Y-88518372D01*
X118999999Y-88415350D01*
X119053614Y-88308119D01*
X119102090Y-88259643D01*
X119209321Y-88206028D01*
X119519249Y-88206028D01*
X119626478Y-88259643D01*
X119686431Y-88319595D01*
X119701584Y-88332032D01*
X119737633Y-88346963D01*
X119776651Y-88346963D01*
X119812699Y-88332032D01*
X119840289Y-88304442D01*
X119855220Y-88268394D01*
X119855220Y-88229376D01*
X119840289Y-88193327D01*
X119827852Y-88178174D01*
X119756425Y-88106746D01*
X119748758Y-88100454D01*
X119747026Y-88098457D01*
X119744014Y-88096561D01*
X119741271Y-88094310D01*
X119738833Y-88093300D01*
X119730435Y-88088014D01*
X119729839Y-88087716D01*
X120873119Y-88087716D01*
X120873349Y-88106607D01*
X120873349Y-88125537D01*
X120873586Y-88126110D01*
X120873594Y-88126732D01*
X120879513Y-88145420D01*
X121522370Y-89645420D01*
X121531821Y-89662595D01*
X121559746Y-89689846D01*
X121595973Y-89704337D01*
X121634988Y-89703862D01*
X121670852Y-89688492D01*
X121698103Y-89660567D01*
X121712594Y-89624339D01*
X121712119Y-89585324D01*
X121706199Y-89566636D01*
X121684108Y-89515091D01*
X122373349Y-89515091D01*
X122373349Y-89554109D01*
X122376778Y-89562386D01*
X122388281Y-89590158D01*
X122400718Y-89605311D01*
X122472147Y-89676739D01*
X122487300Y-89689176D01*
X122511560Y-89699224D01*
X122523348Y-89704107D01*
X122523349Y-89704107D01*
X122562366Y-89704107D01*
X122592000Y-89691832D01*
X122598415Y-89689175D01*
X122598419Y-89689170D01*
X122613568Y-89676739D01*
X122684995Y-89605311D01*
X122697432Y-89590158D01*
X122704790Y-89572394D01*
X122712363Y-89554110D01*
X122712364Y-89515092D01*
X122697433Y-89479043D01*
X122684996Y-89463890D01*
X122613568Y-89392461D01*
X122598415Y-89380024D01*
X122583483Y-89373839D01*
X122562366Y-89365092D01*
X122523348Y-89365092D01*
X122512790Y-89369465D01*
X122487300Y-89380023D01*
X122487294Y-89380028D01*
X122472146Y-89392460D01*
X122400717Y-89463889D01*
X122388285Y-89479037D01*
X122388280Y-89479043D01*
X122386774Y-89482680D01*
X122373349Y-89515091D01*
X121684108Y-89515091D01*
X121202674Y-88391742D01*
X123085713Y-88391742D01*
X123085713Y-88463171D01*
X123087634Y-88482680D01*
X123089009Y-88486000D01*
X123089264Y-88489584D01*
X123096270Y-88507893D01*
X123167699Y-88650749D01*
X123172985Y-88659147D01*
X123173995Y-88661585D01*
X123176246Y-88664328D01*
X123178142Y-88667340D01*
X123180139Y-88669072D01*
X123186431Y-88676739D01*
X123257860Y-88748168D01*
X123258734Y-88748885D01*
X123257861Y-88749603D01*
X123186432Y-88821031D01*
X123180139Y-88828697D01*
X123178142Y-88830430D01*
X123176248Y-88833438D01*
X123173995Y-88836184D01*
X123172984Y-88838624D01*
X123167699Y-88847021D01*
X123096270Y-88989879D01*
X123089264Y-89008187D01*
X123089009Y-89011770D01*
X123087634Y-89015091D01*
X123085713Y-89034600D01*
X123085713Y-89320314D01*
X123087634Y-89339823D01*
X123089009Y-89343143D01*
X123089264Y-89346727D01*
X123096270Y-89365036D01*
X123167699Y-89507892D01*
X123172985Y-89516290D01*
X123173995Y-89518728D01*
X123176246Y-89521471D01*
X123178142Y-89524483D01*
X123180139Y-89526215D01*
X123186431Y-89533882D01*
X123257860Y-89605311D01*
X123265530Y-89611605D01*
X123267260Y-89613600D01*
X123270267Y-89615493D01*
X123273014Y-89617747D01*
X123275453Y-89618757D01*
X123283850Y-89624043D01*
X123426707Y-89695471D01*
X123445016Y-89702477D01*
X123448598Y-89702731D01*
X123451919Y-89704107D01*
X123471428Y-89706028D01*
X123757142Y-89706028D01*
X123776651Y-89704107D01*
X123779971Y-89702731D01*
X123783555Y-89702477D01*
X123801863Y-89695471D01*
X123944720Y-89624043D01*
X123953118Y-89618756D01*
X123955556Y-89617747D01*
X123958299Y-89615495D01*
X123961311Y-89613600D01*
X123963043Y-89611602D01*
X123970710Y-89605311D01*
X124042139Y-89533882D01*
X124048433Y-89526211D01*
X124050428Y-89524482D01*
X124052321Y-89521474D01*
X124054575Y-89518728D01*
X124055585Y-89516288D01*
X124060871Y-89507892D01*
X124132299Y-89365035D01*
X124139305Y-89346726D01*
X124139559Y-89343143D01*
X124140935Y-89339823D01*
X124142856Y-89320314D01*
X124142856Y-89034600D01*
X124140935Y-89015091D01*
X124139560Y-89011773D01*
X124139306Y-89008188D01*
X124132299Y-88989879D01*
X124060871Y-88847021D01*
X124055586Y-88838625D01*
X124054575Y-88836184D01*
X124052319Y-88833436D01*
X124050428Y-88830431D01*
X124048432Y-88828700D01*
X124042138Y-88821031D01*
X123970709Y-88749603D01*
X123969835Y-88748885D01*
X123970710Y-88748168D01*
X124042139Y-88676739D01*
X124048433Y-88669068D01*
X124050428Y-88667339D01*
X124052321Y-88664331D01*
X124054575Y-88661585D01*
X124055585Y-88659145D01*
X124060871Y-88650749D01*
X124132299Y-88507892D01*
X124139305Y-88489583D01*
X124139559Y-88486000D01*
X124140935Y-88482680D01*
X124142856Y-88463171D01*
X124142856Y-88391742D01*
X124514284Y-88391742D01*
X124514284Y-88534600D01*
X124515256Y-88544473D01*
X124515069Y-88547108D01*
X124515856Y-88550571D01*
X124516205Y-88554109D01*
X124517216Y-88556550D01*
X124519416Y-88566223D01*
X124590845Y-88780508D01*
X124598836Y-88798408D01*
X124601191Y-88801123D01*
X124602566Y-88804442D01*
X124615002Y-88819596D01*
X125301435Y-89506028D01*
X124614284Y-89506028D01*
X124594775Y-89507949D01*
X124558727Y-89522881D01*
X124531137Y-89550471D01*
X124516205Y-89586519D01*
X124516205Y-89625537D01*
X124531137Y-89661585D01*
X124558727Y-89689175D01*
X124594775Y-89704107D01*
X124614284Y-89706028D01*
X125542856Y-89706028D01*
X125562365Y-89704107D01*
X125598413Y-89689175D01*
X125626003Y-89661585D01*
X125640935Y-89625537D01*
X125640935Y-89586519D01*
X125629793Y-89559620D01*
X125626003Y-89550470D01*
X125613566Y-89535317D01*
X125184278Y-89106028D01*
X127085713Y-89106028D01*
X127085713Y-89320314D01*
X127087634Y-89339823D01*
X127089009Y-89343143D01*
X127089264Y-89346727D01*
X127096270Y-89365035D01*
X127167698Y-89507892D01*
X127172984Y-89516290D01*
X127173994Y-89518728D01*
X127176245Y-89521471D01*
X127178141Y-89524483D01*
X127180138Y-89526215D01*
X127186430Y-89533882D01*
X127257859Y-89605311D01*
X127265529Y-89611605D01*
X127267259Y-89613600D01*
X127270266Y-89615493D01*
X127273013Y-89617747D01*
X127275452Y-89618757D01*
X127283849Y-89624043D01*
X127426706Y-89695471D01*
X127445015Y-89702477D01*
X127448597Y-89702731D01*
X127451918Y-89704107D01*
X127471427Y-89706028D01*
X128042856Y-89706028D01*
X128062365Y-89704107D01*
X128098413Y-89689175D01*
X128126003Y-89661585D01*
X128140935Y-89625537D01*
X128140935Y-89625536D01*
X128142856Y-89606028D01*
X128142856Y-88620643D01*
X129658214Y-88620643D01*
X129662967Y-88639662D01*
X130020110Y-89639662D01*
X130028480Y-89657388D01*
X130031850Y-89661110D01*
X130033998Y-89665645D01*
X130044846Y-89675465D01*
X130054667Y-89686314D01*
X130059201Y-89688461D01*
X130062924Y-89691832D01*
X130076710Y-89696755D01*
X130089929Y-89703017D01*
X130094940Y-89703266D01*
X130099669Y-89704955D01*
X130114284Y-89704228D01*
X130128899Y-89704955D01*
X130133627Y-89703266D01*
X130138639Y-89703017D01*
X130151862Y-89696753D01*
X130165644Y-89691831D01*
X130169364Y-89688462D01*
X130173901Y-89686314D01*
X130183723Y-89675463D01*
X130194570Y-89665645D01*
X130196717Y-89661110D01*
X130200088Y-89657388D01*
X130208458Y-89639662D01*
X130501082Y-88820314D01*
X130871427Y-88820314D01*
X130871427Y-88963171D01*
X130873348Y-88982680D01*
X130877097Y-88991732D01*
X130878999Y-89001343D01*
X130884491Y-89009581D01*
X130888280Y-89018728D01*
X130895206Y-89025654D01*
X130900642Y-89033808D01*
X130908870Y-89039318D01*
X130915870Y-89046318D01*
X130924921Y-89050067D01*
X130933062Y-89055519D01*
X130951815Y-89061229D01*
X130951916Y-89061249D01*
X130951918Y-89061250D01*
X130951920Y-89061250D01*
X131585712Y-89188008D01*
X131585712Y-89368135D01*
X131539748Y-89460064D01*
X131447820Y-89506028D01*
X131209319Y-89506028D01*
X131087576Y-89445157D01*
X131069268Y-89438151D01*
X131030347Y-89435385D01*
X130993332Y-89447724D01*
X130963855Y-89473289D01*
X130946406Y-89508187D01*
X130943640Y-89547108D01*
X130955979Y-89584123D01*
X130981544Y-89613600D01*
X130998134Y-89624043D01*
X131140991Y-89695471D01*
X131159300Y-89702477D01*
X131162882Y-89702731D01*
X131166203Y-89704107D01*
X131185712Y-89706028D01*
X131471427Y-89706028D01*
X131490936Y-89704107D01*
X131494256Y-89702731D01*
X131497840Y-89702477D01*
X131516148Y-89695471D01*
X131659005Y-89624043D01*
X131662267Y-89621989D01*
X131663808Y-89621476D01*
X131665725Y-89619812D01*
X131675596Y-89613600D01*
X131683812Y-89604125D01*
X131693284Y-89595911D01*
X131699497Y-89586039D01*
X131701160Y-89584123D01*
X131701673Y-89582584D01*
X131703727Y-89579321D01*
X131775155Y-89436463D01*
X131782162Y-89418154D01*
X131782416Y-89414568D01*
X131783791Y-89411251D01*
X131785712Y-89391742D01*
X131785712Y-89106138D01*
X131785713Y-89106133D01*
X131785712Y-89106127D01*
X131785712Y-88820314D01*
X131783791Y-88800805D01*
X131782415Y-88797484D01*
X131782161Y-88793902D01*
X131775155Y-88775593D01*
X131703727Y-88632736D01*
X131701673Y-88629472D01*
X131701160Y-88627934D01*
X131699497Y-88626017D01*
X131693284Y-88616146D01*
X131683813Y-88607932D01*
X131675596Y-88598457D01*
X131665722Y-88592242D01*
X131663807Y-88590581D01*
X131662268Y-88590068D01*
X131659005Y-88588014D01*
X131516149Y-88516585D01*
X131497840Y-88509579D01*
X131494256Y-88509324D01*
X131490936Y-88507949D01*
X131471427Y-88506028D01*
X131185712Y-88506028D01*
X131166203Y-88507949D01*
X131162882Y-88509324D01*
X131159299Y-88509579D01*
X131140990Y-88516585D01*
X130998133Y-88588014D01*
X130994868Y-88590068D01*
X130993332Y-88590581D01*
X130991417Y-88592240D01*
X130981543Y-88598457D01*
X130973327Y-88607929D01*
X130963855Y-88616145D01*
X130957640Y-88626018D01*
X130955979Y-88627934D01*
X130955466Y-88629472D01*
X130953412Y-88632736D01*
X130881984Y-88775593D01*
X130874978Y-88793901D01*
X130874723Y-88797484D01*
X130873348Y-88800805D01*
X130871427Y-88820314D01*
X130501082Y-88820314D01*
X130565601Y-88639662D01*
X130570354Y-88620643D01*
X130568416Y-88581673D01*
X130551713Y-88546411D01*
X130522787Y-88520225D01*
X130486042Y-88507101D01*
X130447072Y-88509039D01*
X130411810Y-88525742D01*
X130385623Y-88554668D01*
X130377253Y-88572394D01*
X130114284Y-89308706D01*
X129851315Y-88572394D01*
X129842945Y-88554668D01*
X129816758Y-88525742D01*
X129781496Y-88509039D01*
X129742526Y-88507101D01*
X129705781Y-88520224D01*
X129676855Y-88546411D01*
X129660152Y-88581673D01*
X129658214Y-88620643D01*
X128142856Y-88620643D01*
X128142856Y-88391742D01*
X132157141Y-88391742D01*
X132157141Y-88606028D01*
X132159062Y-88625537D01*
X132160437Y-88628857D01*
X132160692Y-88632441D01*
X132167698Y-88650749D01*
X132239126Y-88793606D01*
X132244412Y-88802004D01*
X132245422Y-88804442D01*
X132247673Y-88807185D01*
X132249569Y-88810197D01*
X132251566Y-88811929D01*
X132257858Y-88819596D01*
X132329287Y-88891025D01*
X132336957Y-88897319D01*
X132338687Y-88899314D01*
X132341694Y-88901207D01*
X132344441Y-88903461D01*
X132346880Y-88904471D01*
X132355277Y-88909757D01*
X132498134Y-88981185D01*
X132516443Y-88988191D01*
X132520025Y-88988445D01*
X132523346Y-88989821D01*
X132542855Y-88991742D01*
X132565076Y-88991742D01*
X132175218Y-89548682D01*
X132165604Y-89565766D01*
X132157164Y-89603860D01*
X132163945Y-89642285D01*
X132184914Y-89675190D01*
X132216879Y-89697565D01*
X132254973Y-89706005D01*
X132293398Y-89699224D01*
X132326303Y-89678255D01*
X132339064Y-89663374D01*
X132809206Y-88991742D01*
X133014284Y-88991742D01*
X133014284Y-89606028D01*
X133016205Y-89625537D01*
X133031137Y-89661585D01*
X133058727Y-89689175D01*
X133094775Y-89704107D01*
X133133793Y-89704107D01*
X133169841Y-89689175D01*
X133197431Y-89661585D01*
X133212363Y-89625537D01*
X133214284Y-89606028D01*
X133214284Y-88106028D01*
X133212363Y-88086519D01*
X133197431Y-88050471D01*
X133169841Y-88022881D01*
X133133793Y-88007949D01*
X133114284Y-88006028D01*
X132542855Y-88006028D01*
X132523346Y-88007949D01*
X132520025Y-88009324D01*
X132516442Y-88009579D01*
X132498133Y-88016585D01*
X132355276Y-88088014D01*
X132346881Y-88093298D01*
X132344441Y-88094309D01*
X132341694Y-88096563D01*
X132338686Y-88098457D01*
X132336954Y-88100453D01*
X132329288Y-88106746D01*
X132257859Y-88178174D01*
X132251566Y-88185840D01*
X132249569Y-88187573D01*
X132247675Y-88190581D01*
X132245422Y-88193327D01*
X132244411Y-88195767D01*
X132239126Y-88204164D01*
X132167698Y-88347021D01*
X132160692Y-88365329D01*
X132160437Y-88368912D01*
X132159062Y-88372233D01*
X132157141Y-88391742D01*
X128142856Y-88391742D01*
X128142856Y-88106028D01*
X128140935Y-88086519D01*
X128126003Y-88050471D01*
X128098413Y-88022881D01*
X128062365Y-88007949D01*
X128042856Y-88006028D01*
X127542856Y-88006028D01*
X127523347Y-88007949D01*
X127520026Y-88009324D01*
X127516443Y-88009579D01*
X127498134Y-88016585D01*
X127355277Y-88088014D01*
X127346882Y-88093298D01*
X127344442Y-88094309D01*
X127341695Y-88096563D01*
X127338687Y-88098457D01*
X127336955Y-88100453D01*
X127329289Y-88106746D01*
X127257860Y-88178174D01*
X127251567Y-88185840D01*
X127249570Y-88187573D01*
X127247676Y-88190581D01*
X127245423Y-88193327D01*
X127244412Y-88195767D01*
X127239127Y-88204164D01*
X127167698Y-88347020D01*
X127160692Y-88365329D01*
X127160437Y-88368912D01*
X127159062Y-88372233D01*
X127157141Y-88391742D01*
X127157141Y-88534600D01*
X127159062Y-88554109D01*
X127160437Y-88557429D01*
X127160692Y-88561013D01*
X127167698Y-88579322D01*
X127239127Y-88722178D01*
X127244412Y-88730574D01*
X127245423Y-88733015D01*
X127247676Y-88735760D01*
X127249570Y-88738769D01*
X127251567Y-88740501D01*
X127257860Y-88748168D01*
X127304161Y-88794469D01*
X127296947Y-88796874D01*
X127279047Y-88804865D01*
X127276331Y-88807220D01*
X127273013Y-88808595D01*
X127257859Y-88821031D01*
X127186430Y-88892460D01*
X127180138Y-88900126D01*
X127178141Y-88901859D01*
X127176245Y-88904870D01*
X127173994Y-88907614D01*
X127172984Y-88910051D01*
X127167698Y-88918450D01*
X127096270Y-89061307D01*
X127089264Y-89079615D01*
X127089009Y-89083198D01*
X127087634Y-89086519D01*
X127085713Y-89106028D01*
X125184278Y-89106028D01*
X124773115Y-88694865D01*
X124714284Y-88518372D01*
X124714284Y-88415350D01*
X124767899Y-88308119D01*
X124816375Y-88259643D01*
X124923606Y-88206028D01*
X125233534Y-88206028D01*
X125340763Y-88259643D01*
X125400716Y-88319595D01*
X125415869Y-88332032D01*
X125451918Y-88346963D01*
X125490936Y-88346963D01*
X125526984Y-88332032D01*
X125554574Y-88304442D01*
X125569505Y-88268394D01*
X125569505Y-88229376D01*
X125554574Y-88193327D01*
X125542137Y-88178174D01*
X125470710Y-88106746D01*
X125463043Y-88100454D01*
X125461311Y-88098457D01*
X125458299Y-88096561D01*
X125455556Y-88094310D01*
X125453118Y-88093300D01*
X125444720Y-88088014D01*
X125301864Y-88016585D01*
X125283555Y-88009579D01*
X125279971Y-88009324D01*
X125276651Y-88007949D01*
X125257142Y-88006028D01*
X124899999Y-88006028D01*
X124880490Y-88007949D01*
X124877169Y-88009324D01*
X124873586Y-88009579D01*
X124855277Y-88016585D01*
X124712420Y-88088014D01*
X124704025Y-88093298D01*
X124701585Y-88094309D01*
X124698838Y-88096563D01*
X124695830Y-88098457D01*
X124694098Y-88100453D01*
X124686432Y-88106746D01*
X124615003Y-88178174D01*
X124608710Y-88185840D01*
X124606713Y-88187573D01*
X124604819Y-88190581D01*
X124602566Y-88193327D01*
X124601555Y-88195767D01*
X124596270Y-88204164D01*
X124524841Y-88347020D01*
X124517835Y-88365329D01*
X124517580Y-88368912D01*
X124516205Y-88372233D01*
X124514284Y-88391742D01*
X124142856Y-88391742D01*
X124140935Y-88372233D01*
X124139559Y-88368912D01*
X124139305Y-88365330D01*
X124132299Y-88347021D01*
X124060871Y-88204164D01*
X124055586Y-88195768D01*
X124054575Y-88193327D01*
X124052319Y-88190579D01*
X124050428Y-88187574D01*
X124048433Y-88185843D01*
X124042138Y-88178174D01*
X123970709Y-88106746D01*
X123963042Y-88100453D01*
X123961311Y-88098457D01*
X123958303Y-88096563D01*
X123955556Y-88094309D01*
X123953114Y-88093297D01*
X123944720Y-88088014D01*
X123801864Y-88016585D01*
X123783555Y-88009579D01*
X123779971Y-88009324D01*
X123776651Y-88007949D01*
X123757142Y-88006028D01*
X123471428Y-88006028D01*
X123451919Y-88007949D01*
X123448598Y-88009324D01*
X123445015Y-88009579D01*
X123426706Y-88016585D01*
X123283849Y-88088014D01*
X123275454Y-88093298D01*
X123273014Y-88094309D01*
X123270267Y-88096563D01*
X123267259Y-88098457D01*
X123265527Y-88100453D01*
X123257861Y-88106746D01*
X123186432Y-88178174D01*
X123180139Y-88185840D01*
X123178142Y-88187573D01*
X123176248Y-88190581D01*
X123173995Y-88193327D01*
X123172984Y-88195767D01*
X123167699Y-88204164D01*
X123096270Y-88347020D01*
X123089264Y-88365329D01*
X123089009Y-88368912D01*
X123087634Y-88372233D01*
X123085713Y-88391742D01*
X121202674Y-88391742D01*
X121123082Y-88206028D01*
X121971428Y-88206028D01*
X121990937Y-88204107D01*
X122026985Y-88189175D01*
X122054575Y-88161585D01*
X122069507Y-88125537D01*
X122069507Y-88086519D01*
X122054575Y-88050471D01*
X122026985Y-88022881D01*
X121990937Y-88007949D01*
X121971428Y-88006028D01*
X120971428Y-88006028D01*
X120951919Y-88007949D01*
X120951345Y-88008186D01*
X120950724Y-88008194D01*
X120933302Y-88015660D01*
X120915871Y-88022881D01*
X120915433Y-88023318D01*
X120914861Y-88023564D01*
X120901639Y-88037112D01*
X120888281Y-88050471D01*
X120888043Y-88051045D01*
X120887610Y-88051489D01*
X120880596Y-88069021D01*
X120873349Y-88086519D01*
X120873349Y-88087141D01*
X120873119Y-88087716D01*
X119729839Y-88087716D01*
X119587579Y-88016585D01*
X119569270Y-88009579D01*
X119565686Y-88009324D01*
X119562366Y-88007949D01*
X119542857Y-88006028D01*
X119185714Y-88006028D01*
X119166205Y-88007949D01*
X119162884Y-88009324D01*
X119159301Y-88009579D01*
X119140992Y-88016585D01*
X118998135Y-88088014D01*
X118989740Y-88093298D01*
X118987300Y-88094309D01*
X118984553Y-88096563D01*
X118981545Y-88098457D01*
X118979813Y-88100453D01*
X118972147Y-88106746D01*
X118900718Y-88178174D01*
X118894425Y-88185840D01*
X118892428Y-88187573D01*
X118890534Y-88190581D01*
X118888281Y-88193327D01*
X118887270Y-88195767D01*
X118881985Y-88204164D01*
X118810556Y-88347020D01*
X118803550Y-88365329D01*
X118803295Y-88368912D01*
X118801920Y-88372233D01*
X118799999Y-88391742D01*
X118360220Y-88391742D01*
X118354157Y-88367489D01*
X118353643Y-88366051D01*
X118353592Y-88365329D01*
X118350480Y-88357198D01*
X118347562Y-88349028D01*
X118347132Y-88348448D01*
X118346586Y-88347020D01*
X118275157Y-88204163D01*
X118269871Y-88195765D01*
X118268861Y-88193327D01*
X118266608Y-88190582D01*
X118264714Y-88187573D01*
X118262716Y-88185840D01*
X118256424Y-88178174D01*
X118184997Y-88106746D01*
X118177330Y-88100454D01*
X118175598Y-88098457D01*
X118172586Y-88096561D01*
X118169843Y-88094310D01*
X118167405Y-88093300D01*
X118159007Y-88088014D01*
X118016149Y-88016585D01*
X117997841Y-88009579D01*
X117994257Y-88009324D01*
X117990937Y-88007949D01*
X117971428Y-88006028D01*
X117828571Y-88006028D01*
X117809062Y-88007949D01*
X117805741Y-88009324D01*
X117802158Y-88009579D01*
X117783849Y-88016585D01*
X117640992Y-88088014D01*
X117632594Y-88093299D01*
X117630156Y-88094310D01*
X117627411Y-88096562D01*
X117624402Y-88098457D01*
X117622669Y-88100454D01*
X117615003Y-88106747D01*
X117543575Y-88178174D01*
X117537283Y-88185840D01*
X117535286Y-88187573D01*
X117533390Y-88190584D01*
X117531139Y-88193328D01*
X117530129Y-88195765D01*
X117524843Y-88204164D01*
X117453414Y-88347020D01*
X117452867Y-88348448D01*
X117452438Y-88349028D01*
X117449519Y-88357198D01*
X117446408Y-88365329D01*
X117446356Y-88366051D01*
X117445843Y-88367489D01*
X117374414Y-88653203D01*
X117373913Y-88656584D01*
X117373349Y-88657948D01*
X117372625Y-88665298D01*
X117371546Y-88672596D01*
X117371763Y-88674054D01*
X117371428Y-88677457D01*
X116195885Y-88677457D01*
X116142857Y-88518372D01*
X116142857Y-88415350D01*
X116196472Y-88308119D01*
X116244948Y-88259643D01*
X116352179Y-88206028D01*
X116662107Y-88206028D01*
X116769336Y-88259643D01*
X116829289Y-88319595D01*
X116844442Y-88332032D01*
X116880491Y-88346963D01*
X116919509Y-88346963D01*
X116955557Y-88332032D01*
X116983147Y-88304442D01*
X116998078Y-88268394D01*
X116998078Y-88229376D01*
X116983147Y-88193327D01*
X116970710Y-88178174D01*
X116899283Y-88106746D01*
X116891616Y-88100454D01*
X116889884Y-88098457D01*
X116886872Y-88096561D01*
X116884129Y-88094310D01*
X116881691Y-88093300D01*
X116873293Y-88088014D01*
X116730437Y-88016585D01*
X116712128Y-88009579D01*
X116708544Y-88009324D01*
X116705224Y-88007949D01*
X116685715Y-88006028D01*
X116328572Y-88006028D01*
X116309063Y-88007949D01*
X116305742Y-88009324D01*
X116302159Y-88009579D01*
X116283850Y-88016585D01*
X116140993Y-88088014D01*
X116132598Y-88093298D01*
X116130158Y-88094309D01*
X116127411Y-88096563D01*
X116124403Y-88098457D01*
X116122671Y-88100453D01*
X116115005Y-88106746D01*
X116043576Y-88178174D01*
X116037283Y-88185840D01*
X116035286Y-88187573D01*
X116033392Y-88190581D01*
X116031139Y-88193327D01*
X116030128Y-88195767D01*
X116024843Y-88204164D01*
X115953414Y-88347020D01*
X115946408Y-88365329D01*
X115946153Y-88368912D01*
X115944778Y-88372233D01*
X115942857Y-88391742D01*
X115472567Y-88391742D01*
X115340349Y-88193415D01*
X115340305Y-88193361D01*
X115340291Y-88193327D01*
X115334146Y-88185841D01*
X115327929Y-88178248D01*
X115327897Y-88178226D01*
X115327854Y-88178174D01*
X115256425Y-88106746D01*
X115248758Y-88100453D01*
X115247027Y-88098457D01*
X115244019Y-88096563D01*
X115241272Y-88094309D01*
X115238830Y-88093297D01*
X115230436Y-88088014D01*
X115087580Y-88016585D01*
X115069271Y-88009579D01*
X115065687Y-88009324D01*
X115062367Y-88007949D01*
X115042858Y-88006028D01*
X114757144Y-88006028D01*
X114737635Y-88007949D01*
X114701587Y-88022881D01*
X114673997Y-88050471D01*
X114659065Y-88086519D01*
X114659065Y-88125537D01*
X114673997Y-88161585D01*
X114701587Y-88189175D01*
X114737635Y-88204107D01*
X114757144Y-88206028D01*
X115019250Y-88206028D01*
X115126481Y-88259644D01*
X115179431Y-88312593D01*
X115307188Y-88504229D01*
X115342091Y-88643841D01*
X115230436Y-88588014D01*
X115212128Y-88581008D01*
X115208544Y-88580753D01*
X115205224Y-88579378D01*
X115185715Y-88577457D01*
X114900001Y-88577457D01*
X114880492Y-88579378D01*
X114877171Y-88580753D01*
X114873589Y-88581008D01*
X114855280Y-88588014D01*
X114712423Y-88659442D01*
X114704026Y-88664727D01*
X114701587Y-88665738D01*
X114698840Y-88667991D01*
X114695833Y-88669885D01*
X114694103Y-88671879D01*
X114686433Y-88678174D01*
X114615004Y-88749603D01*
X114608712Y-88757269D01*
X114606715Y-88759002D01*
X114604819Y-88762013D01*
X114602568Y-88764757D01*
X114601558Y-88767194D01*
X114596272Y-88775593D01*
X114524843Y-88918449D01*
X114517837Y-88936758D01*
X114517582Y-88940341D01*
X114516207Y-88943662D01*
X114514286Y-88963171D01*
X114347619Y-88963171D01*
X114347619Y-86171603D01*
X116194777Y-86171603D01*
X116194777Y-86210621D01*
X116209709Y-86246669D01*
X116237299Y-86274259D01*
X116273347Y-86289191D01*
X116292856Y-86291112D01*
X116412106Y-86291112D01*
X116519334Y-86344726D01*
X116567812Y-86393203D01*
X116621428Y-86500433D01*
X116621428Y-87191112D01*
X116623349Y-87210621D01*
X116638281Y-87246669D01*
X116665871Y-87274259D01*
X116701919Y-87289191D01*
X116740937Y-87289191D01*
X116776985Y-87274259D01*
X116804575Y-87246669D01*
X116819507Y-87210621D01*
X116821428Y-87191112D01*
X116821428Y-86405398D01*
X117264285Y-86405398D01*
X117264285Y-86548255D01*
X117266206Y-86567764D01*
X117269955Y-86576816D01*
X117271857Y-86586427D01*
X117277349Y-86594665D01*
X117281138Y-86603812D01*
X117288064Y-86610738D01*
X117293500Y-86618892D01*
X117301728Y-86624402D01*
X117308728Y-86631402D01*
X117317779Y-86635151D01*
X117325920Y-86640603D01*
X117344673Y-86646313D01*
X117344774Y-86646333D01*
X117344776Y-86646334D01*
X117344778Y-86646334D01*
X117978570Y-86773092D01*
X117978570Y-86953219D01*
X117932606Y-87045148D01*
X117840678Y-87091112D01*
X117602177Y-87091112D01*
X117480434Y-87030241D01*
X117462126Y-87023235D01*
X117423205Y-87020469D01*
X117386190Y-87032808D01*
X117356713Y-87058373D01*
X117339264Y-87093271D01*
X117336498Y-87132192D01*
X117348837Y-87169207D01*
X117374402Y-87198684D01*
X117390992Y-87209127D01*
X117533849Y-87280555D01*
X117552158Y-87287561D01*
X117555740Y-87287815D01*
X117559061Y-87289191D01*
X117578570Y-87291112D01*
X117864285Y-87291112D01*
X117883794Y-87289191D01*
X117887114Y-87287815D01*
X117890698Y-87287561D01*
X117909006Y-87280555D01*
X118051863Y-87209127D01*
X118055125Y-87207073D01*
X118056666Y-87206560D01*
X118058583Y-87204896D01*
X118068454Y-87198684D01*
X118076670Y-87189209D01*
X118086142Y-87180995D01*
X118092355Y-87171123D01*
X118094018Y-87169207D01*
X118094531Y-87167668D01*
X118096585Y-87164405D01*
X118168013Y-87021547D01*
X118175020Y-87003238D01*
X118175274Y-86999652D01*
X118176649Y-86996335D01*
X118178570Y-86976826D01*
X118178570Y-86691222D01*
X118178571Y-86691217D01*
X118178570Y-86691211D01*
X118178570Y-86476826D01*
X118549999Y-86476826D01*
X118549999Y-86905398D01*
X118551920Y-86924907D01*
X118553295Y-86928227D01*
X118553550Y-86931811D01*
X118560556Y-86950120D01*
X118631985Y-87092976D01*
X118637268Y-87101370D01*
X118638280Y-87103812D01*
X118640534Y-87106559D01*
X118642428Y-87109567D01*
X118644424Y-87111298D01*
X118650717Y-87118965D01*
X118722145Y-87190394D01*
X118729814Y-87196689D01*
X118731545Y-87198684D01*
X118734550Y-87200575D01*
X118737298Y-87202831D01*
X118739739Y-87203842D01*
X118748135Y-87209127D01*
X118890992Y-87280555D01*
X118909301Y-87287561D01*
X118912883Y-87287815D01*
X118916204Y-87289191D01*
X118935713Y-87291112D01*
X119221428Y-87291112D01*
X119240937Y-87289191D01*
X119244257Y-87287815D01*
X119247841Y-87287561D01*
X119264285Y-87281268D01*
X119264285Y-87691112D01*
X119266206Y-87710621D01*
X119281138Y-87746669D01*
X119308728Y-87774259D01*
X119344776Y-87789191D01*
X119383794Y-87789191D01*
X119419842Y-87774259D01*
X119447432Y-87746669D01*
X119462364Y-87710621D01*
X119464285Y-87691112D01*
X119464285Y-86476826D01*
X119907142Y-86476826D01*
X119907142Y-86905398D01*
X119909063Y-86924907D01*
X119910438Y-86928227D01*
X119910693Y-86931811D01*
X119917699Y-86950120D01*
X119989128Y-87092976D01*
X119994411Y-87101370D01*
X119995423Y-87103812D01*
X119997677Y-87106559D01*
X119999571Y-87109567D01*
X120001567Y-87111298D01*
X120007860Y-87118965D01*
X120079288Y-87190394D01*
X120086957Y-87196689D01*
X120088688Y-87198684D01*
X120091693Y-87200575D01*
X120094441Y-87202831D01*
X120096882Y-87203842D01*
X120105278Y-87209127D01*
X120248135Y-87280555D01*
X120266444Y-87287561D01*
X120270026Y-87287815D01*
X120273347Y-87289191D01*
X120292856Y-87291112D01*
X120578571Y-87291112D01*
X120598080Y-87289191D01*
X120601400Y-87287815D01*
X120604984Y-87287561D01*
X120621428Y-87281268D01*
X120621428Y-87691112D01*
X120623349Y-87710621D01*
X120638281Y-87746669D01*
X120665871Y-87774259D01*
X120701919Y-87789191D01*
X120740937Y-87789191D01*
X120776985Y-87774259D01*
X120804575Y-87746669D01*
X120819507Y-87710621D01*
X120821428Y-87691112D01*
X120821428Y-86405398D01*
X121335713Y-86405398D01*
X121335713Y-87191112D01*
X121337634Y-87210621D01*
X121352566Y-87246669D01*
X121380156Y-87274259D01*
X121416204Y-87289191D01*
X121455222Y-87289191D01*
X121491270Y-87274259D01*
X121518860Y-87246669D01*
X121533792Y-87210621D01*
X121535713Y-87191112D01*
X121535713Y-86429006D01*
X121581678Y-86337076D01*
X121673606Y-86291112D01*
X121840677Y-86291112D01*
X121932606Y-86337077D01*
X121978571Y-86429005D01*
X121978571Y-87191112D01*
X121980492Y-87210621D01*
X121995424Y-87246669D01*
X122023014Y-87274259D01*
X122059062Y-87289191D01*
X122098080Y-87289191D01*
X122134128Y-87274259D01*
X122161718Y-87246669D01*
X122176650Y-87210621D01*
X122178571Y-87191112D01*
X122178571Y-86429004D01*
X122224534Y-86337076D01*
X122316463Y-86291112D01*
X122483534Y-86291112D01*
X122590765Y-86344728D01*
X122621428Y-86375390D01*
X122621428Y-87191112D01*
X122623349Y-87210621D01*
X122638281Y-87246669D01*
X122665871Y-87274259D01*
X122701919Y-87289191D01*
X122740937Y-87289191D01*
X122776985Y-87274259D01*
X122804575Y-87246669D01*
X122819507Y-87210621D01*
X122821428Y-87191112D01*
X122821428Y-86476826D01*
X123264285Y-86476826D01*
X123264285Y-86905398D01*
X123266206Y-86924907D01*
X123267581Y-86928227D01*
X123267836Y-86931811D01*
X123274842Y-86950120D01*
X123346271Y-87092976D01*
X123351554Y-87101370D01*
X123352566Y-87103812D01*
X123354820Y-87106559D01*
X123356714Y-87109567D01*
X123358710Y-87111298D01*
X123365003Y-87118965D01*
X123436431Y-87190394D01*
X123444100Y-87196689D01*
X123445831Y-87198684D01*
X123448836Y-87200575D01*
X123451584Y-87202831D01*
X123454025Y-87203842D01*
X123462421Y-87209127D01*
X123605278Y-87280555D01*
X123623587Y-87287561D01*
X123627169Y-87287815D01*
X123630490Y-87289191D01*
X123649999Y-87291112D01*
X123864285Y-87291112D01*
X123883794Y-87289191D01*
X123887114Y-87287815D01*
X123890698Y-87287561D01*
X123909006Y-87280555D01*
X124051863Y-87209127D01*
X124060261Y-87203840D01*
X124062699Y-87202831D01*
X124065442Y-87200579D01*
X124068454Y-87198684D01*
X124070186Y-87196686D01*
X124077853Y-87190395D01*
X124149282Y-87118966D01*
X124155576Y-87111295D01*
X124157571Y-87109566D01*
X124159464Y-87106558D01*
X124161718Y-87103812D01*
X124162728Y-87101372D01*
X124168014Y-87092976D01*
X124239442Y-86950119D01*
X124246448Y-86931810D01*
X124246702Y-86928227D01*
X124248078Y-86924907D01*
X124249999Y-86905398D01*
X124249999Y-86548255D01*
X124621428Y-86548255D01*
X124621428Y-87048255D01*
X124623349Y-87067763D01*
X124638280Y-87103812D01*
X124650717Y-87118965D01*
X124722145Y-87190394D01*
X124737298Y-87202831D01*
X124740617Y-87204206D01*
X124743333Y-87206561D01*
X124761233Y-87214552D01*
X124975519Y-87285980D01*
X124985190Y-87288179D01*
X124987633Y-87289191D01*
X124991171Y-87289539D01*
X124994635Y-87290327D01*
X124997268Y-87290139D01*
X125007142Y-87291112D01*
X125149999Y-87291112D01*
X125159872Y-87290139D01*
X125162506Y-87290327D01*
X125165969Y-87289539D01*
X125169508Y-87289191D01*
X125171950Y-87288179D01*
X125181622Y-87285980D01*
X125395907Y-87214552D01*
X125413808Y-87206561D01*
X125416523Y-87204205D01*
X125419843Y-87202831D01*
X125434996Y-87190394D01*
X125577853Y-87047536D01*
X125584143Y-87039871D01*
X125586142Y-87038138D01*
X125588038Y-87035125D01*
X125590289Y-87032383D01*
X125591298Y-87029946D01*
X125596585Y-87021548D01*
X125668014Y-86878691D01*
X125668560Y-86877262D01*
X125668990Y-86876683D01*
X125671908Y-86868512D01*
X125675020Y-86860382D01*
X125675071Y-86859659D01*
X125675585Y-86858222D01*
X125747013Y-86572509D01*
X125747513Y-86569127D01*
X125748078Y-86567764D01*
X125748801Y-86560413D01*
X125749881Y-86553116D01*
X125749663Y-86551657D01*
X125749999Y-86548255D01*
X125749999Y-86333969D01*
X125749663Y-86330566D01*
X125749881Y-86329108D01*
X125748801Y-86321810D01*
X125748078Y-86314460D01*
X125747513Y-86313096D01*
X125747013Y-86309715D01*
X125719284Y-86198797D01*
X127193153Y-86198797D01*
X127203683Y-86236367D01*
X127214225Y-86252894D01*
X127558539Y-86691112D01*
X127214225Y-87129330D01*
X127203683Y-87145857D01*
X127193153Y-87183427D01*
X127197802Y-87222168D01*
X127216921Y-87256180D01*
X127247602Y-87280286D01*
X127285172Y-87290816D01*
X127323913Y-87286167D01*
X127357925Y-87267048D01*
X127371489Y-87252894D01*
X127685714Y-86852971D01*
X127999939Y-87252894D01*
X128013503Y-87267047D01*
X128047515Y-87286167D01*
X128086255Y-87290816D01*
X128123826Y-87280286D01*
X128154506Y-87256180D01*
X128173626Y-87222167D01*
X128178275Y-87183427D01*
X128167745Y-87145857D01*
X128157203Y-87129330D01*
X127812888Y-86691112D01*
X128037378Y-86405398D01*
X128478571Y-86405398D01*
X128478571Y-86548255D01*
X128480492Y-86567764D01*
X128484241Y-86576816D01*
X128486143Y-86586427D01*
X128491635Y-86594665D01*
X128495424Y-86603812D01*
X128502350Y-86610738D01*
X128507786Y-86618892D01*
X128516014Y-86624402D01*
X128523014Y-86631402D01*
X128532065Y-86635151D01*
X128540206Y-86640603D01*
X128558959Y-86646313D01*
X128559060Y-86646333D01*
X128559062Y-86646334D01*
X128559064Y-86646334D01*
X129192856Y-86773092D01*
X129192856Y-86953219D01*
X129146892Y-87045148D01*
X129054964Y-87091112D01*
X128816463Y-87091112D01*
X128694720Y-87030241D01*
X128676412Y-87023235D01*
X128637491Y-87020469D01*
X128600476Y-87032808D01*
X128570999Y-87058373D01*
X128553550Y-87093271D01*
X128550784Y-87132192D01*
X128563123Y-87169207D01*
X128588688Y-87198684D01*
X128605278Y-87209127D01*
X128748135Y-87280555D01*
X128766444Y-87287561D01*
X128770026Y-87287815D01*
X128773347Y-87289191D01*
X128792856Y-87291112D01*
X129078571Y-87291112D01*
X129098080Y-87289191D01*
X129101400Y-87287815D01*
X129104984Y-87287561D01*
X129123292Y-87280555D01*
X129266149Y-87209127D01*
X129269411Y-87207073D01*
X129270952Y-87206560D01*
X129272869Y-87204896D01*
X129282740Y-87198684D01*
X129290956Y-87189209D01*
X129300428Y-87180995D01*
X129301933Y-87178604D01*
X129693641Y-87178604D01*
X129696407Y-87217525D01*
X129713856Y-87252423D01*
X129743333Y-87277988D01*
X129780348Y-87290327D01*
X129819269Y-87287561D01*
X129837577Y-87280555D01*
X129980434Y-87209127D01*
X129983697Y-87207072D01*
X129985236Y-87206560D01*
X129987151Y-87204898D01*
X129997025Y-87198684D01*
X130005240Y-87189211D01*
X130014713Y-87180996D01*
X130016218Y-87178605D01*
X130407926Y-87178605D01*
X130410692Y-87217525D01*
X130428142Y-87252424D01*
X130457618Y-87277989D01*
X130494634Y-87290327D01*
X130533554Y-87287561D01*
X130568453Y-87270111D01*
X130594018Y-87240635D01*
X130602009Y-87222735D01*
X130722074Y-86862541D01*
X131292208Y-86862541D01*
X131412273Y-87222735D01*
X131420264Y-87240635D01*
X131445830Y-87270112D01*
X131480728Y-87287561D01*
X131519648Y-87290327D01*
X131556664Y-87277989D01*
X131586140Y-87252424D01*
X131603590Y-87217525D01*
X131606356Y-87178605D01*
X131602009Y-87159489D01*
X131102009Y-85659489D01*
X131094018Y-85641589D01*
X131089334Y-85636189D01*
X131086140Y-85629800D01*
X131076668Y-85621584D01*
X131068453Y-85612113D01*
X131062063Y-85608918D01*
X131056664Y-85604235D01*
X131044766Y-85600269D01*
X131033554Y-85594663D01*
X131026426Y-85594156D01*
X131019648Y-85591897D01*
X131007141Y-85592785D01*
X130994634Y-85591897D01*
X130987855Y-85594156D01*
X130980728Y-85594663D01*
X130969514Y-85600269D01*
X130957618Y-85604235D01*
X130952219Y-85608917D01*
X130945830Y-85612112D01*
X130937614Y-85621584D01*
X130928142Y-85629800D01*
X130924947Y-85636189D01*
X130920264Y-85641589D01*
X130912273Y-85659489D01*
X130412273Y-87159489D01*
X130407926Y-87178605D01*
X130016218Y-87178605D01*
X130020927Y-87171122D01*
X130022589Y-87169207D01*
X130023101Y-87167668D01*
X130025156Y-87164405D01*
X130096585Y-87021547D01*
X130103591Y-87003239D01*
X130103845Y-86999655D01*
X130105221Y-86996335D01*
X130107142Y-86976826D01*
X130107142Y-85691112D01*
X130105221Y-85671603D01*
X130090289Y-85635555D01*
X130062699Y-85607965D01*
X130026651Y-85593033D01*
X129987633Y-85593033D01*
X129951585Y-85607965D01*
X129923995Y-85635555D01*
X129909063Y-85671603D01*
X129907142Y-85691112D01*
X129907142Y-86953219D01*
X129861177Y-87045148D01*
X129748135Y-87101669D01*
X129731545Y-87112112D01*
X129705980Y-87141589D01*
X129693641Y-87178604D01*
X129301933Y-87178604D01*
X129306641Y-87171123D01*
X129308304Y-87169207D01*
X129308817Y-87167668D01*
X129310871Y-87164405D01*
X129382299Y-87021547D01*
X129389306Y-87003238D01*
X129389560Y-86999652D01*
X129390935Y-86996335D01*
X129392856Y-86976826D01*
X129392856Y-86691222D01*
X129392857Y-86691217D01*
X129392856Y-86691211D01*
X129392856Y-86405398D01*
X129390935Y-86385889D01*
X129389559Y-86382568D01*
X129389305Y-86378986D01*
X129382299Y-86360677D01*
X129310871Y-86217820D01*
X129308817Y-86214556D01*
X129308304Y-86213018D01*
X129306641Y-86211101D01*
X129300428Y-86201230D01*
X129290957Y-86193016D01*
X129282740Y-86183541D01*
X129272866Y-86177326D01*
X129270951Y-86175665D01*
X129269412Y-86175152D01*
X129266149Y-86173098D01*
X129123293Y-86101669D01*
X129104984Y-86094663D01*
X129101400Y-86094408D01*
X129098080Y-86093033D01*
X129078571Y-86091112D01*
X128792856Y-86091112D01*
X128773347Y-86093033D01*
X128770026Y-86094408D01*
X128766443Y-86094663D01*
X128748134Y-86101669D01*
X128605277Y-86173098D01*
X128602012Y-86175152D01*
X128600476Y-86175665D01*
X128598561Y-86177324D01*
X128588687Y-86183541D01*
X128580471Y-86193013D01*
X128570999Y-86201229D01*
X128564784Y-86211102D01*
X128563123Y-86213018D01*
X128562610Y-86214556D01*
X128560556Y-86217820D01*
X128489128Y-86360677D01*
X128482122Y-86378985D01*
X128481867Y-86382568D01*
X128480492Y-86385889D01*
X128478571Y-86405398D01*
X128037378Y-86405398D01*
X128157203Y-86252894D01*
X128167745Y-86236367D01*
X128178275Y-86198797D01*
X128173626Y-86160057D01*
X128154506Y-86126044D01*
X128123826Y-86101938D01*
X128086255Y-86091408D01*
X128047515Y-86096057D01*
X128013503Y-86115177D01*
X127999939Y-86129330D01*
X127685714Y-86529252D01*
X127371489Y-86129330D01*
X127357925Y-86115176D01*
X127323913Y-86096057D01*
X127285172Y-86091408D01*
X127247602Y-86101938D01*
X127216921Y-86126044D01*
X127197802Y-86160056D01*
X127193153Y-86198797D01*
X125719284Y-86198797D01*
X125675585Y-86024002D01*
X125675071Y-86022564D01*
X125675020Y-86021842D01*
X125671908Y-86013711D01*
X125668990Y-86005541D01*
X125668560Y-86004961D01*
X125668014Y-86003533D01*
X125596585Y-85860676D01*
X125591299Y-85852278D01*
X125590289Y-85849840D01*
X125588036Y-85847095D01*
X125586142Y-85844086D01*
X125584144Y-85842353D01*
X125577852Y-85834687D01*
X125434996Y-85691830D01*
X125419842Y-85679394D01*
X125416523Y-85678019D01*
X125413808Y-85675664D01*
X125395908Y-85667673D01*
X125181622Y-85596244D01*
X125171949Y-85594044D01*
X125169508Y-85593033D01*
X125165970Y-85592684D01*
X125162507Y-85591897D01*
X125159872Y-85592084D01*
X125149999Y-85591112D01*
X124935714Y-85591112D01*
X124916205Y-85593033D01*
X124912884Y-85594408D01*
X124909301Y-85594663D01*
X124890993Y-85601669D01*
X124748135Y-85673098D01*
X124731544Y-85683541D01*
X124705980Y-85713018D01*
X124693641Y-85750034D01*
X124696407Y-85788954D01*
X124713856Y-85823853D01*
X124743333Y-85849417D01*
X124780349Y-85861756D01*
X124819269Y-85858990D01*
X124837577Y-85851984D01*
X124959321Y-85791112D01*
X125133772Y-85791112D01*
X125310265Y-85849943D01*
X125424955Y-85964632D01*
X125484220Y-86083160D01*
X125549999Y-86346277D01*
X125549999Y-86535946D01*
X125484220Y-86799063D01*
X125424955Y-86917591D01*
X125310266Y-87032280D01*
X125133772Y-87091112D01*
X125023368Y-87091112D01*
X124846874Y-87032281D01*
X124821428Y-87006834D01*
X124821428Y-86648255D01*
X125007142Y-86648255D01*
X125026651Y-86646334D01*
X125062699Y-86631402D01*
X125090289Y-86603812D01*
X125105221Y-86567764D01*
X125105221Y-86528746D01*
X125090289Y-86492698D01*
X125062699Y-86465108D01*
X125026651Y-86450176D01*
X125007142Y-86448255D01*
X124721428Y-86448255D01*
X124701919Y-86450176D01*
X124665871Y-86465108D01*
X124638281Y-86492698D01*
X124623349Y-86528746D01*
X124621428Y-86548255D01*
X124249999Y-86548255D01*
X124249999Y-86476826D01*
X124248078Y-86457317D01*
X124246702Y-86453996D01*
X124246448Y-86450414D01*
X124239442Y-86432105D01*
X124168014Y-86289248D01*
X124162729Y-86280852D01*
X124161718Y-86278411D01*
X124159462Y-86275663D01*
X124157571Y-86272658D01*
X124155576Y-86270927D01*
X124149281Y-86263258D01*
X124077852Y-86191830D01*
X124070185Y-86185537D01*
X124068454Y-86183541D01*
X124065446Y-86181647D01*
X124062699Y-86179393D01*
X124060257Y-86178381D01*
X124051863Y-86173098D01*
X123909007Y-86101669D01*
X123890698Y-86094663D01*
X123887114Y-86094408D01*
X123883794Y-86093033D01*
X123864285Y-86091112D01*
X123649999Y-86091112D01*
X123630490Y-86093033D01*
X123627169Y-86094408D01*
X123623586Y-86094663D01*
X123605277Y-86101669D01*
X123462420Y-86173098D01*
X123454022Y-86178383D01*
X123451584Y-86179394D01*
X123448839Y-86181646D01*
X123445830Y-86183541D01*
X123444097Y-86185538D01*
X123436431Y-86191831D01*
X123365003Y-86263258D01*
X123358711Y-86270924D01*
X123356714Y-86272657D01*
X123354818Y-86275668D01*
X123352567Y-86278412D01*
X123351557Y-86280849D01*
X123346271Y-86289248D01*
X123274842Y-86432104D01*
X123267836Y-86450413D01*
X123267581Y-86453996D01*
X123266206Y-86457317D01*
X123264285Y-86476826D01*
X122821428Y-86476826D01*
X122821428Y-86191112D01*
X122819507Y-86171603D01*
X122804575Y-86135555D01*
X122776985Y-86107965D01*
X122740937Y-86093033D01*
X122701919Y-86093033D01*
X122665871Y-86107965D01*
X122638281Y-86135555D01*
X122635081Y-86143278D01*
X122551864Y-86101669D01*
X122533555Y-86094663D01*
X122529971Y-86094408D01*
X122526651Y-86093033D01*
X122507142Y-86091112D01*
X122292856Y-86091112D01*
X122273347Y-86093033D01*
X122270026Y-86094408D01*
X122266443Y-86094663D01*
X122248134Y-86101669D01*
X122105277Y-86173098D01*
X122102012Y-86175152D01*
X122100476Y-86175665D01*
X122098561Y-86177324D01*
X122088687Y-86183541D01*
X122080471Y-86193013D01*
X122078570Y-86194662D01*
X122076669Y-86193013D01*
X122068454Y-86183541D01*
X122058580Y-86177326D01*
X122056665Y-86175665D01*
X122055126Y-86175152D01*
X122051863Y-86173098D01*
X121909007Y-86101669D01*
X121890698Y-86094663D01*
X121887114Y-86094408D01*
X121883794Y-86093033D01*
X121864285Y-86091112D01*
X121649999Y-86091112D01*
X121630490Y-86093033D01*
X121627169Y-86094408D01*
X121623586Y-86094663D01*
X121605277Y-86101669D01*
X121462420Y-86173098D01*
X121459155Y-86175152D01*
X121457619Y-86175665D01*
X121455704Y-86177324D01*
X121445830Y-86183541D01*
X121437614Y-86193013D01*
X121428142Y-86201229D01*
X121421927Y-86211102D01*
X121420266Y-86213018D01*
X121419753Y-86214556D01*
X121417699Y-86217820D01*
X121346270Y-86360676D01*
X121339264Y-86378985D01*
X121339009Y-86382568D01*
X121337634Y-86385889D01*
X121335713Y-86405398D01*
X120821428Y-86405398D01*
X120821428Y-86191112D01*
X120819507Y-86171603D01*
X120804575Y-86135555D01*
X120776985Y-86107965D01*
X120740937Y-86093033D01*
X120701919Y-86093033D01*
X120665871Y-86107965D01*
X120655875Y-86117960D01*
X120623293Y-86101669D01*
X120604984Y-86094663D01*
X120601400Y-86094408D01*
X120598080Y-86093033D01*
X120578571Y-86091112D01*
X120292856Y-86091112D01*
X120273347Y-86093033D01*
X120270026Y-86094408D01*
X120266443Y-86094663D01*
X120248134Y-86101669D01*
X120105277Y-86173098D01*
X120096879Y-86178383D01*
X120094441Y-86179394D01*
X120091696Y-86181646D01*
X120088687Y-86183541D01*
X120086954Y-86185538D01*
X120079288Y-86191831D01*
X120007860Y-86263258D01*
X120001568Y-86270924D01*
X119999571Y-86272657D01*
X119997675Y-86275668D01*
X119995424Y-86278412D01*
X119994414Y-86280849D01*
X119989128Y-86289248D01*
X119917699Y-86432104D01*
X119910693Y-86450413D01*
X119910438Y-86453996D01*
X119909063Y-86457317D01*
X119907142Y-86476826D01*
X119464285Y-86476826D01*
X119464285Y-86191112D01*
X119462364Y-86171603D01*
X119447432Y-86135555D01*
X119419842Y-86107965D01*
X119383794Y-86093033D01*
X119344776Y-86093033D01*
X119308728Y-86107965D01*
X119298732Y-86117960D01*
X119266150Y-86101669D01*
X119247841Y-86094663D01*
X119244257Y-86094408D01*
X119240937Y-86093033D01*
X119221428Y-86091112D01*
X118935713Y-86091112D01*
X118916204Y-86093033D01*
X118912883Y-86094408D01*
X118909300Y-86094663D01*
X118890991Y-86101669D01*
X118748134Y-86173098D01*
X118739736Y-86178383D01*
X118737298Y-86179394D01*
X118734553Y-86181646D01*
X118731544Y-86183541D01*
X118729811Y-86185538D01*
X118722145Y-86191831D01*
X118650717Y-86263258D01*
X118644425Y-86270924D01*
X118642428Y-86272657D01*
X118640532Y-86275668D01*
X118638281Y-86278412D01*
X118637271Y-86280849D01*
X118631985Y-86289248D01*
X118560556Y-86432104D01*
X118553550Y-86450413D01*
X118553295Y-86453996D01*
X118551920Y-86457317D01*
X118549999Y-86476826D01*
X118178570Y-86476826D01*
X118178570Y-86405398D01*
X118176649Y-86385889D01*
X118175273Y-86382568D01*
X118175019Y-86378986D01*
X118168013Y-86360677D01*
X118096585Y-86217820D01*
X118094531Y-86214556D01*
X118094018Y-86213018D01*
X118092355Y-86211101D01*
X118086142Y-86201230D01*
X118076671Y-86193016D01*
X118068454Y-86183541D01*
X118058580Y-86177326D01*
X118056665Y-86175665D01*
X118055126Y-86175152D01*
X118051863Y-86173098D01*
X117909007Y-86101669D01*
X117890698Y-86094663D01*
X117887114Y-86094408D01*
X117883794Y-86093033D01*
X117864285Y-86091112D01*
X117578570Y-86091112D01*
X117559061Y-86093033D01*
X117555740Y-86094408D01*
X117552157Y-86094663D01*
X117533848Y-86101669D01*
X117390991Y-86173098D01*
X117387726Y-86175152D01*
X117386190Y-86175665D01*
X117384275Y-86177324D01*
X117374401Y-86183541D01*
X117366185Y-86193013D01*
X117356713Y-86201229D01*
X117350498Y-86211102D01*
X117348837Y-86213018D01*
X117348324Y-86214556D01*
X117346270Y-86217820D01*
X117274842Y-86360677D01*
X117267836Y-86378985D01*
X117267581Y-86382568D01*
X117266206Y-86385889D01*
X117264285Y-86405398D01*
X116821428Y-86405398D01*
X116821428Y-86191112D01*
X116819507Y-86171603D01*
X116804575Y-86135555D01*
X116776985Y-86107965D01*
X116740937Y-86093033D01*
X116701919Y-86093033D01*
X116665871Y-86107965D01*
X116638281Y-86135555D01*
X116623349Y-86171603D01*
X116623206Y-86173055D01*
X116480434Y-86101669D01*
X116462126Y-86094663D01*
X116458542Y-86094408D01*
X116455222Y-86093033D01*
X116435713Y-86091112D01*
X116292856Y-86091112D01*
X116273347Y-86093033D01*
X116237299Y-86107965D01*
X116209709Y-86135555D01*
X116194777Y-86171603D01*
X114347619Y-86171603D01*
X114347619Y-84133339D01*
X115942856Y-84133339D01*
X115942856Y-84490482D01*
X115944777Y-84509991D01*
X115946152Y-84513311D01*
X115946407Y-84516895D01*
X115953413Y-84535204D01*
X116024842Y-84678060D01*
X116030128Y-84686458D01*
X116031138Y-84688896D01*
X116033389Y-84691639D01*
X116035285Y-84694651D01*
X116037282Y-84696383D01*
X116043574Y-84704050D01*
X116115003Y-84775479D01*
X116122673Y-84781773D01*
X116124403Y-84783768D01*
X116127410Y-84785661D01*
X116130157Y-84787915D01*
X116132596Y-84788925D01*
X116140993Y-84794211D01*
X116283850Y-84865639D01*
X116302159Y-84872645D01*
X116305741Y-84872899D01*
X116309062Y-84874275D01*
X116328571Y-84876196D01*
X116614285Y-84876196D01*
X116633794Y-84874275D01*
X116637114Y-84872899D01*
X116640698Y-84872645D01*
X116659006Y-84865639D01*
X116801863Y-84794211D01*
X116810261Y-84788924D01*
X116812699Y-84787915D01*
X116815442Y-84785663D01*
X116818454Y-84783768D01*
X116820186Y-84781770D01*
X116827853Y-84775479D01*
X116899282Y-84704050D01*
X116905576Y-84696379D01*
X116907571Y-84694650D01*
X116909464Y-84691642D01*
X116911718Y-84688896D01*
X116912728Y-84686456D01*
X116918014Y-84678060D01*
X116989442Y-84535203D01*
X116996448Y-84516894D01*
X116996702Y-84513311D01*
X116998078Y-84509991D01*
X116999999Y-84490482D01*
X116999999Y-83919053D01*
X116999663Y-83915650D01*
X116999881Y-83914192D01*
X116998801Y-83906894D01*
X116998078Y-83899544D01*
X116997513Y-83898180D01*
X116997013Y-83894799D01*
X116925585Y-83609086D01*
X116921480Y-83597595D01*
X116921000Y-83595168D01*
X116919827Y-83592968D01*
X116918990Y-83590625D01*
X116917519Y-83588640D01*
X116911776Y-83577869D01*
X116901137Y-83561910D01*
X117371427Y-83561910D01*
X117371427Y-83704768D01*
X117372399Y-83714641D01*
X117372212Y-83717276D01*
X117372999Y-83720739D01*
X117373348Y-83724277D01*
X117374359Y-83726718D01*
X117376559Y-83736391D01*
X117447988Y-83950676D01*
X117455979Y-83968576D01*
X117458334Y-83971291D01*
X117459709Y-83974610D01*
X117472145Y-83989764D01*
X118158578Y-84676196D01*
X117471427Y-84676196D01*
X117451918Y-84678117D01*
X117415870Y-84693049D01*
X117388280Y-84720639D01*
X117373348Y-84756687D01*
X117373348Y-84795705D01*
X117388280Y-84831753D01*
X117415870Y-84859343D01*
X117451918Y-84874275D01*
X117471427Y-84876196D01*
X118399999Y-84876196D01*
X118419508Y-84874275D01*
X118455556Y-84859343D01*
X118483146Y-84831753D01*
X118498078Y-84795705D01*
X118498078Y-84756687D01*
X118486936Y-84729788D01*
X118483146Y-84720638D01*
X118470709Y-84705485D01*
X117630258Y-83865033D01*
X117624455Y-83847625D01*
X118799998Y-83847625D01*
X118799998Y-84204768D01*
X118800333Y-84208170D01*
X118800116Y-84209629D01*
X118801195Y-84216926D01*
X118801919Y-84224277D01*
X118802483Y-84225640D01*
X118802984Y-84229022D01*
X118874413Y-84514735D01*
X118874926Y-84516172D01*
X118874978Y-84516895D01*
X118878089Y-84525025D01*
X118881008Y-84533196D01*
X118881437Y-84533775D01*
X118881984Y-84535204D01*
X118953413Y-84678060D01*
X118958696Y-84686454D01*
X118959708Y-84688896D01*
X118961962Y-84691643D01*
X118963856Y-84694651D01*
X118965852Y-84696382D01*
X118972145Y-84704049D01*
X119043573Y-84775478D01*
X119051242Y-84781773D01*
X119052973Y-84783768D01*
X119055978Y-84785659D01*
X119058726Y-84787915D01*
X119061167Y-84788926D01*
X119069563Y-84794211D01*
X119212420Y-84865639D01*
X119230729Y-84872645D01*
X119234311Y-84872899D01*
X119237632Y-84874275D01*
X119257141Y-84876196D01*
X119399998Y-84876196D01*
X119419507Y-84874275D01*
X119422827Y-84872899D01*
X119426410Y-84872645D01*
X119444719Y-84865639D01*
X119587577Y-84794211D01*
X119595973Y-84788925D01*
X119598414Y-84787915D01*
X119601159Y-84785661D01*
X119604168Y-84783768D01*
X119605900Y-84781770D01*
X119613567Y-84775478D01*
X119684995Y-84704049D01*
X119691287Y-84696382D01*
X119693284Y-84694651D01*
X119695177Y-84691642D01*
X119697432Y-84688896D01*
X119698442Y-84686455D01*
X119703727Y-84678061D01*
X119775156Y-84535204D01*
X119775702Y-84533775D01*
X119776132Y-84533196D01*
X119779050Y-84525025D01*
X119782162Y-84516895D01*
X119782213Y-84516172D01*
X119782727Y-84514735D01*
X119854155Y-84229022D01*
X119854655Y-84225640D01*
X119855220Y-84224277D01*
X119855943Y-84216926D01*
X119857023Y-84209629D01*
X119856805Y-84208170D01*
X119857141Y-84204768D01*
X119857141Y-83847625D01*
X119856805Y-83844222D01*
X119857023Y-83842764D01*
X119855943Y-83835467D01*
X119855220Y-83828116D01*
X119854654Y-83826751D01*
X119854155Y-83823372D01*
X119788790Y-83561910D01*
X120228569Y-83561910D01*
X120228569Y-83704768D01*
X120229541Y-83714641D01*
X120229354Y-83717276D01*
X120230141Y-83720739D01*
X120230490Y-83724277D01*
X120231501Y-83726718D01*
X120233701Y-83736391D01*
X120305130Y-83950676D01*
X120313121Y-83968576D01*
X120315476Y-83971291D01*
X120316851Y-83974610D01*
X120329287Y-83989764D01*
X121015720Y-84676196D01*
X120328569Y-84676196D01*
X120309060Y-84678117D01*
X120273012Y-84693049D01*
X120245422Y-84720639D01*
X120230490Y-84756687D01*
X120230490Y-84795705D01*
X120245422Y-84831753D01*
X120273012Y-84859343D01*
X120309060Y-84874275D01*
X120328569Y-84876196D01*
X121257141Y-84876196D01*
X121276650Y-84874275D01*
X121312698Y-84859343D01*
X121340288Y-84831753D01*
X121355220Y-84795705D01*
X121355220Y-84756687D01*
X121344078Y-84729788D01*
X121340288Y-84720638D01*
X121327851Y-84705485D01*
X120487400Y-83865033D01*
X120428569Y-83688540D01*
X120428569Y-83585518D01*
X120440373Y-83561910D01*
X122799998Y-83561910D01*
X122799998Y-83776196D01*
X122801919Y-83795705D01*
X122803294Y-83799025D01*
X122803549Y-83802609D01*
X122810555Y-83820917D01*
X122881983Y-83963774D01*
X122887269Y-83972172D01*
X122888279Y-83974610D01*
X122890530Y-83977353D01*
X122892426Y-83980365D01*
X122894423Y-83982097D01*
X122900715Y-83989764D01*
X122972144Y-84061193D01*
X122979814Y-84067487D01*
X122981544Y-84069482D01*
X122984551Y-84071375D01*
X122987298Y-84073629D01*
X122989737Y-84074639D01*
X122998134Y-84079925D01*
X123140991Y-84151353D01*
X123159300Y-84158359D01*
X123162882Y-84158613D01*
X123166203Y-84159989D01*
X123185712Y-84161910D01*
X123657141Y-84161910D01*
X123657141Y-84776196D01*
X123659062Y-84795705D01*
X123673994Y-84831753D01*
X123701584Y-84859343D01*
X123737632Y-84874275D01*
X123776650Y-84874275D01*
X123812698Y-84859343D01*
X123840288Y-84831753D01*
X123855220Y-84795705D01*
X123857141Y-84776196D01*
X123857141Y-83276196D01*
X124371427Y-83276196D01*
X124371427Y-84776196D01*
X124373348Y-84795705D01*
X124388280Y-84831753D01*
X124415870Y-84859343D01*
X124451918Y-84874275D01*
X124490936Y-84874275D01*
X124526984Y-84859343D01*
X124554574Y-84831753D01*
X124569506Y-84795705D01*
X124571427Y-84776196D01*
X124571427Y-83726952D01*
X124880809Y-84389914D01*
X124885041Y-84397059D01*
X124885921Y-84399477D01*
X124887486Y-84401186D01*
X124890800Y-84406780D01*
X124902010Y-84417046D01*
X124912272Y-84428252D01*
X124916297Y-84430130D01*
X124919575Y-84433132D01*
X124933857Y-84438325D01*
X124947630Y-84444753D01*
X124952069Y-84444948D01*
X124956244Y-84446466D01*
X124971427Y-84445798D01*
X124986610Y-84446466D01*
X124990783Y-84444948D01*
X124995225Y-84444753D01*
X125009009Y-84438320D01*
X125023279Y-84433131D01*
X125026552Y-84430133D01*
X125030582Y-84428253D01*
X125040854Y-84417036D01*
X125052054Y-84406780D01*
X125055363Y-84401192D01*
X125056934Y-84399478D01*
X125057815Y-84397053D01*
X125062045Y-84389914D01*
X125371427Y-83726951D01*
X125371427Y-84776196D01*
X125373348Y-84795705D01*
X125388280Y-84831753D01*
X125415870Y-84859343D01*
X125451918Y-84874275D01*
X125490936Y-84874275D01*
X125526984Y-84859343D01*
X125554574Y-84831753D01*
X125569506Y-84795705D01*
X125571427Y-84776196D01*
X125571427Y-83276196D01*
X125570164Y-83263372D01*
X125570268Y-83261012D01*
X125569807Y-83259744D01*
X125569506Y-83256687D01*
X126016205Y-83256687D01*
X126016205Y-83295705D01*
X126031137Y-83331753D01*
X126058727Y-83359343D01*
X126094775Y-83374275D01*
X126114284Y-83376196D01*
X126728570Y-83376196D01*
X126728570Y-83890482D01*
X126328570Y-83890482D01*
X126309061Y-83892403D01*
X126273013Y-83907335D01*
X126245423Y-83934925D01*
X126230491Y-83970973D01*
X126230491Y-84009991D01*
X126245423Y-84046039D01*
X126273013Y-84073629D01*
X126309061Y-84088561D01*
X126328570Y-84090482D01*
X126728570Y-84090482D01*
X126728570Y-84676196D01*
X126114284Y-84676196D01*
X126094775Y-84678117D01*
X126058727Y-84693049D01*
X126031137Y-84720639D01*
X126016205Y-84756687D01*
X126016205Y-84795705D01*
X126031137Y-84831753D01*
X126058727Y-84859343D01*
X126094775Y-84874275D01*
X126114284Y-84876196D01*
X126828570Y-84876196D01*
X126848079Y-84874275D01*
X126884127Y-84859343D01*
X126911717Y-84831753D01*
X126926649Y-84795705D01*
X126928570Y-84776196D01*
X126928570Y-84061910D01*
X127371427Y-84061910D01*
X127371427Y-84490482D01*
X127373348Y-84509991D01*
X127374723Y-84513311D01*
X127374978Y-84516895D01*
X127381984Y-84535204D01*
X127453413Y-84678060D01*
X127458696Y-84686454D01*
X127459708Y-84688896D01*
X127461962Y-84691643D01*
X127463856Y-84694651D01*
X127465852Y-84696382D01*
X127472145Y-84704049D01*
X127543573Y-84775478D01*
X127551242Y-84781773D01*
X127552973Y-84783768D01*
X127555978Y-84785659D01*
X127558726Y-84787915D01*
X127561167Y-84788926D01*
X127569563Y-84794211D01*
X127712420Y-84865639D01*
X127730729Y-84872645D01*
X127734311Y-84872899D01*
X127737632Y-84874275D01*
X127757141Y-84876196D01*
X127971427Y-84876196D01*
X127990936Y-84874275D01*
X127994256Y-84872899D01*
X127997840Y-84872645D01*
X128016148Y-84865639D01*
X128159005Y-84794211D01*
X128167403Y-84788924D01*
X128169841Y-84787915D01*
X128172584Y-84785663D01*
X128175596Y-84783768D01*
X128177328Y-84781770D01*
X128184995Y-84775479D01*
X128256424Y-84704050D01*
X128262718Y-84696379D01*
X128264713Y-84694650D01*
X128266606Y-84691642D01*
X128268860Y-84688896D01*
X128269870Y-84686456D01*
X128275156Y-84678060D01*
X128346584Y-84535203D01*
X128353590Y-84516894D01*
X128353844Y-84513311D01*
X128355220Y-84509991D01*
X128357141Y-84490482D01*
X128357141Y-84061910D01*
X128355220Y-84042401D01*
X128353844Y-84039080D01*
X128353590Y-84035498D01*
X128346584Y-84017189D01*
X128275156Y-83874332D01*
X128269871Y-83865936D01*
X128268860Y-83863495D01*
X128266604Y-83860747D01*
X128264713Y-83857742D01*
X128262718Y-83856011D01*
X128256423Y-83848342D01*
X128243199Y-83835118D01*
X128729355Y-83835118D01*
X128732121Y-83874038D01*
X128749570Y-83908937D01*
X128779047Y-83934501D01*
X128816063Y-83946840D01*
X128854983Y-83944074D01*
X128873292Y-83937068D01*
X128995034Y-83876196D01*
X129233533Y-83876196D01*
X129340764Y-83929812D01*
X129389241Y-83978288D01*
X129442855Y-84085516D01*
X129442855Y-84466875D01*
X129389241Y-84574102D01*
X129340761Y-84622582D01*
X129233534Y-84676196D01*
X128995034Y-84676196D01*
X128873291Y-84615325D01*
X128854983Y-84608319D01*
X128816062Y-84605553D01*
X128779047Y-84617892D01*
X128749570Y-84643457D01*
X128732121Y-84678355D01*
X128729355Y-84717276D01*
X128741694Y-84754291D01*
X128767259Y-84783768D01*
X128783849Y-84794211D01*
X128926706Y-84865639D01*
X128945015Y-84872645D01*
X128948597Y-84872899D01*
X128951918Y-84874275D01*
X128971427Y-84876196D01*
X129257141Y-84876196D01*
X129276650Y-84874275D01*
X129279970Y-84872899D01*
X129283554Y-84872645D01*
X129301862Y-84865639D01*
X129444719Y-84794211D01*
X129453117Y-84788924D01*
X129455555Y-84787915D01*
X129458298Y-84785663D01*
X129461310Y-84783768D01*
X129463042Y-84781770D01*
X129470709Y-84775479D01*
X129542138Y-84704050D01*
X129548432Y-84696379D01*
X129550427Y-84694650D01*
X129552320Y-84691642D01*
X129554574Y-84688896D01*
X129555584Y-84686456D01*
X129560870Y-84678060D01*
X129632298Y-84535203D01*
X129639304Y-84516894D01*
X129639558Y-84513311D01*
X129640934Y-84509991D01*
X129642855Y-84490482D01*
X129642855Y-84061910D01*
X129640934Y-84042401D01*
X129639558Y-84039080D01*
X129639304Y-84035498D01*
X129632298Y-84017189D01*
X129560870Y-83874332D01*
X129555585Y-83865936D01*
X129554574Y-83863495D01*
X129552318Y-83860747D01*
X129550427Y-83857742D01*
X129548432Y-83856011D01*
X129542137Y-83848342D01*
X129470708Y-83776914D01*
X129469833Y-83776196D01*
X130085713Y-83776196D01*
X130085713Y-84776196D01*
X130087634Y-84795705D01*
X130102566Y-84831753D01*
X130130156Y-84859343D01*
X130166204Y-84874275D01*
X130205222Y-84874275D01*
X130241270Y-84859343D01*
X130268860Y-84831753D01*
X130283792Y-84795705D01*
X130285713Y-84776196D01*
X130285713Y-83776196D01*
X130283792Y-83756687D01*
X130268860Y-83720639D01*
X130241270Y-83693049D01*
X130205222Y-83678117D01*
X130166204Y-83678117D01*
X130130156Y-83693049D01*
X130102566Y-83720639D01*
X130087634Y-83756687D01*
X130085713Y-83776196D01*
X129469833Y-83776196D01*
X129463041Y-83770621D01*
X129461310Y-83768625D01*
X129458302Y-83766731D01*
X129455555Y-83764477D01*
X129453113Y-83763465D01*
X129444719Y-83758182D01*
X129301863Y-83686753D01*
X129283554Y-83679747D01*
X129279970Y-83679492D01*
X129276650Y-83678117D01*
X129257141Y-83676196D01*
X128971427Y-83676196D01*
X128951918Y-83678117D01*
X128948597Y-83679492D01*
X128945014Y-83679747D01*
X128926705Y-83686753D01*
X128783848Y-83758182D01*
X128767258Y-83768625D01*
X128741694Y-83798102D01*
X128729355Y-83835118D01*
X128243199Y-83835118D01*
X128184994Y-83776914D01*
X128177327Y-83770621D01*
X128175596Y-83768625D01*
X128172588Y-83766731D01*
X128169841Y-83764477D01*
X128167399Y-83763465D01*
X128159005Y-83758182D01*
X128016149Y-83686753D01*
X127997840Y-83679747D01*
X127994256Y-83679492D01*
X127990936Y-83678117D01*
X127971427Y-83676196D01*
X127757141Y-83676196D01*
X127737632Y-83678117D01*
X127734311Y-83679492D01*
X127730728Y-83679747D01*
X127712419Y-83686753D01*
X127569562Y-83758182D01*
X127561164Y-83763467D01*
X127558726Y-83764478D01*
X127555981Y-83766730D01*
X127552972Y-83768625D01*
X127551239Y-83770622D01*
X127543573Y-83776915D01*
X127472145Y-83848342D01*
X127465853Y-83856008D01*
X127463856Y-83857741D01*
X127461960Y-83860752D01*
X127459709Y-83863496D01*
X127458699Y-83865933D01*
X127453413Y-83874332D01*
X127381984Y-84017188D01*
X127374978Y-84035497D01*
X127374723Y-84039080D01*
X127373348Y-84042401D01*
X127371427Y-84061910D01*
X126928570Y-84061910D01*
X126928570Y-83561910D01*
X130728570Y-83561910D01*
X130728570Y-83776196D01*
X130730491Y-83795705D01*
X130731866Y-83799025D01*
X130732121Y-83802609D01*
X130739127Y-83820917D01*
X130810555Y-83963774D01*
X130815841Y-83972172D01*
X130816851Y-83974610D01*
X130819102Y-83977353D01*
X130820998Y-83980365D01*
X130822995Y-83982097D01*
X130829287Y-83989764D01*
X130900716Y-84061193D01*
X130908386Y-84067487D01*
X130910116Y-84069482D01*
X130913123Y-84071375D01*
X130915870Y-84073629D01*
X130918309Y-84074639D01*
X130926706Y-84079925D01*
X131069563Y-84151353D01*
X131087872Y-84158359D01*
X131091454Y-84158613D01*
X131094775Y-84159989D01*
X131114284Y-84161910D01*
X131585713Y-84161910D01*
X131585713Y-84776196D01*
X131587634Y-84795705D01*
X131602566Y-84831753D01*
X131630156Y-84859343D01*
X131666204Y-84874275D01*
X131705222Y-84874275D01*
X131741270Y-84859343D01*
X131768860Y-84831753D01*
X131783792Y-84795705D01*
X131785713Y-84776196D01*
X131785713Y-83276196D01*
X131783792Y-83256687D01*
X131768860Y-83220639D01*
X131741270Y-83193049D01*
X131705222Y-83178117D01*
X131685713Y-83176196D01*
X131114284Y-83176196D01*
X131094775Y-83178117D01*
X131091454Y-83179492D01*
X131087871Y-83179747D01*
X131069562Y-83186753D01*
X130926705Y-83258182D01*
X130918310Y-83263466D01*
X130915870Y-83264477D01*
X130913123Y-83266731D01*
X130910115Y-83268625D01*
X130908383Y-83270621D01*
X130900717Y-83276914D01*
X130829288Y-83348342D01*
X130822995Y-83356008D01*
X130820998Y-83357741D01*
X130819104Y-83360749D01*
X130816851Y-83363495D01*
X130815840Y-83365935D01*
X130810555Y-83374332D01*
X130739127Y-83517189D01*
X130732121Y-83535497D01*
X130731866Y-83539080D01*
X130730491Y-83542401D01*
X130728570Y-83561910D01*
X126928570Y-83561910D01*
X126928570Y-83328116D01*
X130016205Y-83328116D01*
X130016205Y-83367134D01*
X130024952Y-83388251D01*
X130031137Y-83403183D01*
X130043574Y-83418336D01*
X130115003Y-83489764D01*
X130130156Y-83502201D01*
X130155646Y-83512758D01*
X130166204Y-83517132D01*
X130166205Y-83517132D01*
X130205222Y-83517132D01*
X130231244Y-83506353D01*
X130241271Y-83502200D01*
X130241275Y-83502195D01*
X130256424Y-83489764D01*
X130327851Y-83418336D01*
X130340288Y-83403183D01*
X130352238Y-83374331D01*
X130355219Y-83367135D01*
X130355220Y-83328117D01*
X130340289Y-83292068D01*
X130327852Y-83276915D01*
X130256424Y-83205486D01*
X130241271Y-83193049D01*
X130226071Y-83186753D01*
X130205222Y-83178117D01*
X130166204Y-83178117D01*
X130155646Y-83182490D01*
X130130156Y-83193048D01*
X130130150Y-83193053D01*
X130115002Y-83205485D01*
X130043573Y-83276914D01*
X130031141Y-83292062D01*
X130031136Y-83292068D01*
X130027854Y-83299993D01*
X130016205Y-83328116D01*
X126928570Y-83328116D01*
X126928570Y-83276196D01*
X126926649Y-83256687D01*
X126911717Y-83220639D01*
X126884127Y-83193049D01*
X126848079Y-83178117D01*
X126828570Y-83176196D01*
X126114284Y-83176196D01*
X126094775Y-83178117D01*
X126058727Y-83193049D01*
X126031137Y-83220639D01*
X126016205Y-83256687D01*
X125569506Y-83256687D01*
X125562868Y-83240663D01*
X125556934Y-83224343D01*
X125555426Y-83222696D01*
X125554574Y-83220639D01*
X125542316Y-83208381D01*
X125530582Y-83195568D01*
X125528558Y-83194623D01*
X125526984Y-83193049D01*
X125510968Y-83186414D01*
X125495225Y-83179068D01*
X125492995Y-83178970D01*
X125490936Y-83178117D01*
X125473584Y-83178117D01*
X125456244Y-83177355D01*
X125454148Y-83178117D01*
X125451918Y-83178117D01*
X125435887Y-83184757D01*
X125419575Y-83190689D01*
X125417929Y-83192195D01*
X125415870Y-83193049D01*
X125403602Y-83205316D01*
X125390800Y-83217041D01*
X125389233Y-83219685D01*
X125388280Y-83220639D01*
X125387376Y-83222820D01*
X125380809Y-83233907D01*
X124971426Y-84111154D01*
X124562045Y-83233907D01*
X124555477Y-83222820D01*
X124554574Y-83220639D01*
X124553620Y-83219685D01*
X124552054Y-83217041D01*
X124539257Y-83205322D01*
X124526984Y-83193049D01*
X124524922Y-83192195D01*
X124523279Y-83190690D01*
X124506977Y-83184761D01*
X124490936Y-83178117D01*
X124488705Y-83178117D01*
X124486610Y-83177355D01*
X124469270Y-83178117D01*
X124451918Y-83178117D01*
X124449858Y-83178970D01*
X124447630Y-83179068D01*
X124431899Y-83186409D01*
X124415870Y-83193049D01*
X124414293Y-83194625D01*
X124412272Y-83195569D01*
X124400553Y-83208365D01*
X124388280Y-83220639D01*
X124387426Y-83222700D01*
X124385921Y-83224344D01*
X124379992Y-83240645D01*
X124373348Y-83256687D01*
X124373046Y-83259745D01*
X124372586Y-83261013D01*
X124372689Y-83263372D01*
X124371427Y-83276196D01*
X123857141Y-83276196D01*
X123855220Y-83256687D01*
X123840288Y-83220639D01*
X123812698Y-83193049D01*
X123776650Y-83178117D01*
X123757141Y-83176196D01*
X123185712Y-83176196D01*
X123166203Y-83178117D01*
X123162882Y-83179492D01*
X123159299Y-83179747D01*
X123140990Y-83186753D01*
X122998133Y-83258182D01*
X122989738Y-83263466D01*
X122987298Y-83264477D01*
X122984551Y-83266731D01*
X122981543Y-83268625D01*
X122979811Y-83270621D01*
X122972145Y-83276914D01*
X122900716Y-83348342D01*
X122894423Y-83356008D01*
X122892426Y-83357741D01*
X122890532Y-83360749D01*
X122888279Y-83363495D01*
X122887268Y-83365935D01*
X122881983Y-83374332D01*
X122810555Y-83517189D01*
X122803549Y-83535497D01*
X122803294Y-83539080D01*
X122801919Y-83542401D01*
X122799998Y-83561910D01*
X120440373Y-83561910D01*
X120482184Y-83478287D01*
X120530660Y-83429811D01*
X120637891Y-83376196D01*
X120947819Y-83376196D01*
X121055048Y-83429811D01*
X121115001Y-83489763D01*
X121130154Y-83502200D01*
X121166203Y-83517131D01*
X121205221Y-83517131D01*
X121241269Y-83502200D01*
X121268859Y-83474610D01*
X121283790Y-83438562D01*
X121283790Y-83399544D01*
X121268859Y-83363495D01*
X121256422Y-83348342D01*
X121184995Y-83276914D01*
X121177328Y-83270622D01*
X121175596Y-83268625D01*
X121172584Y-83266729D01*
X121169841Y-83264478D01*
X121167403Y-83263468D01*
X121159005Y-83258182D01*
X121016149Y-83186753D01*
X120997840Y-83179747D01*
X120994256Y-83179492D01*
X120990936Y-83178117D01*
X120971427Y-83176196D01*
X120614284Y-83176196D01*
X120594775Y-83178117D01*
X120591454Y-83179492D01*
X120587871Y-83179747D01*
X120569562Y-83186753D01*
X120426705Y-83258182D01*
X120418310Y-83263466D01*
X120415870Y-83264477D01*
X120413123Y-83266731D01*
X120410115Y-83268625D01*
X120408383Y-83270621D01*
X120400717Y-83276914D01*
X120329288Y-83348342D01*
X120322995Y-83356008D01*
X120320998Y-83357741D01*
X120319104Y-83360749D01*
X120316851Y-83363495D01*
X120315840Y-83365935D01*
X120310555Y-83374332D01*
X120239126Y-83517188D01*
X120232120Y-83535497D01*
X120231865Y-83539080D01*
X120230490Y-83542401D01*
X120228569Y-83561910D01*
X119788790Y-83561910D01*
X119782727Y-83537657D01*
X119782213Y-83536219D01*
X119782162Y-83535497D01*
X119779050Y-83527366D01*
X119776132Y-83519196D01*
X119775702Y-83518616D01*
X119775156Y-83517188D01*
X119703727Y-83374331D01*
X119698441Y-83365933D01*
X119697431Y-83363495D01*
X119695178Y-83360750D01*
X119693284Y-83357741D01*
X119691286Y-83356008D01*
X119684994Y-83348342D01*
X119613567Y-83276914D01*
X119605900Y-83270622D01*
X119604168Y-83268625D01*
X119601156Y-83266729D01*
X119598413Y-83264478D01*
X119595975Y-83263468D01*
X119587577Y-83258182D01*
X119444719Y-83186753D01*
X119426411Y-83179747D01*
X119422827Y-83179492D01*
X119419507Y-83178117D01*
X119399998Y-83176196D01*
X119257141Y-83176196D01*
X119237632Y-83178117D01*
X119234311Y-83179492D01*
X119230728Y-83179747D01*
X119212419Y-83186753D01*
X119069562Y-83258182D01*
X119061164Y-83263467D01*
X119058726Y-83264478D01*
X119055981Y-83266730D01*
X119052972Y-83268625D01*
X119051239Y-83270622D01*
X119043573Y-83276915D01*
X118972145Y-83348342D01*
X118965853Y-83356008D01*
X118963856Y-83357741D01*
X118961960Y-83360752D01*
X118959709Y-83363496D01*
X118958699Y-83365933D01*
X118953413Y-83374332D01*
X118881984Y-83517188D01*
X118881437Y-83518616D01*
X118881008Y-83519196D01*
X118878089Y-83527366D01*
X118874978Y-83535497D01*
X118874926Y-83536219D01*
X118874413Y-83537657D01*
X118802984Y-83823371D01*
X118802483Y-83826752D01*
X118801919Y-83828116D01*
X118801195Y-83835466D01*
X118800116Y-83842764D01*
X118800333Y-83844222D01*
X118799998Y-83847625D01*
X117624455Y-83847625D01*
X117571427Y-83688540D01*
X117571427Y-83585518D01*
X117625042Y-83478287D01*
X117673518Y-83429811D01*
X117780749Y-83376196D01*
X118090677Y-83376196D01*
X118197906Y-83429811D01*
X118257859Y-83489763D01*
X118273012Y-83502200D01*
X118309061Y-83517131D01*
X118348079Y-83517131D01*
X118384127Y-83502200D01*
X118411717Y-83474610D01*
X118426648Y-83438562D01*
X118426648Y-83399544D01*
X118411717Y-83363495D01*
X118399280Y-83348342D01*
X118327853Y-83276914D01*
X118320186Y-83270622D01*
X118318454Y-83268625D01*
X118315442Y-83266729D01*
X118312699Y-83264478D01*
X118310261Y-83263468D01*
X118301863Y-83258182D01*
X118159007Y-83186753D01*
X118140698Y-83179747D01*
X118137114Y-83179492D01*
X118133794Y-83178117D01*
X118114285Y-83176196D01*
X117757142Y-83176196D01*
X117737633Y-83178117D01*
X117734312Y-83179492D01*
X117730729Y-83179747D01*
X117712420Y-83186753D01*
X117569563Y-83258182D01*
X117561168Y-83263466D01*
X117558728Y-83264477D01*
X117555981Y-83266731D01*
X117552973Y-83268625D01*
X117551241Y-83270621D01*
X117543575Y-83276914D01*
X117472146Y-83348342D01*
X117465853Y-83356008D01*
X117463856Y-83357741D01*
X117461962Y-83360749D01*
X117459709Y-83363495D01*
X117458698Y-83365935D01*
X117453413Y-83374332D01*
X117381984Y-83517188D01*
X117374978Y-83535497D01*
X117374723Y-83539080D01*
X117373348Y-83542401D01*
X117371427Y-83561910D01*
X116901137Y-83561910D01*
X116768919Y-83363583D01*
X116768875Y-83363529D01*
X116768861Y-83363495D01*
X116762716Y-83356009D01*
X116756499Y-83348416D01*
X116756467Y-83348394D01*
X116756424Y-83348342D01*
X116684995Y-83276914D01*
X116677328Y-83270621D01*
X116675597Y-83268625D01*
X116672589Y-83266731D01*
X116669842Y-83264477D01*
X116667400Y-83263465D01*
X116659006Y-83258182D01*
X116516150Y-83186753D01*
X116497841Y-83179747D01*
X116494257Y-83179492D01*
X116490937Y-83178117D01*
X116471428Y-83176196D01*
X116185714Y-83176196D01*
X116166205Y-83178117D01*
X116130157Y-83193049D01*
X116102567Y-83220639D01*
X116087635Y-83256687D01*
X116087635Y-83295705D01*
X116102567Y-83331753D01*
X116130157Y-83359343D01*
X116166205Y-83374275D01*
X116185714Y-83376196D01*
X116447820Y-83376196D01*
X116555051Y-83429812D01*
X116608001Y-83482761D01*
X116735758Y-83674397D01*
X116770661Y-83814009D01*
X116659006Y-83758182D01*
X116640698Y-83751176D01*
X116637114Y-83750921D01*
X116633794Y-83749546D01*
X116614285Y-83747625D01*
X116328571Y-83747625D01*
X116309062Y-83749546D01*
X116305741Y-83750921D01*
X116302159Y-83751176D01*
X116283850Y-83758182D01*
X116140993Y-83829610D01*
X116132596Y-83834895D01*
X116130157Y-83835906D01*
X116127410Y-83838159D01*
X116124403Y-83840053D01*
X116122673Y-83842047D01*
X116115003Y-83848342D01*
X116043574Y-83919771D01*
X116037282Y-83927437D01*
X116035285Y-83929170D01*
X116033389Y-83932181D01*
X116031138Y-83934925D01*
X116030128Y-83937362D01*
X116024842Y-83945761D01*
X115953413Y-84088617D01*
X115946407Y-84106926D01*
X115946152Y-84110509D01*
X115944777Y-84113830D01*
X115942856Y-84133339D01*
X114347619Y-84133339D01*
X114347619Y-83009529D01*
X133380951Y-83009529D01*
X133380951Y-89872695D01*
G37*
M02*
