%TF.GenerationSoftware,KiCad,Pcbnew,10.0.5*%
%TF.CreationDate,2026-08-08T12:56:25-06:00*%
%TF.ProjectId,picoemp-rev2026,7069636f-656d-4702-9d72-657632303236,A*%
%TF.SameCoordinates,Original*%
%TF.FileFunction,Profile,NP*%
%FSLAX46Y46*%
G04 Gerber Fmt 4.6, Leading zero omitted, Abs format (unit mm)*
G04 Created by KiCad (PCBNEW 10.0.5) date 2026-08-08 12:56:25*
%MOMM*%
%LPD*%
G01*
G04 APERTURE LIST*
%TA.AperFunction,Profile*%
%ADD10C,0.050000*%
%TD*%
G04 APERTURE END LIST*
D10*
X104390000Y-49272000D02*
X104390000Y-166272000D01*
X104390000Y-49272000D02*
G75*
G02*
X108390000Y-45272000I4000100J-100D01*
G01*
X108390000Y-170272000D02*
G75*
G02*
X104390000Y-166272000I100J4000100D01*
G01*
X108390000Y-170272000D02*
X116280098Y-170272000D01*
X116280098Y-170272000D02*
G75*
G02*
X116770390Y-170870058I2J-500000D01*
G01*
X116499902Y-175272000D02*
G75*
G02*
X116009610Y-174673942I-2J500000D01*
G01*
X116499902Y-175272000D02*
X132280098Y-175272000D01*
X116770388Y-170870058D02*
X116009612Y-174673942D01*
X117390000Y-45272000D02*
X108390000Y-45272000D01*
X117390000Y-45272000D02*
G75*
G02*
X118390000Y-46272000I0J-1000000D01*
G01*
X118390000Y-58200000D02*
X118390000Y-46272000D01*
X119390000Y-59200000D02*
G75*
G02*
X118390000Y-58200000I0J1000000D01*
G01*
X129390000Y-59200000D02*
X119390000Y-59200000D01*
X130390000Y-46272000D02*
X130390000Y-58200000D01*
X130390000Y-46272000D02*
G75*
G02*
X131390000Y-45272000I1000000J0D01*
G01*
X130390000Y-58200000D02*
G75*
G02*
X129390000Y-59200000I-1000000J0D01*
G01*
X132009612Y-170870058D02*
G75*
G02*
X132499902Y-170272002I490288J98058D01*
G01*
X132499902Y-170272000D02*
X140390000Y-170272000D01*
X132770388Y-174673942D02*
X132009612Y-170870058D01*
X132770388Y-174673942D02*
G75*
G02*
X132280098Y-175271998I-490288J-98058D01*
G01*
X143402070Y-45297852D02*
X131390000Y-45272000D01*
X143402070Y-45297852D02*
G75*
G02*
X144399950Y-46297933I-2170J-1000048D01*
G01*
X144390000Y-166272000D02*
G75*
G02*
X140390000Y-170272000I-4000100J100D01*
G01*
X144390000Y-166272000D02*
X144399918Y-46297933D01*
M02*
