%TF.GenerationSoftware,KiCad,Pcbnew,10.0.5*%
%TF.CreationDate,2026-08-08T12:56:25-06:00*%
%TF.ProjectId,picoemp-rev2026,7069636f-656d-4702-9d72-657632303236,A*%
%TF.SameCoordinates,Original*%
%TF.FileFunction,Drillmap*%
%TF.FilePolarity,Positive*%
%FSLAX45Y45*%
G04 Gerber Fmt 4.5, Leading zero omitted, Abs format (unit mm)*
G04 Created by KiCad (PCBNEW 10.0.5) date 2026-08-08 12:56:25*
%MOMM*%
%LPD*%
G01*
G04 APERTURE LIST*
%ADD10C,0.050000*%
%ADD11C,0.200000*%
%ADD12C,0.100000*%
%ADD13C,0.130000*%
%ADD14C,0.320000*%
G04 APERTURE END LIST*
D10*
X10439000Y-4927200D02*
X10439000Y-16627200D01*
X10439000Y-4927200D02*
G75*
G02*
X10839000Y-4527200I400010J-10D01*
G01*
X10839000Y-17027200D02*
G75*
G02*
X10439000Y-16627200I10J400010D01*
G01*
X10839000Y-17027200D02*
X11628010Y-17027200D01*
X11628010Y-17027200D02*
G75*
G02*
X11677039Y-17087006I0J-50000D01*
G01*
X11649990Y-17527200D02*
G75*
G02*
X11600961Y-17467394I0J50000D01*
G01*
X11649990Y-17527200D02*
X13228010Y-17527200D01*
X11677039Y-17087006D02*
X11600961Y-17467394D01*
X11739000Y-4527200D02*
X10839000Y-4527200D01*
X11739000Y-4527200D02*
G75*
G02*
X11839000Y-4627200I0J-100000D01*
G01*
X11839000Y-5820000D02*
X11839000Y-4627200D01*
X11939000Y-5920000D02*
G75*
G02*
X11839000Y-5820000I0J100000D01*
G01*
X12939000Y-5920000D02*
X11939000Y-5920000D01*
X13039000Y-4627200D02*
X13039000Y-5820000D01*
X13039000Y-4627200D02*
G75*
G02*
X13139000Y-4527200I100000J0D01*
G01*
X13039000Y-5820000D02*
G75*
G02*
X12939000Y-5920000I-100000J0D01*
G01*
X13200961Y-17087006D02*
G75*
G02*
X13249990Y-17027200I49029J9806D01*
G01*
X13249990Y-17027200D02*
X14039000Y-17027200D01*
X13277039Y-17467394D02*
X13200961Y-17087006D01*
X13277039Y-17467394D02*
G75*
G02*
X13228010Y-17527200I-49029J-9806D01*
G01*
X14340207Y-4529785D02*
X13139000Y-4527200D01*
X14340207Y-4529785D02*
G75*
G02*
X14439995Y-4629793I-217J-100005D01*
G01*
X14439000Y-16627200D02*
G75*
G02*
X14039000Y-17027200I-400010J10D01*
G01*
X14439000Y-16627200D02*
X14439992Y-4629793D01*
D11*
D12*
X10550000Y-6445000D02*
X10580000Y-6475000D01*
X10580000Y-6445000D02*
X10550000Y-6475000D01*
X10575000Y-5429000D02*
X10605000Y-5459000D01*
X10605000Y-5429000D02*
X10575000Y-5459000D01*
X10575000Y-5683000D02*
X10605000Y-5713000D01*
X10605000Y-5683000D02*
X10575000Y-5713000D01*
X10575000Y-5909500D02*
X10605000Y-5939500D01*
X10605000Y-5909500D02*
X10575000Y-5939500D01*
X10575000Y-6250000D02*
X10605000Y-6280000D01*
X10605000Y-6250000D02*
X10575000Y-6280000D01*
X10575000Y-6699000D02*
X10605000Y-6729000D01*
X10605000Y-6699000D02*
X10575000Y-6729000D01*
X10575000Y-6953000D02*
X10605000Y-6983000D01*
X10605000Y-6953000D02*
X10575000Y-6983000D01*
X10575000Y-7207000D02*
X10605000Y-7237000D01*
X10605000Y-7207000D02*
X10575000Y-7237000D01*
X10575000Y-7461000D02*
X10605000Y-7491000D01*
X10605000Y-7461000D02*
X10575000Y-7491000D01*
X10575000Y-7715000D02*
X10605000Y-7745000D01*
X10605000Y-7715000D02*
X10575000Y-7745000D01*
X10575000Y-7961000D02*
X10605000Y-7991000D01*
X10605000Y-7961000D02*
X10575000Y-7991000D01*
X10575000Y-9207000D02*
X10605000Y-9237000D01*
X10605000Y-9207000D02*
X10575000Y-9237000D01*
X10575000Y-9461000D02*
X10605000Y-9491000D01*
X10605000Y-9461000D02*
X10575000Y-9491000D01*
X10575000Y-9715000D02*
X10605000Y-9745000D01*
X10605000Y-9715000D02*
X10575000Y-9745000D01*
X10575000Y-11061000D02*
X10605000Y-11091000D01*
X10605000Y-11061000D02*
X10575000Y-11091000D01*
X10575000Y-11315000D02*
X10605000Y-11345000D01*
X10605000Y-11315000D02*
X10575000Y-11345000D01*
X10580000Y-8990000D02*
X10610000Y-9020000D01*
X10610000Y-8990000D02*
X10580000Y-9020000D01*
X11105000Y-11275000D02*
X11135000Y-11305000D01*
X11135000Y-11275000D02*
X11105000Y-11305000D01*
X11675000Y-4657000D02*
X11705000Y-4687000D01*
X11705000Y-4657000D02*
X11675000Y-4687000D01*
X11675000Y-4911000D02*
X11705000Y-4941000D01*
X11705000Y-4911000D02*
X11675000Y-4941000D01*
X11675000Y-5165000D02*
X11705000Y-5195000D01*
X11705000Y-5165000D02*
X11675000Y-5195000D01*
X11760000Y-6192000D02*
X11790000Y-6222000D01*
X11790000Y-6192000D02*
X11760000Y-6222000D01*
X11760000Y-6446000D02*
X11790000Y-6476000D01*
X11790000Y-6446000D02*
X11760000Y-6476000D01*
X11760000Y-6954000D02*
X11790000Y-6984000D01*
X11790000Y-6954000D02*
X11760000Y-6984000D01*
X11760000Y-7208000D02*
X11790000Y-7238000D01*
X11790000Y-7208000D02*
X11760000Y-7238000D01*
X11760000Y-7462000D02*
X11790000Y-7492000D01*
X11790000Y-7462000D02*
X11760000Y-7492000D01*
X11760000Y-7716000D02*
X11790000Y-7746000D01*
X11790000Y-7716000D02*
X11760000Y-7746000D01*
X11760000Y-7970000D02*
X11790000Y-8000000D01*
X11790000Y-7970000D02*
X11760000Y-8000000D01*
X11760000Y-8224000D02*
X11790000Y-8254000D01*
X11790000Y-8224000D02*
X11760000Y-8254000D01*
X11760000Y-8478000D02*
X11790000Y-8508000D01*
X11790000Y-8478000D02*
X11760000Y-8508000D01*
X11760000Y-8732000D02*
X11790000Y-8762000D01*
X11790000Y-8732000D02*
X11760000Y-8762000D01*
X11760000Y-8986000D02*
X11790000Y-9016000D01*
X11790000Y-8986000D02*
X11760000Y-9016000D01*
X11760000Y-9240000D02*
X11790000Y-9270000D01*
X11790000Y-9240000D02*
X11760000Y-9270000D01*
X11760000Y-9494000D02*
X11790000Y-9524000D01*
X11790000Y-9494000D02*
X11760000Y-9524000D01*
X11760000Y-9748000D02*
X11790000Y-9778000D01*
X11790000Y-9748000D02*
X11760000Y-9778000D01*
X11760000Y-10002000D02*
X11790000Y-10032000D01*
X11790000Y-10002000D02*
X11760000Y-10032000D01*
X11760000Y-10256000D02*
X11790000Y-10286000D01*
X11790000Y-10256000D02*
X11760000Y-10286000D01*
X11760000Y-10510000D02*
X11790000Y-10540000D01*
X11790000Y-10510000D02*
X11760000Y-10540000D01*
X11760000Y-10764000D02*
X11790000Y-10794000D01*
X11790000Y-10764000D02*
X11760000Y-10794000D01*
X11765000Y-11025000D02*
X11795000Y-11055000D01*
X11795000Y-11025000D02*
X11765000Y-11055000D01*
X11875000Y-6115000D02*
X11905000Y-6145000D01*
X11905000Y-6115000D02*
X11875000Y-6145000D01*
X11875000Y-6700000D02*
X11905000Y-6730000D01*
X11905000Y-6700000D02*
X11875000Y-6730000D01*
X12150000Y-12125000D02*
X12180000Y-12155000D01*
X12180000Y-12125000D02*
X12150000Y-12155000D01*
X12275000Y-14640000D02*
X12305000Y-14670000D01*
X12305000Y-14640000D02*
X12275000Y-14670000D01*
X12975000Y-6215000D02*
X13005000Y-6245000D01*
X13005000Y-6215000D02*
X12975000Y-6245000D01*
X12975000Y-6457000D02*
X13005000Y-6487000D01*
X13005000Y-6457000D02*
X12975000Y-6487000D01*
X12975000Y-6711000D02*
X13005000Y-6741000D01*
X13005000Y-6711000D02*
X12975000Y-6741000D01*
X12975000Y-6965000D02*
X13005000Y-6995000D01*
X13005000Y-6965000D02*
X12975000Y-6995000D01*
X12975000Y-7487000D02*
X13005000Y-7517000D01*
X13005000Y-7487000D02*
X12975000Y-7517000D01*
X12975000Y-7741000D02*
X13005000Y-7771000D01*
X13005000Y-7741000D02*
X12975000Y-7771000D01*
X12975000Y-7995000D02*
X13005000Y-8025000D01*
X13005000Y-7995000D02*
X12975000Y-8025000D01*
X12975000Y-8249000D02*
X13005000Y-8279000D01*
X13005000Y-8249000D02*
X12975000Y-8279000D01*
X12975000Y-8503000D02*
X13005000Y-8533000D01*
X13005000Y-8503000D02*
X12975000Y-8533000D01*
X12975000Y-8757000D02*
X13005000Y-8787000D01*
X13005000Y-8757000D02*
X12975000Y-8787000D01*
X12975000Y-9011000D02*
X13005000Y-9041000D01*
X13005000Y-9011000D02*
X12975000Y-9041000D01*
X12975000Y-9265000D02*
X13005000Y-9295000D01*
X13005000Y-9265000D02*
X12975000Y-9295000D01*
X12975000Y-9495000D02*
X13005000Y-9525000D01*
X13005000Y-9495000D02*
X12975000Y-9525000D01*
X12975000Y-9749000D02*
X13005000Y-9779000D01*
X13005000Y-9749000D02*
X12975000Y-9779000D01*
X12975000Y-10003000D02*
X13005000Y-10033000D01*
X13005000Y-10003000D02*
X12975000Y-10033000D01*
X12975000Y-10257000D02*
X13005000Y-10287000D01*
X13005000Y-10257000D02*
X12975000Y-10287000D01*
X12975000Y-10511000D02*
X13005000Y-10541000D01*
X13005000Y-10511000D02*
X12975000Y-10541000D01*
X12975000Y-10765000D02*
X13005000Y-10795000D01*
X13005000Y-10765000D02*
X12975000Y-10795000D01*
X12975000Y-11025000D02*
X13005000Y-11055000D01*
X13005000Y-11025000D02*
X12975000Y-11055000D01*
X13075000Y-10395000D02*
X13105000Y-10425000D01*
X13105000Y-10395000D02*
X13075000Y-10425000D01*
X13125000Y-4615000D02*
X13155000Y-4645000D01*
X13155000Y-4615000D02*
X13125000Y-4645000D01*
X13125000Y-4765000D02*
X13155000Y-4795000D01*
X13155000Y-4765000D02*
X13125000Y-4795000D01*
X13125000Y-4915000D02*
X13155000Y-4945000D01*
X13155000Y-4915000D02*
X13125000Y-4945000D01*
X13155000Y-9880000D02*
X13185000Y-9910000D01*
X13185000Y-9880000D02*
X13155000Y-9910000D01*
X13245000Y-11272853D02*
X13275000Y-11302853D01*
X13275000Y-11272853D02*
X13245000Y-11302853D01*
X13285000Y-5215000D02*
X13315000Y-5245000D01*
X13315000Y-5215000D02*
X13285000Y-5245000D01*
X13435000Y-5215000D02*
X13465000Y-5245000D01*
X13465000Y-5215000D02*
X13435000Y-5245000D01*
X13475000Y-4615000D02*
X13505000Y-4645000D01*
X13505000Y-4615000D02*
X13475000Y-4645000D01*
X13475000Y-4765000D02*
X13505000Y-4795000D01*
X13505000Y-4765000D02*
X13475000Y-4795000D01*
X13475000Y-4915000D02*
X13505000Y-4945000D01*
X13505000Y-4915000D02*
X13475000Y-4945000D01*
X13585000Y-5215000D02*
X13615000Y-5245000D01*
X13615000Y-5215000D02*
X13585000Y-5245000D01*
X13645000Y-5395000D02*
X13675000Y-5425000D01*
X13675000Y-5395000D02*
X13645000Y-5425000D01*
X13725000Y-5180000D02*
X13755000Y-5210000D01*
X13755000Y-5180000D02*
X13725000Y-5210000D01*
X13755000Y-9170000D02*
X13785000Y-9200000D01*
X13785000Y-9170000D02*
X13755000Y-9200000D01*
X13925000Y-4765000D02*
X13955000Y-4795000D01*
X13955000Y-4765000D02*
X13925000Y-4795000D01*
X13995000Y-9425000D02*
X14025000Y-9455000D01*
X14025000Y-9425000D02*
X13995000Y-9455000D01*
X13995000Y-9560000D02*
X14025000Y-9590000D01*
X14025000Y-9560000D02*
X13995000Y-9590000D01*
X13995000Y-9905000D02*
X14025000Y-9935000D01*
X14025000Y-9905000D02*
X13995000Y-9935000D01*
X14175000Y-10785000D02*
X14205000Y-10815000D01*
X14205000Y-10785000D02*
X14175000Y-10815000D01*
X14240000Y-9040000D02*
X14270000Y-9070000D01*
X14270000Y-9040000D02*
X14240000Y-9070000D01*
X14245000Y-9885000D02*
X14275000Y-9915000D01*
X14275000Y-9885000D02*
X14245000Y-9915000D01*
X14250000Y-10285000D02*
X14280000Y-10315000D01*
X14280000Y-10285000D02*
X14250000Y-10315000D01*
X14275000Y-4765000D02*
X14305000Y-4795000D01*
X14305000Y-4765000D02*
X14275000Y-4795000D01*
X14275000Y-5019000D02*
X14305000Y-5049000D01*
X14305000Y-5019000D02*
X14275000Y-5049000D01*
X14275000Y-5273000D02*
X14305000Y-5303000D01*
X14305000Y-5273000D02*
X14275000Y-5303000D01*
X14275000Y-5527000D02*
X14305000Y-5557000D01*
X14305000Y-5527000D02*
X14275000Y-5557000D01*
X14275000Y-5781000D02*
X14305000Y-5811000D01*
X14305000Y-5781000D02*
X14275000Y-5811000D01*
X14275000Y-6035000D02*
X14305000Y-6065000D01*
X14305000Y-6035000D02*
X14275000Y-6065000D01*
X14275000Y-6289000D02*
X14305000Y-6319000D01*
X14305000Y-6289000D02*
X14275000Y-6319000D01*
X14275000Y-6543000D02*
X14305000Y-6573000D01*
X14305000Y-6543000D02*
X14275000Y-6573000D01*
X14275000Y-6797000D02*
X14305000Y-6827000D01*
X14305000Y-6797000D02*
X14275000Y-6827000D01*
X14275000Y-7051000D02*
X14305000Y-7081000D01*
X14305000Y-7051000D02*
X14275000Y-7081000D01*
X14275000Y-9791000D02*
X14305000Y-9821000D01*
X14305000Y-9791000D02*
X14275000Y-9821000D01*
X14275000Y-11061000D02*
X14305000Y-11091000D01*
X14305000Y-11061000D02*
X14275000Y-11091000D01*
X14275000Y-11315000D02*
X14305000Y-11345000D01*
X14305000Y-11315000D02*
X14275000Y-11345000D01*
X14280000Y-9575000D02*
X14310000Y-9605000D01*
X14310000Y-9575000D02*
X14280000Y-9605000D01*
X11050000Y-6010000D02*
G75*
G02*
X11010000Y-6010000I-20000J0D01*
G01*
X11010000Y-6010000D02*
G75*
G02*
X11050000Y-6010000I20000J0D01*
G01*
X11221500Y-14470000D02*
G75*
G02*
X11181500Y-14470000I-20000J0D01*
G01*
X11181500Y-14470000D02*
G75*
G02*
X11221500Y-14470000I20000J0D01*
G01*
X11221500Y-14870000D02*
G75*
G02*
X11181500Y-14870000I-20000J0D01*
G01*
X11181500Y-14870000D02*
G75*
G02*
X11221500Y-14870000I20000J0D01*
G01*
X11320000Y-13390000D02*
G75*
G02*
X11280000Y-13390000I-20000J0D01*
G01*
X11280000Y-13390000D02*
G75*
G02*
X11320000Y-13390000I20000J0D01*
G01*
X11660000Y-13010000D02*
G75*
G02*
X11620000Y-13010000I-20000J0D01*
G01*
X11620000Y-13010000D02*
G75*
G02*
X11660000Y-13010000I20000J0D01*
G01*
X11940000Y-16940000D02*
G75*
G02*
X11900000Y-16940000I-20000J0D01*
G01*
X11900000Y-16940000D02*
G75*
G02*
X11940000Y-16940000I20000J0D01*
G01*
X12240000Y-17260000D02*
G75*
G02*
X12200000Y-17260000I-20000J0D01*
G01*
X12200000Y-17260000D02*
G75*
G02*
X12240000Y-17260000I20000J0D01*
G01*
X12355000Y-12125000D02*
G75*
G02*
X12315000Y-12125000I-20000J0D01*
G01*
X12315000Y-12125000D02*
G75*
G02*
X12355000Y-12125000I20000J0D01*
G01*
X12560000Y-12120000D02*
G75*
G02*
X12520000Y-12120000I-20000J0D01*
G01*
X12520000Y-12120000D02*
G75*
G02*
X12560000Y-12120000I20000J0D01*
G01*
X12680000Y-17260000D02*
G75*
G02*
X12640000Y-17260000I-20000J0D01*
G01*
X12640000Y-17260000D02*
G75*
G02*
X12680000Y-17260000I20000J0D01*
G01*
X12973867Y-12697500D02*
G75*
G02*
X12933867Y-12697500I-20000J0D01*
G01*
X12933867Y-12697500D02*
G75*
G02*
X12973867Y-12697500I20000J0D01*
G01*
X13160000Y-12447500D02*
G75*
G02*
X13120000Y-12447500I-20000J0D01*
G01*
X13120000Y-12447500D02*
G75*
G02*
X13160000Y-12447500I20000J0D01*
G01*
X13170000Y-7220000D02*
G75*
G02*
X13130000Y-7220000I-20000J0D01*
G01*
X13130000Y-7220000D02*
G75*
G02*
X13170000Y-7220000I20000J0D01*
G01*
X10599000Y-4902200D02*
X10599000Y-4952200D01*
X10574000Y-4927200D02*
X10624000Y-4927200D01*
X10669294Y-4732494D02*
X10669294Y-4782494D01*
X10644294Y-4757494D02*
X10694294Y-4757494D01*
X10669294Y-5071906D02*
X10669294Y-5121906D01*
X10644294Y-5096906D02*
X10694294Y-5096906D01*
X10839000Y-4662200D02*
X10839000Y-4712200D01*
X10814000Y-4687200D02*
X10864000Y-4687200D01*
X10839000Y-5142200D02*
X10839000Y-5192200D01*
X10814000Y-5167200D02*
X10864000Y-5167200D01*
X11008706Y-4732494D02*
X11008706Y-4782494D01*
X10983706Y-4757494D02*
X11033706Y-4757494D01*
X11008706Y-5071906D02*
X11008706Y-5121906D01*
X10983706Y-5096906D02*
X11033706Y-5096906D01*
X11079000Y-4902200D02*
X11079000Y-4952200D01*
X11054000Y-4927200D02*
X11104000Y-4927200D01*
X11135356Y-6496356D02*
X11135356Y-6425644D01*
X11064644Y-6425644D01*
X11064644Y-6496356D01*
X11135356Y-6496356D01*
X11135356Y-6750356D02*
X11135356Y-6679644D01*
X11064644Y-6679644D01*
X11064644Y-6750356D01*
X11135356Y-6750356D01*
X11135356Y-7004356D02*
X11135356Y-6933644D01*
X11064644Y-6933644D01*
X11064644Y-7004356D01*
X11135356Y-7004356D01*
X11135356Y-7258356D02*
X11135356Y-7187644D01*
X11064644Y-7187644D01*
X11064644Y-7258356D01*
X11135356Y-7258356D01*
X11135356Y-7512356D02*
X11135356Y-7441644D01*
X11064644Y-7441644D01*
X11064644Y-7512356D01*
X11135356Y-7512356D01*
X11135356Y-7766356D02*
X11135356Y-7695644D01*
X11064644Y-7695644D01*
X11064644Y-7766356D01*
X11135356Y-7766356D01*
X11135356Y-8020356D02*
X11135356Y-7949644D01*
X11064644Y-7949644D01*
X11064644Y-8020356D01*
X11135356Y-8020356D01*
X11967356Y-11900356D02*
X11967356Y-11829644D01*
X11896644Y-11829644D01*
X11896644Y-11900356D01*
X11967356Y-11900356D01*
X12221356Y-11900356D02*
X12221356Y-11829644D01*
X12150644Y-11829644D01*
X12150644Y-11900356D01*
X12221356Y-11900356D01*
X12475356Y-11900356D02*
X12475356Y-11829644D01*
X12404644Y-11829644D01*
X12404644Y-11900356D01*
X12475356Y-11900356D01*
X12729356Y-11900356D02*
X12729356Y-11829644D01*
X12658644Y-11829644D01*
X12658644Y-11900356D01*
X12729356Y-11900356D01*
X12983356Y-11900356D02*
X12983356Y-11829644D01*
X12912644Y-11829644D01*
X12912644Y-11900356D01*
X12983356Y-11900356D01*
X13429856Y-5500356D02*
X13429856Y-5429644D01*
X13359144Y-5429644D01*
X13359144Y-5500356D01*
X13429856Y-5500356D01*
X13429856Y-5750356D02*
X13429856Y-5679644D01*
X13359144Y-5679644D01*
X13359144Y-5750356D01*
X13429856Y-5750356D01*
D13*
X13260000Y-15357000D02*
X13325000Y-15292000D01*
X13260000Y-15227000D01*
X13195000Y-15292000D01*
X13260000Y-15357000D01*
X13260000Y-15865000D02*
X13325000Y-15800000D01*
X13260000Y-15735000D01*
X13195000Y-15800000D01*
X13260000Y-15865000D01*
D14*
X10679000Y-4767200D02*
X10999000Y-5087200D01*
X10999000Y-4767200D02*
X10679000Y-5087200D01*
X10999000Y-4927200D02*
G75*
G02*
X10679000Y-4927200I-160000J0D01*
G01*
X10679000Y-4927200D02*
G75*
G02*
X10999000Y-4927200I160000J0D01*
G01*
D11*
X10697277Y-17841184D02*
X10697277Y-17641184D01*
X10697277Y-17641184D02*
X10744896Y-17641184D01*
X10744896Y-17641184D02*
X10773467Y-17650708D01*
X10773467Y-17650708D02*
X10792515Y-17669755D01*
X10792515Y-17669755D02*
X10802039Y-17688803D01*
X10802039Y-17688803D02*
X10811563Y-17726898D01*
X10811563Y-17726898D02*
X10811563Y-17755470D01*
X10811563Y-17755470D02*
X10802039Y-17793565D01*
X10802039Y-17793565D02*
X10792515Y-17812612D01*
X10792515Y-17812612D02*
X10773467Y-17831660D01*
X10773467Y-17831660D02*
X10744896Y-17841184D01*
X10744896Y-17841184D02*
X10697277Y-17841184D01*
X10897277Y-17841184D02*
X10897277Y-17707850D01*
X10897277Y-17745946D02*
X10906801Y-17726898D01*
X10906801Y-17726898D02*
X10916324Y-17717374D01*
X10916324Y-17717374D02*
X10935372Y-17707850D01*
X10935372Y-17707850D02*
X10954420Y-17707850D01*
X11021086Y-17841184D02*
X11021086Y-17707850D01*
X11021086Y-17641184D02*
X11011563Y-17650708D01*
X11011563Y-17650708D02*
X11021086Y-17660231D01*
X11021086Y-17660231D02*
X11030610Y-17650708D01*
X11030610Y-17650708D02*
X11021086Y-17641184D01*
X11021086Y-17641184D02*
X11021086Y-17660231D01*
X11144896Y-17841184D02*
X11125848Y-17831660D01*
X11125848Y-17831660D02*
X11116324Y-17812612D01*
X11116324Y-17812612D02*
X11116324Y-17641184D01*
X11249658Y-17841184D02*
X11230610Y-17831660D01*
X11230610Y-17831660D02*
X11221086Y-17812612D01*
X11221086Y-17812612D02*
X11221086Y-17641184D01*
X11478229Y-17841184D02*
X11478229Y-17641184D01*
X11478229Y-17641184D02*
X11544896Y-17784041D01*
X11544896Y-17784041D02*
X11611562Y-17641184D01*
X11611562Y-17641184D02*
X11611562Y-17841184D01*
X11792515Y-17841184D02*
X11792515Y-17736422D01*
X11792515Y-17736422D02*
X11782991Y-17717374D01*
X11782991Y-17717374D02*
X11763943Y-17707850D01*
X11763943Y-17707850D02*
X11725848Y-17707850D01*
X11725848Y-17707850D02*
X11706801Y-17717374D01*
X11792515Y-17831660D02*
X11773467Y-17841184D01*
X11773467Y-17841184D02*
X11725848Y-17841184D01*
X11725848Y-17841184D02*
X11706801Y-17831660D01*
X11706801Y-17831660D02*
X11697277Y-17812612D01*
X11697277Y-17812612D02*
X11697277Y-17793565D01*
X11697277Y-17793565D02*
X11706801Y-17774517D01*
X11706801Y-17774517D02*
X11725848Y-17764993D01*
X11725848Y-17764993D02*
X11773467Y-17764993D01*
X11773467Y-17764993D02*
X11792515Y-17755470D01*
X11887753Y-17707850D02*
X11887753Y-17907850D01*
X11887753Y-17717374D02*
X11906801Y-17707850D01*
X11906801Y-17707850D02*
X11944896Y-17707850D01*
X11944896Y-17707850D02*
X11963943Y-17717374D01*
X11963943Y-17717374D02*
X11973467Y-17726898D01*
X11973467Y-17726898D02*
X11982991Y-17745946D01*
X11982991Y-17745946D02*
X11982991Y-17803089D01*
X11982991Y-17803089D02*
X11973467Y-17822136D01*
X11973467Y-17822136D02*
X11963943Y-17831660D01*
X11963943Y-17831660D02*
X11944896Y-17841184D01*
X11944896Y-17841184D02*
X11906801Y-17841184D01*
X11906801Y-17841184D02*
X11887753Y-17831660D01*
X12068705Y-17822136D02*
X12078229Y-17831660D01*
X12078229Y-17831660D02*
X12068705Y-17841184D01*
X12068705Y-17841184D02*
X12059182Y-17831660D01*
X12059182Y-17831660D02*
X12068705Y-17822136D01*
X12068705Y-17822136D02*
X12068705Y-17841184D01*
X12068705Y-17717374D02*
X12078229Y-17726898D01*
X12078229Y-17726898D02*
X12068705Y-17736422D01*
X12068705Y-17736422D02*
X12059182Y-17726898D01*
X12059182Y-17726898D02*
X12068705Y-17717374D01*
X12068705Y-17717374D02*
X12068705Y-17736422D01*
D12*
X10406500Y-18154700D02*
X10436500Y-18184700D01*
X10436500Y-18154700D02*
X10406500Y-18184700D01*
D11*
X10735372Y-18061184D02*
X10754420Y-18061184D01*
X10754420Y-18061184D02*
X10773467Y-18070708D01*
X10773467Y-18070708D02*
X10782991Y-18080231D01*
X10782991Y-18080231D02*
X10792515Y-18099279D01*
X10792515Y-18099279D02*
X10802039Y-18137374D01*
X10802039Y-18137374D02*
X10802039Y-18184993D01*
X10802039Y-18184993D02*
X10792515Y-18223089D01*
X10792515Y-18223089D02*
X10782991Y-18242136D01*
X10782991Y-18242136D02*
X10773467Y-18251660D01*
X10773467Y-18251660D02*
X10754420Y-18261184D01*
X10754420Y-18261184D02*
X10735372Y-18261184D01*
X10735372Y-18261184D02*
X10716324Y-18251660D01*
X10716324Y-18251660D02*
X10706801Y-18242136D01*
X10706801Y-18242136D02*
X10697277Y-18223089D01*
X10697277Y-18223089D02*
X10687753Y-18184993D01*
X10687753Y-18184993D02*
X10687753Y-18137374D01*
X10687753Y-18137374D02*
X10697277Y-18099279D01*
X10697277Y-18099279D02*
X10706801Y-18080231D01*
X10706801Y-18080231D02*
X10716324Y-18070708D01*
X10716324Y-18070708D02*
X10735372Y-18061184D01*
X10887753Y-18242136D02*
X10897277Y-18251660D01*
X10897277Y-18251660D02*
X10887753Y-18261184D01*
X10887753Y-18261184D02*
X10878229Y-18251660D01*
X10878229Y-18251660D02*
X10887753Y-18242136D01*
X10887753Y-18242136D02*
X10887753Y-18261184D01*
X10963944Y-18061184D02*
X11087753Y-18061184D01*
X11087753Y-18061184D02*
X11021086Y-18137374D01*
X11021086Y-18137374D02*
X11049658Y-18137374D01*
X11049658Y-18137374D02*
X11068705Y-18146898D01*
X11068705Y-18146898D02*
X11078229Y-18156422D01*
X11078229Y-18156422D02*
X11087753Y-18175470D01*
X11087753Y-18175470D02*
X11087753Y-18223089D01*
X11087753Y-18223089D02*
X11078229Y-18242136D01*
X11078229Y-18242136D02*
X11068705Y-18251660D01*
X11068705Y-18251660D02*
X11049658Y-18261184D01*
X11049658Y-18261184D02*
X10992515Y-18261184D01*
X10992515Y-18261184D02*
X10973467Y-18251660D01*
X10973467Y-18251660D02*
X10963944Y-18242136D01*
X11211562Y-18061184D02*
X11230610Y-18061184D01*
X11230610Y-18061184D02*
X11249658Y-18070708D01*
X11249658Y-18070708D02*
X11259182Y-18080231D01*
X11259182Y-18080231D02*
X11268705Y-18099279D01*
X11268705Y-18099279D02*
X11278229Y-18137374D01*
X11278229Y-18137374D02*
X11278229Y-18184993D01*
X11278229Y-18184993D02*
X11268705Y-18223089D01*
X11268705Y-18223089D02*
X11259182Y-18242136D01*
X11259182Y-18242136D02*
X11249658Y-18251660D01*
X11249658Y-18251660D02*
X11230610Y-18261184D01*
X11230610Y-18261184D02*
X11211562Y-18261184D01*
X11211562Y-18261184D02*
X11192515Y-18251660D01*
X11192515Y-18251660D02*
X11182991Y-18242136D01*
X11182991Y-18242136D02*
X11173467Y-18223089D01*
X11173467Y-18223089D02*
X11163944Y-18184993D01*
X11163944Y-18184993D02*
X11163944Y-18137374D01*
X11163944Y-18137374D02*
X11173467Y-18099279D01*
X11173467Y-18099279D02*
X11182991Y-18080231D01*
X11182991Y-18080231D02*
X11192515Y-18070708D01*
X11192515Y-18070708D02*
X11211562Y-18061184D01*
X11402039Y-18061184D02*
X11421086Y-18061184D01*
X11421086Y-18061184D02*
X11440134Y-18070708D01*
X11440134Y-18070708D02*
X11449658Y-18080231D01*
X11449658Y-18080231D02*
X11459182Y-18099279D01*
X11459182Y-18099279D02*
X11468705Y-18137374D01*
X11468705Y-18137374D02*
X11468705Y-18184993D01*
X11468705Y-18184993D02*
X11459182Y-18223089D01*
X11459182Y-18223089D02*
X11449658Y-18242136D01*
X11449658Y-18242136D02*
X11440134Y-18251660D01*
X11440134Y-18251660D02*
X11421086Y-18261184D01*
X11421086Y-18261184D02*
X11402039Y-18261184D01*
X11402039Y-18261184D02*
X11382991Y-18251660D01*
X11382991Y-18251660D02*
X11373467Y-18242136D01*
X11373467Y-18242136D02*
X11363943Y-18223089D01*
X11363943Y-18223089D02*
X11354420Y-18184993D01*
X11354420Y-18184993D02*
X11354420Y-18137374D01*
X11354420Y-18137374D02*
X11363943Y-18099279D01*
X11363943Y-18099279D02*
X11373467Y-18080231D01*
X11373467Y-18080231D02*
X11382991Y-18070708D01*
X11382991Y-18070708D02*
X11402039Y-18061184D01*
X11554420Y-18261184D02*
X11554420Y-18127850D01*
X11554420Y-18146898D02*
X11563943Y-18137374D01*
X11563943Y-18137374D02*
X11582991Y-18127850D01*
X11582991Y-18127850D02*
X11611563Y-18127850D01*
X11611563Y-18127850D02*
X11630610Y-18137374D01*
X11630610Y-18137374D02*
X11640134Y-18156422D01*
X11640134Y-18156422D02*
X11640134Y-18261184D01*
X11640134Y-18156422D02*
X11649658Y-18137374D01*
X11649658Y-18137374D02*
X11668705Y-18127850D01*
X11668705Y-18127850D02*
X11697277Y-18127850D01*
X11697277Y-18127850D02*
X11716324Y-18137374D01*
X11716324Y-18137374D02*
X11725848Y-18156422D01*
X11725848Y-18156422D02*
X11725848Y-18261184D01*
X11821086Y-18261184D02*
X11821086Y-18127850D01*
X11821086Y-18146898D02*
X11830610Y-18137374D01*
X11830610Y-18137374D02*
X11849658Y-18127850D01*
X11849658Y-18127850D02*
X11878229Y-18127850D01*
X11878229Y-18127850D02*
X11897277Y-18137374D01*
X11897277Y-18137374D02*
X11906801Y-18156422D01*
X11906801Y-18156422D02*
X11906801Y-18261184D01*
X11906801Y-18156422D02*
X11916324Y-18137374D01*
X11916324Y-18137374D02*
X11935372Y-18127850D01*
X11935372Y-18127850D02*
X11963943Y-18127850D01*
X11963943Y-18127850D02*
X11982991Y-18137374D01*
X11982991Y-18137374D02*
X11992515Y-18156422D01*
X11992515Y-18156422D02*
X11992515Y-18261184D01*
X12382991Y-18051660D02*
X12211563Y-18308803D01*
X12640134Y-18061184D02*
X12659182Y-18061184D01*
X12659182Y-18061184D02*
X12678229Y-18070708D01*
X12678229Y-18070708D02*
X12687753Y-18080231D01*
X12687753Y-18080231D02*
X12697277Y-18099279D01*
X12697277Y-18099279D02*
X12706801Y-18137374D01*
X12706801Y-18137374D02*
X12706801Y-18184993D01*
X12706801Y-18184993D02*
X12697277Y-18223089D01*
X12697277Y-18223089D02*
X12687753Y-18242136D01*
X12687753Y-18242136D02*
X12678229Y-18251660D01*
X12678229Y-18251660D02*
X12659182Y-18261184D01*
X12659182Y-18261184D02*
X12640134Y-18261184D01*
X12640134Y-18261184D02*
X12621086Y-18251660D01*
X12621086Y-18251660D02*
X12611563Y-18242136D01*
X12611563Y-18242136D02*
X12602039Y-18223089D01*
X12602039Y-18223089D02*
X12592515Y-18184993D01*
X12592515Y-18184993D02*
X12592515Y-18137374D01*
X12592515Y-18137374D02*
X12602039Y-18099279D01*
X12602039Y-18099279D02*
X12611563Y-18080231D01*
X12611563Y-18080231D02*
X12621086Y-18070708D01*
X12621086Y-18070708D02*
X12640134Y-18061184D01*
X12792515Y-18242136D02*
X12802039Y-18251660D01*
X12802039Y-18251660D02*
X12792515Y-18261184D01*
X12792515Y-18261184D02*
X12782991Y-18251660D01*
X12782991Y-18251660D02*
X12792515Y-18242136D01*
X12792515Y-18242136D02*
X12792515Y-18261184D01*
X12925848Y-18061184D02*
X12944896Y-18061184D01*
X12944896Y-18061184D02*
X12963944Y-18070708D01*
X12963944Y-18070708D02*
X12973467Y-18080231D01*
X12973467Y-18080231D02*
X12982991Y-18099279D01*
X12982991Y-18099279D02*
X12992515Y-18137374D01*
X12992515Y-18137374D02*
X12992515Y-18184993D01*
X12992515Y-18184993D02*
X12982991Y-18223089D01*
X12982991Y-18223089D02*
X12973467Y-18242136D01*
X12973467Y-18242136D02*
X12963944Y-18251660D01*
X12963944Y-18251660D02*
X12944896Y-18261184D01*
X12944896Y-18261184D02*
X12925848Y-18261184D01*
X12925848Y-18261184D02*
X12906801Y-18251660D01*
X12906801Y-18251660D02*
X12897277Y-18242136D01*
X12897277Y-18242136D02*
X12887753Y-18223089D01*
X12887753Y-18223089D02*
X12878229Y-18184993D01*
X12878229Y-18184993D02*
X12878229Y-18137374D01*
X12878229Y-18137374D02*
X12887753Y-18099279D01*
X12887753Y-18099279D02*
X12897277Y-18080231D01*
X12897277Y-18080231D02*
X12906801Y-18070708D01*
X12906801Y-18070708D02*
X12925848Y-18061184D01*
X13182991Y-18261184D02*
X13068706Y-18261184D01*
X13125848Y-18261184D02*
X13125848Y-18061184D01*
X13125848Y-18061184D02*
X13106801Y-18089755D01*
X13106801Y-18089755D02*
X13087753Y-18108803D01*
X13087753Y-18108803D02*
X13068706Y-18118327D01*
X13373467Y-18261184D02*
X13259182Y-18261184D01*
X13316325Y-18261184D02*
X13316325Y-18061184D01*
X13316325Y-18061184D02*
X13297277Y-18089755D01*
X13297277Y-18089755D02*
X13278229Y-18108803D01*
X13278229Y-18108803D02*
X13259182Y-18118327D01*
X13487753Y-18146898D02*
X13468706Y-18137374D01*
X13468706Y-18137374D02*
X13459182Y-18127850D01*
X13459182Y-18127850D02*
X13449658Y-18108803D01*
X13449658Y-18108803D02*
X13449658Y-18099279D01*
X13449658Y-18099279D02*
X13459182Y-18080231D01*
X13459182Y-18080231D02*
X13468706Y-18070708D01*
X13468706Y-18070708D02*
X13487753Y-18061184D01*
X13487753Y-18061184D02*
X13525848Y-18061184D01*
X13525848Y-18061184D02*
X13544896Y-18070708D01*
X13544896Y-18070708D02*
X13554420Y-18080231D01*
X13554420Y-18080231D02*
X13563944Y-18099279D01*
X13563944Y-18099279D02*
X13563944Y-18108803D01*
X13563944Y-18108803D02*
X13554420Y-18127850D01*
X13554420Y-18127850D02*
X13544896Y-18137374D01*
X13544896Y-18137374D02*
X13525848Y-18146898D01*
X13525848Y-18146898D02*
X13487753Y-18146898D01*
X13487753Y-18146898D02*
X13468706Y-18156422D01*
X13468706Y-18156422D02*
X13459182Y-18165946D01*
X13459182Y-18165946D02*
X13449658Y-18184993D01*
X13449658Y-18184993D02*
X13449658Y-18223089D01*
X13449658Y-18223089D02*
X13459182Y-18242136D01*
X13459182Y-18242136D02*
X13468706Y-18251660D01*
X13468706Y-18251660D02*
X13487753Y-18261184D01*
X13487753Y-18261184D02*
X13525848Y-18261184D01*
X13525848Y-18261184D02*
X13544896Y-18251660D01*
X13544896Y-18251660D02*
X13554420Y-18242136D01*
X13554420Y-18242136D02*
X13563944Y-18223089D01*
X13563944Y-18223089D02*
X13563944Y-18184993D01*
X13563944Y-18184993D02*
X13554420Y-18165946D01*
X13554420Y-18165946D02*
X13544896Y-18156422D01*
X13544896Y-18156422D02*
X13525848Y-18146898D01*
X13640134Y-18061184D02*
X13640134Y-18099279D01*
X13716325Y-18061184D02*
X13716325Y-18099279D01*
X14011563Y-18337374D02*
X14002039Y-18327850D01*
X14002039Y-18327850D02*
X13982991Y-18299279D01*
X13982991Y-18299279D02*
X13973468Y-18280231D01*
X13973468Y-18280231D02*
X13963944Y-18251660D01*
X13963944Y-18251660D02*
X13954420Y-18204041D01*
X13954420Y-18204041D02*
X13954420Y-18165946D01*
X13954420Y-18165946D02*
X13963944Y-18118327D01*
X13963944Y-18118327D02*
X13973468Y-18089755D01*
X13973468Y-18089755D02*
X13982991Y-18070708D01*
X13982991Y-18070708D02*
X14002039Y-18042136D01*
X14002039Y-18042136D02*
X14011563Y-18032612D01*
X14192515Y-18261184D02*
X14078229Y-18261184D01*
X14135372Y-18261184D02*
X14135372Y-18061184D01*
X14135372Y-18061184D02*
X14116325Y-18089755D01*
X14116325Y-18089755D02*
X14097277Y-18108803D01*
X14097277Y-18108803D02*
X14078229Y-18118327D01*
X14316325Y-18061184D02*
X14335372Y-18061184D01*
X14335372Y-18061184D02*
X14354420Y-18070708D01*
X14354420Y-18070708D02*
X14363944Y-18080231D01*
X14363944Y-18080231D02*
X14373468Y-18099279D01*
X14373468Y-18099279D02*
X14382991Y-18137374D01*
X14382991Y-18137374D02*
X14382991Y-18184993D01*
X14382991Y-18184993D02*
X14373468Y-18223089D01*
X14373468Y-18223089D02*
X14363944Y-18242136D01*
X14363944Y-18242136D02*
X14354420Y-18251660D01*
X14354420Y-18251660D02*
X14335372Y-18261184D01*
X14335372Y-18261184D02*
X14316325Y-18261184D01*
X14316325Y-18261184D02*
X14297277Y-18251660D01*
X14297277Y-18251660D02*
X14287753Y-18242136D01*
X14287753Y-18242136D02*
X14278229Y-18223089D01*
X14278229Y-18223089D02*
X14268706Y-18184993D01*
X14268706Y-18184993D02*
X14268706Y-18137374D01*
X14268706Y-18137374D02*
X14278229Y-18099279D01*
X14278229Y-18099279D02*
X14287753Y-18080231D01*
X14287753Y-18080231D02*
X14297277Y-18070708D01*
X14297277Y-18070708D02*
X14316325Y-18061184D01*
X14506801Y-18061184D02*
X14525849Y-18061184D01*
X14525849Y-18061184D02*
X14544896Y-18070708D01*
X14544896Y-18070708D02*
X14554420Y-18080231D01*
X14554420Y-18080231D02*
X14563944Y-18099279D01*
X14563944Y-18099279D02*
X14573468Y-18137374D01*
X14573468Y-18137374D02*
X14573468Y-18184993D01*
X14573468Y-18184993D02*
X14563944Y-18223089D01*
X14563944Y-18223089D02*
X14554420Y-18242136D01*
X14554420Y-18242136D02*
X14544896Y-18251660D01*
X14544896Y-18251660D02*
X14525849Y-18261184D01*
X14525849Y-18261184D02*
X14506801Y-18261184D01*
X14506801Y-18261184D02*
X14487753Y-18251660D01*
X14487753Y-18251660D02*
X14478229Y-18242136D01*
X14478229Y-18242136D02*
X14468706Y-18223089D01*
X14468706Y-18223089D02*
X14459182Y-18184993D01*
X14459182Y-18184993D02*
X14459182Y-18137374D01*
X14459182Y-18137374D02*
X14468706Y-18099279D01*
X14468706Y-18099279D02*
X14478229Y-18080231D01*
X14478229Y-18080231D02*
X14487753Y-18070708D01*
X14487753Y-18070708D02*
X14506801Y-18061184D01*
X14811563Y-18261184D02*
X14811563Y-18061184D01*
X14897277Y-18261184D02*
X14897277Y-18156422D01*
X14897277Y-18156422D02*
X14887753Y-18137374D01*
X14887753Y-18137374D02*
X14868706Y-18127850D01*
X14868706Y-18127850D02*
X14840134Y-18127850D01*
X14840134Y-18127850D02*
X14821087Y-18137374D01*
X14821087Y-18137374D02*
X14811563Y-18146898D01*
X15021087Y-18261184D02*
X15002039Y-18251660D01*
X15002039Y-18251660D02*
X14992515Y-18242136D01*
X14992515Y-18242136D02*
X14982991Y-18223089D01*
X14982991Y-18223089D02*
X14982991Y-18165946D01*
X14982991Y-18165946D02*
X14992515Y-18146898D01*
X14992515Y-18146898D02*
X15002039Y-18137374D01*
X15002039Y-18137374D02*
X15021087Y-18127850D01*
X15021087Y-18127850D02*
X15049658Y-18127850D01*
X15049658Y-18127850D02*
X15068706Y-18137374D01*
X15068706Y-18137374D02*
X15078230Y-18146898D01*
X15078230Y-18146898D02*
X15087753Y-18165946D01*
X15087753Y-18165946D02*
X15087753Y-18223089D01*
X15087753Y-18223089D02*
X15078230Y-18242136D01*
X15078230Y-18242136D02*
X15068706Y-18251660D01*
X15068706Y-18251660D02*
X15049658Y-18261184D01*
X15049658Y-18261184D02*
X15021087Y-18261184D01*
X15202039Y-18261184D02*
X15182991Y-18251660D01*
X15182991Y-18251660D02*
X15173468Y-18232612D01*
X15173468Y-18232612D02*
X15173468Y-18061184D01*
X15354420Y-18251660D02*
X15335372Y-18261184D01*
X15335372Y-18261184D02*
X15297277Y-18261184D01*
X15297277Y-18261184D02*
X15278230Y-18251660D01*
X15278230Y-18251660D02*
X15268706Y-18232612D01*
X15268706Y-18232612D02*
X15268706Y-18156422D01*
X15268706Y-18156422D02*
X15278230Y-18137374D01*
X15278230Y-18137374D02*
X15297277Y-18127850D01*
X15297277Y-18127850D02*
X15335372Y-18127850D01*
X15335372Y-18127850D02*
X15354420Y-18137374D01*
X15354420Y-18137374D02*
X15363944Y-18156422D01*
X15363944Y-18156422D02*
X15363944Y-18175470D01*
X15363944Y-18175470D02*
X15268706Y-18194517D01*
X15440134Y-18251660D02*
X15459182Y-18261184D01*
X15459182Y-18261184D02*
X15497277Y-18261184D01*
X15497277Y-18261184D02*
X15516325Y-18251660D01*
X15516325Y-18251660D02*
X15525849Y-18232612D01*
X15525849Y-18232612D02*
X15525849Y-18223089D01*
X15525849Y-18223089D02*
X15516325Y-18204041D01*
X15516325Y-18204041D02*
X15497277Y-18194517D01*
X15497277Y-18194517D02*
X15468706Y-18194517D01*
X15468706Y-18194517D02*
X15449658Y-18184993D01*
X15449658Y-18184993D02*
X15440134Y-18165946D01*
X15440134Y-18165946D02*
X15440134Y-18156422D01*
X15440134Y-18156422D02*
X15449658Y-18137374D01*
X15449658Y-18137374D02*
X15468706Y-18127850D01*
X15468706Y-18127850D02*
X15497277Y-18127850D01*
X15497277Y-18127850D02*
X15516325Y-18137374D01*
X15592515Y-18337374D02*
X15602039Y-18327850D01*
X15602039Y-18327850D02*
X15621087Y-18299279D01*
X15621087Y-18299279D02*
X15630611Y-18280231D01*
X15630611Y-18280231D02*
X15640134Y-18251660D01*
X15640134Y-18251660D02*
X15649658Y-18204041D01*
X15649658Y-18204041D02*
X15649658Y-18165946D01*
X15649658Y-18165946D02*
X15640134Y-18118327D01*
X15640134Y-18118327D02*
X15630611Y-18089755D01*
X15630611Y-18089755D02*
X15621087Y-18070708D01*
X15621087Y-18070708D02*
X15602039Y-18042136D01*
X15602039Y-18042136D02*
X15592515Y-18032612D01*
D12*
X10436500Y-18433700D02*
G75*
G02*
X10396500Y-18433700I-20000J0D01*
G01*
X10396500Y-18433700D02*
G75*
G02*
X10436500Y-18433700I20000J0D01*
G01*
D11*
X10735372Y-18325184D02*
X10754420Y-18325184D01*
X10754420Y-18325184D02*
X10773467Y-18334708D01*
X10773467Y-18334708D02*
X10782991Y-18344231D01*
X10782991Y-18344231D02*
X10792515Y-18363279D01*
X10792515Y-18363279D02*
X10802039Y-18401374D01*
X10802039Y-18401374D02*
X10802039Y-18448993D01*
X10802039Y-18448993D02*
X10792515Y-18487089D01*
X10792515Y-18487089D02*
X10782991Y-18506136D01*
X10782991Y-18506136D02*
X10773467Y-18515660D01*
X10773467Y-18515660D02*
X10754420Y-18525184D01*
X10754420Y-18525184D02*
X10735372Y-18525184D01*
X10735372Y-18525184D02*
X10716324Y-18515660D01*
X10716324Y-18515660D02*
X10706801Y-18506136D01*
X10706801Y-18506136D02*
X10697277Y-18487089D01*
X10697277Y-18487089D02*
X10687753Y-18448993D01*
X10687753Y-18448993D02*
X10687753Y-18401374D01*
X10687753Y-18401374D02*
X10697277Y-18363279D01*
X10697277Y-18363279D02*
X10706801Y-18344231D01*
X10706801Y-18344231D02*
X10716324Y-18334708D01*
X10716324Y-18334708D02*
X10735372Y-18325184D01*
X10887753Y-18506136D02*
X10897277Y-18515660D01*
X10897277Y-18515660D02*
X10887753Y-18525184D01*
X10887753Y-18525184D02*
X10878229Y-18515660D01*
X10878229Y-18515660D02*
X10887753Y-18506136D01*
X10887753Y-18506136D02*
X10887753Y-18525184D01*
X11068705Y-18391850D02*
X11068705Y-18525184D01*
X11021086Y-18315660D02*
X10973467Y-18458517D01*
X10973467Y-18458517D02*
X11097277Y-18458517D01*
X11211562Y-18325184D02*
X11230610Y-18325184D01*
X11230610Y-18325184D02*
X11249658Y-18334708D01*
X11249658Y-18334708D02*
X11259182Y-18344231D01*
X11259182Y-18344231D02*
X11268705Y-18363279D01*
X11268705Y-18363279D02*
X11278229Y-18401374D01*
X11278229Y-18401374D02*
X11278229Y-18448993D01*
X11278229Y-18448993D02*
X11268705Y-18487089D01*
X11268705Y-18487089D02*
X11259182Y-18506136D01*
X11259182Y-18506136D02*
X11249658Y-18515660D01*
X11249658Y-18515660D02*
X11230610Y-18525184D01*
X11230610Y-18525184D02*
X11211562Y-18525184D01*
X11211562Y-18525184D02*
X11192515Y-18515660D01*
X11192515Y-18515660D02*
X11182991Y-18506136D01*
X11182991Y-18506136D02*
X11173467Y-18487089D01*
X11173467Y-18487089D02*
X11163944Y-18448993D01*
X11163944Y-18448993D02*
X11163944Y-18401374D01*
X11163944Y-18401374D02*
X11173467Y-18363279D01*
X11173467Y-18363279D02*
X11182991Y-18344231D01*
X11182991Y-18344231D02*
X11192515Y-18334708D01*
X11192515Y-18334708D02*
X11211562Y-18325184D01*
X11402039Y-18325184D02*
X11421086Y-18325184D01*
X11421086Y-18325184D02*
X11440134Y-18334708D01*
X11440134Y-18334708D02*
X11449658Y-18344231D01*
X11449658Y-18344231D02*
X11459182Y-18363279D01*
X11459182Y-18363279D02*
X11468705Y-18401374D01*
X11468705Y-18401374D02*
X11468705Y-18448993D01*
X11468705Y-18448993D02*
X11459182Y-18487089D01*
X11459182Y-18487089D02*
X11449658Y-18506136D01*
X11449658Y-18506136D02*
X11440134Y-18515660D01*
X11440134Y-18515660D02*
X11421086Y-18525184D01*
X11421086Y-18525184D02*
X11402039Y-18525184D01*
X11402039Y-18525184D02*
X11382991Y-18515660D01*
X11382991Y-18515660D02*
X11373467Y-18506136D01*
X11373467Y-18506136D02*
X11363943Y-18487089D01*
X11363943Y-18487089D02*
X11354420Y-18448993D01*
X11354420Y-18448993D02*
X11354420Y-18401374D01*
X11354420Y-18401374D02*
X11363943Y-18363279D01*
X11363943Y-18363279D02*
X11373467Y-18344231D01*
X11373467Y-18344231D02*
X11382991Y-18334708D01*
X11382991Y-18334708D02*
X11402039Y-18325184D01*
X11554420Y-18525184D02*
X11554420Y-18391850D01*
X11554420Y-18410898D02*
X11563943Y-18401374D01*
X11563943Y-18401374D02*
X11582991Y-18391850D01*
X11582991Y-18391850D02*
X11611563Y-18391850D01*
X11611563Y-18391850D02*
X11630610Y-18401374D01*
X11630610Y-18401374D02*
X11640134Y-18420422D01*
X11640134Y-18420422D02*
X11640134Y-18525184D01*
X11640134Y-18420422D02*
X11649658Y-18401374D01*
X11649658Y-18401374D02*
X11668705Y-18391850D01*
X11668705Y-18391850D02*
X11697277Y-18391850D01*
X11697277Y-18391850D02*
X11716324Y-18401374D01*
X11716324Y-18401374D02*
X11725848Y-18420422D01*
X11725848Y-18420422D02*
X11725848Y-18525184D01*
X11821086Y-18525184D02*
X11821086Y-18391850D01*
X11821086Y-18410898D02*
X11830610Y-18401374D01*
X11830610Y-18401374D02*
X11849658Y-18391850D01*
X11849658Y-18391850D02*
X11878229Y-18391850D01*
X11878229Y-18391850D02*
X11897277Y-18401374D01*
X11897277Y-18401374D02*
X11906801Y-18420422D01*
X11906801Y-18420422D02*
X11906801Y-18525184D01*
X11906801Y-18420422D02*
X11916324Y-18401374D01*
X11916324Y-18401374D02*
X11935372Y-18391850D01*
X11935372Y-18391850D02*
X11963943Y-18391850D01*
X11963943Y-18391850D02*
X11982991Y-18401374D01*
X11982991Y-18401374D02*
X11992515Y-18420422D01*
X11992515Y-18420422D02*
X11992515Y-18525184D01*
X12382991Y-18315660D02*
X12211563Y-18572803D01*
X12640134Y-18325184D02*
X12659182Y-18325184D01*
X12659182Y-18325184D02*
X12678229Y-18334708D01*
X12678229Y-18334708D02*
X12687753Y-18344231D01*
X12687753Y-18344231D02*
X12697277Y-18363279D01*
X12697277Y-18363279D02*
X12706801Y-18401374D01*
X12706801Y-18401374D02*
X12706801Y-18448993D01*
X12706801Y-18448993D02*
X12697277Y-18487089D01*
X12697277Y-18487089D02*
X12687753Y-18506136D01*
X12687753Y-18506136D02*
X12678229Y-18515660D01*
X12678229Y-18515660D02*
X12659182Y-18525184D01*
X12659182Y-18525184D02*
X12640134Y-18525184D01*
X12640134Y-18525184D02*
X12621086Y-18515660D01*
X12621086Y-18515660D02*
X12611563Y-18506136D01*
X12611563Y-18506136D02*
X12602039Y-18487089D01*
X12602039Y-18487089D02*
X12592515Y-18448993D01*
X12592515Y-18448993D02*
X12592515Y-18401374D01*
X12592515Y-18401374D02*
X12602039Y-18363279D01*
X12602039Y-18363279D02*
X12611563Y-18344231D01*
X12611563Y-18344231D02*
X12621086Y-18334708D01*
X12621086Y-18334708D02*
X12640134Y-18325184D01*
X12792515Y-18506136D02*
X12802039Y-18515660D01*
X12802039Y-18515660D02*
X12792515Y-18525184D01*
X12792515Y-18525184D02*
X12782991Y-18515660D01*
X12782991Y-18515660D02*
X12792515Y-18506136D01*
X12792515Y-18506136D02*
X12792515Y-18525184D01*
X12925848Y-18325184D02*
X12944896Y-18325184D01*
X12944896Y-18325184D02*
X12963944Y-18334708D01*
X12963944Y-18334708D02*
X12973467Y-18344231D01*
X12973467Y-18344231D02*
X12982991Y-18363279D01*
X12982991Y-18363279D02*
X12992515Y-18401374D01*
X12992515Y-18401374D02*
X12992515Y-18448993D01*
X12992515Y-18448993D02*
X12982991Y-18487089D01*
X12982991Y-18487089D02*
X12973467Y-18506136D01*
X12973467Y-18506136D02*
X12963944Y-18515660D01*
X12963944Y-18515660D02*
X12944896Y-18525184D01*
X12944896Y-18525184D02*
X12925848Y-18525184D01*
X12925848Y-18525184D02*
X12906801Y-18515660D01*
X12906801Y-18515660D02*
X12897277Y-18506136D01*
X12897277Y-18506136D02*
X12887753Y-18487089D01*
X12887753Y-18487089D02*
X12878229Y-18448993D01*
X12878229Y-18448993D02*
X12878229Y-18401374D01*
X12878229Y-18401374D02*
X12887753Y-18363279D01*
X12887753Y-18363279D02*
X12897277Y-18344231D01*
X12897277Y-18344231D02*
X12906801Y-18334708D01*
X12906801Y-18334708D02*
X12925848Y-18325184D01*
X13182991Y-18525184D02*
X13068706Y-18525184D01*
X13125848Y-18525184D02*
X13125848Y-18325184D01*
X13125848Y-18325184D02*
X13106801Y-18353755D01*
X13106801Y-18353755D02*
X13087753Y-18372803D01*
X13087753Y-18372803D02*
X13068706Y-18382327D01*
X13363944Y-18325184D02*
X13268706Y-18325184D01*
X13268706Y-18325184D02*
X13259182Y-18420422D01*
X13259182Y-18420422D02*
X13268706Y-18410898D01*
X13268706Y-18410898D02*
X13287753Y-18401374D01*
X13287753Y-18401374D02*
X13335372Y-18401374D01*
X13335372Y-18401374D02*
X13354420Y-18410898D01*
X13354420Y-18410898D02*
X13363944Y-18420422D01*
X13363944Y-18420422D02*
X13373467Y-18439470D01*
X13373467Y-18439470D02*
X13373467Y-18487089D01*
X13373467Y-18487089D02*
X13363944Y-18506136D01*
X13363944Y-18506136D02*
X13354420Y-18515660D01*
X13354420Y-18515660D02*
X13335372Y-18525184D01*
X13335372Y-18525184D02*
X13287753Y-18525184D01*
X13287753Y-18525184D02*
X13268706Y-18515660D01*
X13268706Y-18515660D02*
X13259182Y-18506136D01*
X13440134Y-18325184D02*
X13573467Y-18325184D01*
X13573467Y-18325184D02*
X13487753Y-18525184D01*
X13640134Y-18325184D02*
X13640134Y-18363279D01*
X13716325Y-18325184D02*
X13716325Y-18363279D01*
X14011563Y-18601374D02*
X14002039Y-18591850D01*
X14002039Y-18591850D02*
X13982991Y-18563279D01*
X13982991Y-18563279D02*
X13973468Y-18544231D01*
X13973468Y-18544231D02*
X13963944Y-18515660D01*
X13963944Y-18515660D02*
X13954420Y-18468041D01*
X13954420Y-18468041D02*
X13954420Y-18429946D01*
X13954420Y-18429946D02*
X13963944Y-18382327D01*
X13963944Y-18382327D02*
X13973468Y-18353755D01*
X13973468Y-18353755D02*
X13982991Y-18334708D01*
X13982991Y-18334708D02*
X14002039Y-18306136D01*
X14002039Y-18306136D02*
X14011563Y-18296612D01*
X14192515Y-18525184D02*
X14078229Y-18525184D01*
X14135372Y-18525184D02*
X14135372Y-18325184D01*
X14135372Y-18325184D02*
X14116325Y-18353755D01*
X14116325Y-18353755D02*
X14097277Y-18372803D01*
X14097277Y-18372803D02*
X14078229Y-18382327D01*
X14259182Y-18325184D02*
X14382991Y-18325184D01*
X14382991Y-18325184D02*
X14316325Y-18401374D01*
X14316325Y-18401374D02*
X14344896Y-18401374D01*
X14344896Y-18401374D02*
X14363944Y-18410898D01*
X14363944Y-18410898D02*
X14373468Y-18420422D01*
X14373468Y-18420422D02*
X14382991Y-18439470D01*
X14382991Y-18439470D02*
X14382991Y-18487089D01*
X14382991Y-18487089D02*
X14373468Y-18506136D01*
X14373468Y-18506136D02*
X14363944Y-18515660D01*
X14363944Y-18515660D02*
X14344896Y-18525184D01*
X14344896Y-18525184D02*
X14287753Y-18525184D01*
X14287753Y-18525184D02*
X14268706Y-18515660D01*
X14268706Y-18515660D02*
X14259182Y-18506136D01*
X14621087Y-18525184D02*
X14621087Y-18325184D01*
X14706801Y-18525184D02*
X14706801Y-18420422D01*
X14706801Y-18420422D02*
X14697277Y-18401374D01*
X14697277Y-18401374D02*
X14678230Y-18391850D01*
X14678230Y-18391850D02*
X14649658Y-18391850D01*
X14649658Y-18391850D02*
X14630610Y-18401374D01*
X14630610Y-18401374D02*
X14621087Y-18410898D01*
X14830610Y-18525184D02*
X14811563Y-18515660D01*
X14811563Y-18515660D02*
X14802039Y-18506136D01*
X14802039Y-18506136D02*
X14792515Y-18487089D01*
X14792515Y-18487089D02*
X14792515Y-18429946D01*
X14792515Y-18429946D02*
X14802039Y-18410898D01*
X14802039Y-18410898D02*
X14811563Y-18401374D01*
X14811563Y-18401374D02*
X14830610Y-18391850D01*
X14830610Y-18391850D02*
X14859182Y-18391850D01*
X14859182Y-18391850D02*
X14878230Y-18401374D01*
X14878230Y-18401374D02*
X14887753Y-18410898D01*
X14887753Y-18410898D02*
X14897277Y-18429946D01*
X14897277Y-18429946D02*
X14897277Y-18487089D01*
X14897277Y-18487089D02*
X14887753Y-18506136D01*
X14887753Y-18506136D02*
X14878230Y-18515660D01*
X14878230Y-18515660D02*
X14859182Y-18525184D01*
X14859182Y-18525184D02*
X14830610Y-18525184D01*
X15011563Y-18525184D02*
X14992515Y-18515660D01*
X14992515Y-18515660D02*
X14982991Y-18496612D01*
X14982991Y-18496612D02*
X14982991Y-18325184D01*
X15163944Y-18515660D02*
X15144896Y-18525184D01*
X15144896Y-18525184D02*
X15106801Y-18525184D01*
X15106801Y-18525184D02*
X15087753Y-18515660D01*
X15087753Y-18515660D02*
X15078230Y-18496612D01*
X15078230Y-18496612D02*
X15078230Y-18420422D01*
X15078230Y-18420422D02*
X15087753Y-18401374D01*
X15087753Y-18401374D02*
X15106801Y-18391850D01*
X15106801Y-18391850D02*
X15144896Y-18391850D01*
X15144896Y-18391850D02*
X15163944Y-18401374D01*
X15163944Y-18401374D02*
X15173468Y-18420422D01*
X15173468Y-18420422D02*
X15173468Y-18439470D01*
X15173468Y-18439470D02*
X15078230Y-18458517D01*
X15249658Y-18515660D02*
X15268706Y-18525184D01*
X15268706Y-18525184D02*
X15306801Y-18525184D01*
X15306801Y-18525184D02*
X15325849Y-18515660D01*
X15325849Y-18515660D02*
X15335372Y-18496612D01*
X15335372Y-18496612D02*
X15335372Y-18487089D01*
X15335372Y-18487089D02*
X15325849Y-18468041D01*
X15325849Y-18468041D02*
X15306801Y-18458517D01*
X15306801Y-18458517D02*
X15278230Y-18458517D01*
X15278230Y-18458517D02*
X15259182Y-18448993D01*
X15259182Y-18448993D02*
X15249658Y-18429946D01*
X15249658Y-18429946D02*
X15249658Y-18420422D01*
X15249658Y-18420422D02*
X15259182Y-18401374D01*
X15259182Y-18401374D02*
X15278230Y-18391850D01*
X15278230Y-18391850D02*
X15306801Y-18391850D01*
X15306801Y-18391850D02*
X15325849Y-18401374D01*
X15402039Y-18601374D02*
X15411563Y-18591850D01*
X15411563Y-18591850D02*
X15430611Y-18563279D01*
X15430611Y-18563279D02*
X15440134Y-18544231D01*
X15440134Y-18544231D02*
X15449658Y-18515660D01*
X15449658Y-18515660D02*
X15459182Y-18468041D01*
X15459182Y-18468041D02*
X15459182Y-18429946D01*
X15459182Y-18429946D02*
X15449658Y-18382327D01*
X15449658Y-18382327D02*
X15440134Y-18353755D01*
X15440134Y-18353755D02*
X15430611Y-18334708D01*
X15430611Y-18334708D02*
X15411563Y-18306136D01*
X15411563Y-18306136D02*
X15402039Y-18296612D01*
D12*
X10411500Y-18672700D02*
X10411500Y-18722700D01*
X10386500Y-18697700D02*
X10436500Y-18697700D01*
D11*
X10735372Y-18589184D02*
X10754420Y-18589184D01*
X10754420Y-18589184D02*
X10773467Y-18598708D01*
X10773467Y-18598708D02*
X10782991Y-18608231D01*
X10782991Y-18608231D02*
X10792515Y-18627279D01*
X10792515Y-18627279D02*
X10802039Y-18665374D01*
X10802039Y-18665374D02*
X10802039Y-18712993D01*
X10802039Y-18712993D02*
X10792515Y-18751089D01*
X10792515Y-18751089D02*
X10782991Y-18770136D01*
X10782991Y-18770136D02*
X10773467Y-18779660D01*
X10773467Y-18779660D02*
X10754420Y-18789184D01*
X10754420Y-18789184D02*
X10735372Y-18789184D01*
X10735372Y-18789184D02*
X10716324Y-18779660D01*
X10716324Y-18779660D02*
X10706801Y-18770136D01*
X10706801Y-18770136D02*
X10697277Y-18751089D01*
X10697277Y-18751089D02*
X10687753Y-18712993D01*
X10687753Y-18712993D02*
X10687753Y-18665374D01*
X10687753Y-18665374D02*
X10697277Y-18627279D01*
X10697277Y-18627279D02*
X10706801Y-18608231D01*
X10706801Y-18608231D02*
X10716324Y-18598708D01*
X10716324Y-18598708D02*
X10735372Y-18589184D01*
X10887753Y-18770136D02*
X10897277Y-18779660D01*
X10897277Y-18779660D02*
X10887753Y-18789184D01*
X10887753Y-18789184D02*
X10878229Y-18779660D01*
X10878229Y-18779660D02*
X10887753Y-18770136D01*
X10887753Y-18770136D02*
X10887753Y-18789184D01*
X11078229Y-18589184D02*
X10982991Y-18589184D01*
X10982991Y-18589184D02*
X10973467Y-18684422D01*
X10973467Y-18684422D02*
X10982991Y-18674898D01*
X10982991Y-18674898D02*
X11002039Y-18665374D01*
X11002039Y-18665374D02*
X11049658Y-18665374D01*
X11049658Y-18665374D02*
X11068705Y-18674898D01*
X11068705Y-18674898D02*
X11078229Y-18684422D01*
X11078229Y-18684422D02*
X11087753Y-18703470D01*
X11087753Y-18703470D02*
X11087753Y-18751089D01*
X11087753Y-18751089D02*
X11078229Y-18770136D01*
X11078229Y-18770136D02*
X11068705Y-18779660D01*
X11068705Y-18779660D02*
X11049658Y-18789184D01*
X11049658Y-18789184D02*
X11002039Y-18789184D01*
X11002039Y-18789184D02*
X10982991Y-18779660D01*
X10982991Y-18779660D02*
X10973467Y-18770136D01*
X11211562Y-18589184D02*
X11230610Y-18589184D01*
X11230610Y-18589184D02*
X11249658Y-18598708D01*
X11249658Y-18598708D02*
X11259182Y-18608231D01*
X11259182Y-18608231D02*
X11268705Y-18627279D01*
X11268705Y-18627279D02*
X11278229Y-18665374D01*
X11278229Y-18665374D02*
X11278229Y-18712993D01*
X11278229Y-18712993D02*
X11268705Y-18751089D01*
X11268705Y-18751089D02*
X11259182Y-18770136D01*
X11259182Y-18770136D02*
X11249658Y-18779660D01*
X11249658Y-18779660D02*
X11230610Y-18789184D01*
X11230610Y-18789184D02*
X11211562Y-18789184D01*
X11211562Y-18789184D02*
X11192515Y-18779660D01*
X11192515Y-18779660D02*
X11182991Y-18770136D01*
X11182991Y-18770136D02*
X11173467Y-18751089D01*
X11173467Y-18751089D02*
X11163944Y-18712993D01*
X11163944Y-18712993D02*
X11163944Y-18665374D01*
X11163944Y-18665374D02*
X11173467Y-18627279D01*
X11173467Y-18627279D02*
X11182991Y-18608231D01*
X11182991Y-18608231D02*
X11192515Y-18598708D01*
X11192515Y-18598708D02*
X11211562Y-18589184D01*
X11402039Y-18589184D02*
X11421086Y-18589184D01*
X11421086Y-18589184D02*
X11440134Y-18598708D01*
X11440134Y-18598708D02*
X11449658Y-18608231D01*
X11449658Y-18608231D02*
X11459182Y-18627279D01*
X11459182Y-18627279D02*
X11468705Y-18665374D01*
X11468705Y-18665374D02*
X11468705Y-18712993D01*
X11468705Y-18712993D02*
X11459182Y-18751089D01*
X11459182Y-18751089D02*
X11449658Y-18770136D01*
X11449658Y-18770136D02*
X11440134Y-18779660D01*
X11440134Y-18779660D02*
X11421086Y-18789184D01*
X11421086Y-18789184D02*
X11402039Y-18789184D01*
X11402039Y-18789184D02*
X11382991Y-18779660D01*
X11382991Y-18779660D02*
X11373467Y-18770136D01*
X11373467Y-18770136D02*
X11363943Y-18751089D01*
X11363943Y-18751089D02*
X11354420Y-18712993D01*
X11354420Y-18712993D02*
X11354420Y-18665374D01*
X11354420Y-18665374D02*
X11363943Y-18627279D01*
X11363943Y-18627279D02*
X11373467Y-18608231D01*
X11373467Y-18608231D02*
X11382991Y-18598708D01*
X11382991Y-18598708D02*
X11402039Y-18589184D01*
X11554420Y-18789184D02*
X11554420Y-18655850D01*
X11554420Y-18674898D02*
X11563943Y-18665374D01*
X11563943Y-18665374D02*
X11582991Y-18655850D01*
X11582991Y-18655850D02*
X11611563Y-18655850D01*
X11611563Y-18655850D02*
X11630610Y-18665374D01*
X11630610Y-18665374D02*
X11640134Y-18684422D01*
X11640134Y-18684422D02*
X11640134Y-18789184D01*
X11640134Y-18684422D02*
X11649658Y-18665374D01*
X11649658Y-18665374D02*
X11668705Y-18655850D01*
X11668705Y-18655850D02*
X11697277Y-18655850D01*
X11697277Y-18655850D02*
X11716324Y-18665374D01*
X11716324Y-18665374D02*
X11725848Y-18684422D01*
X11725848Y-18684422D02*
X11725848Y-18789184D01*
X11821086Y-18789184D02*
X11821086Y-18655850D01*
X11821086Y-18674898D02*
X11830610Y-18665374D01*
X11830610Y-18665374D02*
X11849658Y-18655850D01*
X11849658Y-18655850D02*
X11878229Y-18655850D01*
X11878229Y-18655850D02*
X11897277Y-18665374D01*
X11897277Y-18665374D02*
X11906801Y-18684422D01*
X11906801Y-18684422D02*
X11906801Y-18789184D01*
X11906801Y-18684422D02*
X11916324Y-18665374D01*
X11916324Y-18665374D02*
X11935372Y-18655850D01*
X11935372Y-18655850D02*
X11963943Y-18655850D01*
X11963943Y-18655850D02*
X11982991Y-18665374D01*
X11982991Y-18665374D02*
X11992515Y-18684422D01*
X11992515Y-18684422D02*
X11992515Y-18789184D01*
X12382991Y-18579660D02*
X12211563Y-18836803D01*
X12640134Y-18589184D02*
X12659182Y-18589184D01*
X12659182Y-18589184D02*
X12678229Y-18598708D01*
X12678229Y-18598708D02*
X12687753Y-18608231D01*
X12687753Y-18608231D02*
X12697277Y-18627279D01*
X12697277Y-18627279D02*
X12706801Y-18665374D01*
X12706801Y-18665374D02*
X12706801Y-18712993D01*
X12706801Y-18712993D02*
X12697277Y-18751089D01*
X12697277Y-18751089D02*
X12687753Y-18770136D01*
X12687753Y-18770136D02*
X12678229Y-18779660D01*
X12678229Y-18779660D02*
X12659182Y-18789184D01*
X12659182Y-18789184D02*
X12640134Y-18789184D01*
X12640134Y-18789184D02*
X12621086Y-18779660D01*
X12621086Y-18779660D02*
X12611563Y-18770136D01*
X12611563Y-18770136D02*
X12602039Y-18751089D01*
X12602039Y-18751089D02*
X12592515Y-18712993D01*
X12592515Y-18712993D02*
X12592515Y-18665374D01*
X12592515Y-18665374D02*
X12602039Y-18627279D01*
X12602039Y-18627279D02*
X12611563Y-18608231D01*
X12611563Y-18608231D02*
X12621086Y-18598708D01*
X12621086Y-18598708D02*
X12640134Y-18589184D01*
X12792515Y-18770136D02*
X12802039Y-18779660D01*
X12802039Y-18779660D02*
X12792515Y-18789184D01*
X12792515Y-18789184D02*
X12782991Y-18779660D01*
X12782991Y-18779660D02*
X12792515Y-18770136D01*
X12792515Y-18770136D02*
X12792515Y-18789184D01*
X12925848Y-18589184D02*
X12944896Y-18589184D01*
X12944896Y-18589184D02*
X12963944Y-18598708D01*
X12963944Y-18598708D02*
X12973467Y-18608231D01*
X12973467Y-18608231D02*
X12982991Y-18627279D01*
X12982991Y-18627279D02*
X12992515Y-18665374D01*
X12992515Y-18665374D02*
X12992515Y-18712993D01*
X12992515Y-18712993D02*
X12982991Y-18751089D01*
X12982991Y-18751089D02*
X12973467Y-18770136D01*
X12973467Y-18770136D02*
X12963944Y-18779660D01*
X12963944Y-18779660D02*
X12944896Y-18789184D01*
X12944896Y-18789184D02*
X12925848Y-18789184D01*
X12925848Y-18789184D02*
X12906801Y-18779660D01*
X12906801Y-18779660D02*
X12897277Y-18770136D01*
X12897277Y-18770136D02*
X12887753Y-18751089D01*
X12887753Y-18751089D02*
X12878229Y-18712993D01*
X12878229Y-18712993D02*
X12878229Y-18665374D01*
X12878229Y-18665374D02*
X12887753Y-18627279D01*
X12887753Y-18627279D02*
X12897277Y-18608231D01*
X12897277Y-18608231D02*
X12906801Y-18598708D01*
X12906801Y-18598708D02*
X12925848Y-18589184D01*
X13182991Y-18789184D02*
X13068706Y-18789184D01*
X13125848Y-18789184D02*
X13125848Y-18589184D01*
X13125848Y-18589184D02*
X13106801Y-18617755D01*
X13106801Y-18617755D02*
X13087753Y-18636803D01*
X13087753Y-18636803D02*
X13068706Y-18646327D01*
X13278229Y-18789184D02*
X13316325Y-18789184D01*
X13316325Y-18789184D02*
X13335372Y-18779660D01*
X13335372Y-18779660D02*
X13344896Y-18770136D01*
X13344896Y-18770136D02*
X13363944Y-18741565D01*
X13363944Y-18741565D02*
X13373467Y-18703470D01*
X13373467Y-18703470D02*
X13373467Y-18627279D01*
X13373467Y-18627279D02*
X13363944Y-18608231D01*
X13363944Y-18608231D02*
X13354420Y-18598708D01*
X13354420Y-18598708D02*
X13335372Y-18589184D01*
X13335372Y-18589184D02*
X13297277Y-18589184D01*
X13297277Y-18589184D02*
X13278229Y-18598708D01*
X13278229Y-18598708D02*
X13268706Y-18608231D01*
X13268706Y-18608231D02*
X13259182Y-18627279D01*
X13259182Y-18627279D02*
X13259182Y-18674898D01*
X13259182Y-18674898D02*
X13268706Y-18693946D01*
X13268706Y-18693946D02*
X13278229Y-18703470D01*
X13278229Y-18703470D02*
X13297277Y-18712993D01*
X13297277Y-18712993D02*
X13335372Y-18712993D01*
X13335372Y-18712993D02*
X13354420Y-18703470D01*
X13354420Y-18703470D02*
X13363944Y-18693946D01*
X13363944Y-18693946D02*
X13373467Y-18674898D01*
X13440134Y-18589184D02*
X13573467Y-18589184D01*
X13573467Y-18589184D02*
X13487753Y-18789184D01*
X13640134Y-18589184D02*
X13640134Y-18627279D01*
X13716325Y-18589184D02*
X13716325Y-18627279D01*
X14011563Y-18865374D02*
X14002039Y-18855850D01*
X14002039Y-18855850D02*
X13982991Y-18827279D01*
X13982991Y-18827279D02*
X13973468Y-18808231D01*
X13973468Y-18808231D02*
X13963944Y-18779660D01*
X13963944Y-18779660D02*
X13954420Y-18732041D01*
X13954420Y-18732041D02*
X13954420Y-18693946D01*
X13954420Y-18693946D02*
X13963944Y-18646327D01*
X13963944Y-18646327D02*
X13973468Y-18617755D01*
X13973468Y-18617755D02*
X13982991Y-18598708D01*
X13982991Y-18598708D02*
X14002039Y-18570136D01*
X14002039Y-18570136D02*
X14011563Y-18560612D01*
X14116325Y-18674898D02*
X14097277Y-18665374D01*
X14097277Y-18665374D02*
X14087753Y-18655850D01*
X14087753Y-18655850D02*
X14078229Y-18636803D01*
X14078229Y-18636803D02*
X14078229Y-18627279D01*
X14078229Y-18627279D02*
X14087753Y-18608231D01*
X14087753Y-18608231D02*
X14097277Y-18598708D01*
X14097277Y-18598708D02*
X14116325Y-18589184D01*
X14116325Y-18589184D02*
X14154420Y-18589184D01*
X14154420Y-18589184D02*
X14173468Y-18598708D01*
X14173468Y-18598708D02*
X14182991Y-18608231D01*
X14182991Y-18608231D02*
X14192515Y-18627279D01*
X14192515Y-18627279D02*
X14192515Y-18636803D01*
X14192515Y-18636803D02*
X14182991Y-18655850D01*
X14182991Y-18655850D02*
X14173468Y-18665374D01*
X14173468Y-18665374D02*
X14154420Y-18674898D01*
X14154420Y-18674898D02*
X14116325Y-18674898D01*
X14116325Y-18674898D02*
X14097277Y-18684422D01*
X14097277Y-18684422D02*
X14087753Y-18693946D01*
X14087753Y-18693946D02*
X14078229Y-18712993D01*
X14078229Y-18712993D02*
X14078229Y-18751089D01*
X14078229Y-18751089D02*
X14087753Y-18770136D01*
X14087753Y-18770136D02*
X14097277Y-18779660D01*
X14097277Y-18779660D02*
X14116325Y-18789184D01*
X14116325Y-18789184D02*
X14154420Y-18789184D01*
X14154420Y-18789184D02*
X14173468Y-18779660D01*
X14173468Y-18779660D02*
X14182991Y-18770136D01*
X14182991Y-18770136D02*
X14192515Y-18751089D01*
X14192515Y-18751089D02*
X14192515Y-18712993D01*
X14192515Y-18712993D02*
X14182991Y-18693946D01*
X14182991Y-18693946D02*
X14173468Y-18684422D01*
X14173468Y-18684422D02*
X14154420Y-18674898D01*
X14430610Y-18789184D02*
X14430610Y-18589184D01*
X14516325Y-18789184D02*
X14516325Y-18684422D01*
X14516325Y-18684422D02*
X14506801Y-18665374D01*
X14506801Y-18665374D02*
X14487753Y-18655850D01*
X14487753Y-18655850D02*
X14459182Y-18655850D01*
X14459182Y-18655850D02*
X14440134Y-18665374D01*
X14440134Y-18665374D02*
X14430610Y-18674898D01*
X14640134Y-18789184D02*
X14621087Y-18779660D01*
X14621087Y-18779660D02*
X14611563Y-18770136D01*
X14611563Y-18770136D02*
X14602039Y-18751089D01*
X14602039Y-18751089D02*
X14602039Y-18693946D01*
X14602039Y-18693946D02*
X14611563Y-18674898D01*
X14611563Y-18674898D02*
X14621087Y-18665374D01*
X14621087Y-18665374D02*
X14640134Y-18655850D01*
X14640134Y-18655850D02*
X14668706Y-18655850D01*
X14668706Y-18655850D02*
X14687753Y-18665374D01*
X14687753Y-18665374D02*
X14697277Y-18674898D01*
X14697277Y-18674898D02*
X14706801Y-18693946D01*
X14706801Y-18693946D02*
X14706801Y-18751089D01*
X14706801Y-18751089D02*
X14697277Y-18770136D01*
X14697277Y-18770136D02*
X14687753Y-18779660D01*
X14687753Y-18779660D02*
X14668706Y-18789184D01*
X14668706Y-18789184D02*
X14640134Y-18789184D01*
X14821087Y-18789184D02*
X14802039Y-18779660D01*
X14802039Y-18779660D02*
X14792515Y-18760612D01*
X14792515Y-18760612D02*
X14792515Y-18589184D01*
X14973468Y-18779660D02*
X14954420Y-18789184D01*
X14954420Y-18789184D02*
X14916325Y-18789184D01*
X14916325Y-18789184D02*
X14897277Y-18779660D01*
X14897277Y-18779660D02*
X14887753Y-18760612D01*
X14887753Y-18760612D02*
X14887753Y-18684422D01*
X14887753Y-18684422D02*
X14897277Y-18665374D01*
X14897277Y-18665374D02*
X14916325Y-18655850D01*
X14916325Y-18655850D02*
X14954420Y-18655850D01*
X14954420Y-18655850D02*
X14973468Y-18665374D01*
X14973468Y-18665374D02*
X14982991Y-18684422D01*
X14982991Y-18684422D02*
X14982991Y-18703470D01*
X14982991Y-18703470D02*
X14887753Y-18722517D01*
X15059182Y-18779660D02*
X15078230Y-18789184D01*
X15078230Y-18789184D02*
X15116325Y-18789184D01*
X15116325Y-18789184D02*
X15135372Y-18779660D01*
X15135372Y-18779660D02*
X15144896Y-18760612D01*
X15144896Y-18760612D02*
X15144896Y-18751089D01*
X15144896Y-18751089D02*
X15135372Y-18732041D01*
X15135372Y-18732041D02*
X15116325Y-18722517D01*
X15116325Y-18722517D02*
X15087753Y-18722517D01*
X15087753Y-18722517D02*
X15068706Y-18712993D01*
X15068706Y-18712993D02*
X15059182Y-18693946D01*
X15059182Y-18693946D02*
X15059182Y-18684422D01*
X15059182Y-18684422D02*
X15068706Y-18665374D01*
X15068706Y-18665374D02*
X15087753Y-18655850D01*
X15087753Y-18655850D02*
X15116325Y-18655850D01*
X15116325Y-18655850D02*
X15135372Y-18665374D01*
X15211563Y-18865374D02*
X15221087Y-18855850D01*
X15221087Y-18855850D02*
X15240134Y-18827279D01*
X15240134Y-18827279D02*
X15249658Y-18808231D01*
X15249658Y-18808231D02*
X15259182Y-18779660D01*
X15259182Y-18779660D02*
X15268706Y-18732041D01*
X15268706Y-18732041D02*
X15268706Y-18693946D01*
X15268706Y-18693946D02*
X15259182Y-18646327D01*
X15259182Y-18646327D02*
X15249658Y-18617755D01*
X15249658Y-18617755D02*
X15240134Y-18598708D01*
X15240134Y-18598708D02*
X15221087Y-18570136D01*
X15221087Y-18570136D02*
X15211563Y-18560612D01*
D12*
X10421856Y-18997056D02*
X10421856Y-18926344D01*
X10351144Y-18926344D01*
X10351144Y-18997056D01*
X10421856Y-18997056D01*
D11*
X10802039Y-19053184D02*
X10687753Y-19053184D01*
X10744896Y-19053184D02*
X10744896Y-18853184D01*
X10744896Y-18853184D02*
X10725848Y-18881755D01*
X10725848Y-18881755D02*
X10706801Y-18900803D01*
X10706801Y-18900803D02*
X10687753Y-18910327D01*
X10887753Y-19034136D02*
X10897277Y-19043660D01*
X10897277Y-19043660D02*
X10887753Y-19053184D01*
X10887753Y-19053184D02*
X10878229Y-19043660D01*
X10878229Y-19043660D02*
X10887753Y-19034136D01*
X10887753Y-19034136D02*
X10887753Y-19053184D01*
X11021086Y-18853184D02*
X11040134Y-18853184D01*
X11040134Y-18853184D02*
X11059182Y-18862708D01*
X11059182Y-18862708D02*
X11068705Y-18872231D01*
X11068705Y-18872231D02*
X11078229Y-18891279D01*
X11078229Y-18891279D02*
X11087753Y-18929374D01*
X11087753Y-18929374D02*
X11087753Y-18976993D01*
X11087753Y-18976993D02*
X11078229Y-19015089D01*
X11078229Y-19015089D02*
X11068705Y-19034136D01*
X11068705Y-19034136D02*
X11059182Y-19043660D01*
X11059182Y-19043660D02*
X11040134Y-19053184D01*
X11040134Y-19053184D02*
X11021086Y-19053184D01*
X11021086Y-19053184D02*
X11002039Y-19043660D01*
X11002039Y-19043660D02*
X10992515Y-19034136D01*
X10992515Y-19034136D02*
X10982991Y-19015089D01*
X10982991Y-19015089D02*
X10973467Y-18976993D01*
X10973467Y-18976993D02*
X10973467Y-18929374D01*
X10973467Y-18929374D02*
X10982991Y-18891279D01*
X10982991Y-18891279D02*
X10992515Y-18872231D01*
X10992515Y-18872231D02*
X11002039Y-18862708D01*
X11002039Y-18862708D02*
X11021086Y-18853184D01*
X11211562Y-18853184D02*
X11230610Y-18853184D01*
X11230610Y-18853184D02*
X11249658Y-18862708D01*
X11249658Y-18862708D02*
X11259182Y-18872231D01*
X11259182Y-18872231D02*
X11268705Y-18891279D01*
X11268705Y-18891279D02*
X11278229Y-18929374D01*
X11278229Y-18929374D02*
X11278229Y-18976993D01*
X11278229Y-18976993D02*
X11268705Y-19015089D01*
X11268705Y-19015089D02*
X11259182Y-19034136D01*
X11259182Y-19034136D02*
X11249658Y-19043660D01*
X11249658Y-19043660D02*
X11230610Y-19053184D01*
X11230610Y-19053184D02*
X11211562Y-19053184D01*
X11211562Y-19053184D02*
X11192515Y-19043660D01*
X11192515Y-19043660D02*
X11182991Y-19034136D01*
X11182991Y-19034136D02*
X11173467Y-19015089D01*
X11173467Y-19015089D02*
X11163944Y-18976993D01*
X11163944Y-18976993D02*
X11163944Y-18929374D01*
X11163944Y-18929374D02*
X11173467Y-18891279D01*
X11173467Y-18891279D02*
X11182991Y-18872231D01*
X11182991Y-18872231D02*
X11192515Y-18862708D01*
X11192515Y-18862708D02*
X11211562Y-18853184D01*
X11402039Y-18853184D02*
X11421086Y-18853184D01*
X11421086Y-18853184D02*
X11440134Y-18862708D01*
X11440134Y-18862708D02*
X11449658Y-18872231D01*
X11449658Y-18872231D02*
X11459182Y-18891279D01*
X11459182Y-18891279D02*
X11468705Y-18929374D01*
X11468705Y-18929374D02*
X11468705Y-18976993D01*
X11468705Y-18976993D02*
X11459182Y-19015089D01*
X11459182Y-19015089D02*
X11449658Y-19034136D01*
X11449658Y-19034136D02*
X11440134Y-19043660D01*
X11440134Y-19043660D02*
X11421086Y-19053184D01*
X11421086Y-19053184D02*
X11402039Y-19053184D01*
X11402039Y-19053184D02*
X11382991Y-19043660D01*
X11382991Y-19043660D02*
X11373467Y-19034136D01*
X11373467Y-19034136D02*
X11363943Y-19015089D01*
X11363943Y-19015089D02*
X11354420Y-18976993D01*
X11354420Y-18976993D02*
X11354420Y-18929374D01*
X11354420Y-18929374D02*
X11363943Y-18891279D01*
X11363943Y-18891279D02*
X11373467Y-18872231D01*
X11373467Y-18872231D02*
X11382991Y-18862708D01*
X11382991Y-18862708D02*
X11402039Y-18853184D01*
X11554420Y-19053184D02*
X11554420Y-18919850D01*
X11554420Y-18938898D02*
X11563943Y-18929374D01*
X11563943Y-18929374D02*
X11582991Y-18919850D01*
X11582991Y-18919850D02*
X11611563Y-18919850D01*
X11611563Y-18919850D02*
X11630610Y-18929374D01*
X11630610Y-18929374D02*
X11640134Y-18948422D01*
X11640134Y-18948422D02*
X11640134Y-19053184D01*
X11640134Y-18948422D02*
X11649658Y-18929374D01*
X11649658Y-18929374D02*
X11668705Y-18919850D01*
X11668705Y-18919850D02*
X11697277Y-18919850D01*
X11697277Y-18919850D02*
X11716324Y-18929374D01*
X11716324Y-18929374D02*
X11725848Y-18948422D01*
X11725848Y-18948422D02*
X11725848Y-19053184D01*
X11821086Y-19053184D02*
X11821086Y-18919850D01*
X11821086Y-18938898D02*
X11830610Y-18929374D01*
X11830610Y-18929374D02*
X11849658Y-18919850D01*
X11849658Y-18919850D02*
X11878229Y-18919850D01*
X11878229Y-18919850D02*
X11897277Y-18929374D01*
X11897277Y-18929374D02*
X11906801Y-18948422D01*
X11906801Y-18948422D02*
X11906801Y-19053184D01*
X11906801Y-18948422D02*
X11916324Y-18929374D01*
X11916324Y-18929374D02*
X11935372Y-18919850D01*
X11935372Y-18919850D02*
X11963943Y-18919850D01*
X11963943Y-18919850D02*
X11982991Y-18929374D01*
X11982991Y-18929374D02*
X11992515Y-18948422D01*
X11992515Y-18948422D02*
X11992515Y-19053184D01*
X12382991Y-18843660D02*
X12211563Y-19100803D01*
X12640134Y-18853184D02*
X12659182Y-18853184D01*
X12659182Y-18853184D02*
X12678229Y-18862708D01*
X12678229Y-18862708D02*
X12687753Y-18872231D01*
X12687753Y-18872231D02*
X12697277Y-18891279D01*
X12697277Y-18891279D02*
X12706801Y-18929374D01*
X12706801Y-18929374D02*
X12706801Y-18976993D01*
X12706801Y-18976993D02*
X12697277Y-19015089D01*
X12697277Y-19015089D02*
X12687753Y-19034136D01*
X12687753Y-19034136D02*
X12678229Y-19043660D01*
X12678229Y-19043660D02*
X12659182Y-19053184D01*
X12659182Y-19053184D02*
X12640134Y-19053184D01*
X12640134Y-19053184D02*
X12621086Y-19043660D01*
X12621086Y-19043660D02*
X12611563Y-19034136D01*
X12611563Y-19034136D02*
X12602039Y-19015089D01*
X12602039Y-19015089D02*
X12592515Y-18976993D01*
X12592515Y-18976993D02*
X12592515Y-18929374D01*
X12592515Y-18929374D02*
X12602039Y-18891279D01*
X12602039Y-18891279D02*
X12611563Y-18872231D01*
X12611563Y-18872231D02*
X12621086Y-18862708D01*
X12621086Y-18862708D02*
X12640134Y-18853184D01*
X12792515Y-19034136D02*
X12802039Y-19043660D01*
X12802039Y-19043660D02*
X12792515Y-19053184D01*
X12792515Y-19053184D02*
X12782991Y-19043660D01*
X12782991Y-19043660D02*
X12792515Y-19034136D01*
X12792515Y-19034136D02*
X12792515Y-19053184D01*
X12925848Y-18853184D02*
X12944896Y-18853184D01*
X12944896Y-18853184D02*
X12963944Y-18862708D01*
X12963944Y-18862708D02*
X12973467Y-18872231D01*
X12973467Y-18872231D02*
X12982991Y-18891279D01*
X12982991Y-18891279D02*
X12992515Y-18929374D01*
X12992515Y-18929374D02*
X12992515Y-18976993D01*
X12992515Y-18976993D02*
X12982991Y-19015089D01*
X12982991Y-19015089D02*
X12973467Y-19034136D01*
X12973467Y-19034136D02*
X12963944Y-19043660D01*
X12963944Y-19043660D02*
X12944896Y-19053184D01*
X12944896Y-19053184D02*
X12925848Y-19053184D01*
X12925848Y-19053184D02*
X12906801Y-19043660D01*
X12906801Y-19043660D02*
X12897277Y-19034136D01*
X12897277Y-19034136D02*
X12887753Y-19015089D01*
X12887753Y-19015089D02*
X12878229Y-18976993D01*
X12878229Y-18976993D02*
X12878229Y-18929374D01*
X12878229Y-18929374D02*
X12887753Y-18891279D01*
X12887753Y-18891279D02*
X12897277Y-18872231D01*
X12897277Y-18872231D02*
X12906801Y-18862708D01*
X12906801Y-18862708D02*
X12925848Y-18853184D01*
X13059182Y-18853184D02*
X13182991Y-18853184D01*
X13182991Y-18853184D02*
X13116325Y-18929374D01*
X13116325Y-18929374D02*
X13144896Y-18929374D01*
X13144896Y-18929374D02*
X13163944Y-18938898D01*
X13163944Y-18938898D02*
X13173467Y-18948422D01*
X13173467Y-18948422D02*
X13182991Y-18967470D01*
X13182991Y-18967470D02*
X13182991Y-19015089D01*
X13182991Y-19015089D02*
X13173467Y-19034136D01*
X13173467Y-19034136D02*
X13163944Y-19043660D01*
X13163944Y-19043660D02*
X13144896Y-19053184D01*
X13144896Y-19053184D02*
X13087753Y-19053184D01*
X13087753Y-19053184D02*
X13068706Y-19043660D01*
X13068706Y-19043660D02*
X13059182Y-19034136D01*
X13278229Y-19053184D02*
X13316325Y-19053184D01*
X13316325Y-19053184D02*
X13335372Y-19043660D01*
X13335372Y-19043660D02*
X13344896Y-19034136D01*
X13344896Y-19034136D02*
X13363944Y-19005565D01*
X13363944Y-19005565D02*
X13373467Y-18967470D01*
X13373467Y-18967470D02*
X13373467Y-18891279D01*
X13373467Y-18891279D02*
X13363944Y-18872231D01*
X13363944Y-18872231D02*
X13354420Y-18862708D01*
X13354420Y-18862708D02*
X13335372Y-18853184D01*
X13335372Y-18853184D02*
X13297277Y-18853184D01*
X13297277Y-18853184D02*
X13278229Y-18862708D01*
X13278229Y-18862708D02*
X13268706Y-18872231D01*
X13268706Y-18872231D02*
X13259182Y-18891279D01*
X13259182Y-18891279D02*
X13259182Y-18938898D01*
X13259182Y-18938898D02*
X13268706Y-18957946D01*
X13268706Y-18957946D02*
X13278229Y-18967470D01*
X13278229Y-18967470D02*
X13297277Y-18976993D01*
X13297277Y-18976993D02*
X13335372Y-18976993D01*
X13335372Y-18976993D02*
X13354420Y-18967470D01*
X13354420Y-18967470D02*
X13363944Y-18957946D01*
X13363944Y-18957946D02*
X13373467Y-18938898D01*
X13544896Y-18919850D02*
X13544896Y-19053184D01*
X13497277Y-18843660D02*
X13449658Y-18986517D01*
X13449658Y-18986517D02*
X13573467Y-18986517D01*
X13640134Y-18853184D02*
X13640134Y-18891279D01*
X13716325Y-18853184D02*
X13716325Y-18891279D01*
X14011563Y-19129374D02*
X14002039Y-19119850D01*
X14002039Y-19119850D02*
X13982991Y-19091279D01*
X13982991Y-19091279D02*
X13973468Y-19072231D01*
X13973468Y-19072231D02*
X13963944Y-19043660D01*
X13963944Y-19043660D02*
X13954420Y-18996041D01*
X13954420Y-18996041D02*
X13954420Y-18957946D01*
X13954420Y-18957946D02*
X13963944Y-18910327D01*
X13963944Y-18910327D02*
X13973468Y-18881755D01*
X13973468Y-18881755D02*
X13982991Y-18862708D01*
X13982991Y-18862708D02*
X14002039Y-18834136D01*
X14002039Y-18834136D02*
X14011563Y-18824612D01*
X14192515Y-19053184D02*
X14078229Y-19053184D01*
X14135372Y-19053184D02*
X14135372Y-18853184D01*
X14135372Y-18853184D02*
X14116325Y-18881755D01*
X14116325Y-18881755D02*
X14097277Y-18900803D01*
X14097277Y-18900803D02*
X14078229Y-18910327D01*
X14363944Y-18919850D02*
X14363944Y-19053184D01*
X14316325Y-18843660D02*
X14268706Y-18986517D01*
X14268706Y-18986517D02*
X14392515Y-18986517D01*
X14621087Y-19053184D02*
X14621087Y-18853184D01*
X14706801Y-19053184D02*
X14706801Y-18948422D01*
X14706801Y-18948422D02*
X14697277Y-18929374D01*
X14697277Y-18929374D02*
X14678230Y-18919850D01*
X14678230Y-18919850D02*
X14649658Y-18919850D01*
X14649658Y-18919850D02*
X14630610Y-18929374D01*
X14630610Y-18929374D02*
X14621087Y-18938898D01*
X14830610Y-19053184D02*
X14811563Y-19043660D01*
X14811563Y-19043660D02*
X14802039Y-19034136D01*
X14802039Y-19034136D02*
X14792515Y-19015089D01*
X14792515Y-19015089D02*
X14792515Y-18957946D01*
X14792515Y-18957946D02*
X14802039Y-18938898D01*
X14802039Y-18938898D02*
X14811563Y-18929374D01*
X14811563Y-18929374D02*
X14830610Y-18919850D01*
X14830610Y-18919850D02*
X14859182Y-18919850D01*
X14859182Y-18919850D02*
X14878230Y-18929374D01*
X14878230Y-18929374D02*
X14887753Y-18938898D01*
X14887753Y-18938898D02*
X14897277Y-18957946D01*
X14897277Y-18957946D02*
X14897277Y-19015089D01*
X14897277Y-19015089D02*
X14887753Y-19034136D01*
X14887753Y-19034136D02*
X14878230Y-19043660D01*
X14878230Y-19043660D02*
X14859182Y-19053184D01*
X14859182Y-19053184D02*
X14830610Y-19053184D01*
X15011563Y-19053184D02*
X14992515Y-19043660D01*
X14992515Y-19043660D02*
X14982991Y-19024612D01*
X14982991Y-19024612D02*
X14982991Y-18853184D01*
X15163944Y-19043660D02*
X15144896Y-19053184D01*
X15144896Y-19053184D02*
X15106801Y-19053184D01*
X15106801Y-19053184D02*
X15087753Y-19043660D01*
X15087753Y-19043660D02*
X15078230Y-19024612D01*
X15078230Y-19024612D02*
X15078230Y-18948422D01*
X15078230Y-18948422D02*
X15087753Y-18929374D01*
X15087753Y-18929374D02*
X15106801Y-18919850D01*
X15106801Y-18919850D02*
X15144896Y-18919850D01*
X15144896Y-18919850D02*
X15163944Y-18929374D01*
X15163944Y-18929374D02*
X15173468Y-18948422D01*
X15173468Y-18948422D02*
X15173468Y-18967470D01*
X15173468Y-18967470D02*
X15078230Y-18986517D01*
X15249658Y-19043660D02*
X15268706Y-19053184D01*
X15268706Y-19053184D02*
X15306801Y-19053184D01*
X15306801Y-19053184D02*
X15325849Y-19043660D01*
X15325849Y-19043660D02*
X15335372Y-19024612D01*
X15335372Y-19024612D02*
X15335372Y-19015089D01*
X15335372Y-19015089D02*
X15325849Y-18996041D01*
X15325849Y-18996041D02*
X15306801Y-18986517D01*
X15306801Y-18986517D02*
X15278230Y-18986517D01*
X15278230Y-18986517D02*
X15259182Y-18976993D01*
X15259182Y-18976993D02*
X15249658Y-18957946D01*
X15249658Y-18957946D02*
X15249658Y-18948422D01*
X15249658Y-18948422D02*
X15259182Y-18929374D01*
X15259182Y-18929374D02*
X15278230Y-18919850D01*
X15278230Y-18919850D02*
X15306801Y-18919850D01*
X15306801Y-18919850D02*
X15325849Y-18929374D01*
X15402039Y-19129374D02*
X15411563Y-19119850D01*
X15411563Y-19119850D02*
X15430611Y-19091279D01*
X15430611Y-19091279D02*
X15440134Y-19072231D01*
X15440134Y-19072231D02*
X15449658Y-19043660D01*
X15449658Y-19043660D02*
X15459182Y-18996041D01*
X15459182Y-18996041D02*
X15459182Y-18957946D01*
X15459182Y-18957946D02*
X15449658Y-18910327D01*
X15449658Y-18910327D02*
X15440134Y-18881755D01*
X15440134Y-18881755D02*
X15430611Y-18862708D01*
X15430611Y-18862708D02*
X15411563Y-18834136D01*
X15411563Y-18834136D02*
X15402039Y-18824612D01*
D13*
X10371500Y-19290700D02*
X10436500Y-19225700D01*
X10371500Y-19160700D01*
X10306500Y-19225700D01*
X10371500Y-19290700D01*
D11*
X10802039Y-19317184D02*
X10687753Y-19317184D01*
X10744896Y-19317184D02*
X10744896Y-19117184D01*
X10744896Y-19117184D02*
X10725848Y-19145755D01*
X10725848Y-19145755D02*
X10706801Y-19164803D01*
X10706801Y-19164803D02*
X10687753Y-19174327D01*
X10887753Y-19298136D02*
X10897277Y-19307660D01*
X10897277Y-19307660D02*
X10887753Y-19317184D01*
X10887753Y-19317184D02*
X10878229Y-19307660D01*
X10878229Y-19307660D02*
X10887753Y-19298136D01*
X10887753Y-19298136D02*
X10887753Y-19317184D01*
X10963944Y-19117184D02*
X11087753Y-19117184D01*
X11087753Y-19117184D02*
X11021086Y-19193374D01*
X11021086Y-19193374D02*
X11049658Y-19193374D01*
X11049658Y-19193374D02*
X11068705Y-19202898D01*
X11068705Y-19202898D02*
X11078229Y-19212422D01*
X11078229Y-19212422D02*
X11087753Y-19231470D01*
X11087753Y-19231470D02*
X11087753Y-19279089D01*
X11087753Y-19279089D02*
X11078229Y-19298136D01*
X11078229Y-19298136D02*
X11068705Y-19307660D01*
X11068705Y-19307660D02*
X11049658Y-19317184D01*
X11049658Y-19317184D02*
X10992515Y-19317184D01*
X10992515Y-19317184D02*
X10973467Y-19307660D01*
X10973467Y-19307660D02*
X10963944Y-19298136D01*
X11211562Y-19117184D02*
X11230610Y-19117184D01*
X11230610Y-19117184D02*
X11249658Y-19126708D01*
X11249658Y-19126708D02*
X11259182Y-19136231D01*
X11259182Y-19136231D02*
X11268705Y-19155279D01*
X11268705Y-19155279D02*
X11278229Y-19193374D01*
X11278229Y-19193374D02*
X11278229Y-19240993D01*
X11278229Y-19240993D02*
X11268705Y-19279089D01*
X11268705Y-19279089D02*
X11259182Y-19298136D01*
X11259182Y-19298136D02*
X11249658Y-19307660D01*
X11249658Y-19307660D02*
X11230610Y-19317184D01*
X11230610Y-19317184D02*
X11211562Y-19317184D01*
X11211562Y-19317184D02*
X11192515Y-19307660D01*
X11192515Y-19307660D02*
X11182991Y-19298136D01*
X11182991Y-19298136D02*
X11173467Y-19279089D01*
X11173467Y-19279089D02*
X11163944Y-19240993D01*
X11163944Y-19240993D02*
X11163944Y-19193374D01*
X11163944Y-19193374D02*
X11173467Y-19155279D01*
X11173467Y-19155279D02*
X11182991Y-19136231D01*
X11182991Y-19136231D02*
X11192515Y-19126708D01*
X11192515Y-19126708D02*
X11211562Y-19117184D01*
X11402039Y-19117184D02*
X11421086Y-19117184D01*
X11421086Y-19117184D02*
X11440134Y-19126708D01*
X11440134Y-19126708D02*
X11449658Y-19136231D01*
X11449658Y-19136231D02*
X11459182Y-19155279D01*
X11459182Y-19155279D02*
X11468705Y-19193374D01*
X11468705Y-19193374D02*
X11468705Y-19240993D01*
X11468705Y-19240993D02*
X11459182Y-19279089D01*
X11459182Y-19279089D02*
X11449658Y-19298136D01*
X11449658Y-19298136D02*
X11440134Y-19307660D01*
X11440134Y-19307660D02*
X11421086Y-19317184D01*
X11421086Y-19317184D02*
X11402039Y-19317184D01*
X11402039Y-19317184D02*
X11382991Y-19307660D01*
X11382991Y-19307660D02*
X11373467Y-19298136D01*
X11373467Y-19298136D02*
X11363943Y-19279089D01*
X11363943Y-19279089D02*
X11354420Y-19240993D01*
X11354420Y-19240993D02*
X11354420Y-19193374D01*
X11354420Y-19193374D02*
X11363943Y-19155279D01*
X11363943Y-19155279D02*
X11373467Y-19136231D01*
X11373467Y-19136231D02*
X11382991Y-19126708D01*
X11382991Y-19126708D02*
X11402039Y-19117184D01*
X11554420Y-19317184D02*
X11554420Y-19183850D01*
X11554420Y-19202898D02*
X11563943Y-19193374D01*
X11563943Y-19193374D02*
X11582991Y-19183850D01*
X11582991Y-19183850D02*
X11611563Y-19183850D01*
X11611563Y-19183850D02*
X11630610Y-19193374D01*
X11630610Y-19193374D02*
X11640134Y-19212422D01*
X11640134Y-19212422D02*
X11640134Y-19317184D01*
X11640134Y-19212422D02*
X11649658Y-19193374D01*
X11649658Y-19193374D02*
X11668705Y-19183850D01*
X11668705Y-19183850D02*
X11697277Y-19183850D01*
X11697277Y-19183850D02*
X11716324Y-19193374D01*
X11716324Y-19193374D02*
X11725848Y-19212422D01*
X11725848Y-19212422D02*
X11725848Y-19317184D01*
X11821086Y-19317184D02*
X11821086Y-19183850D01*
X11821086Y-19202898D02*
X11830610Y-19193374D01*
X11830610Y-19193374D02*
X11849658Y-19183850D01*
X11849658Y-19183850D02*
X11878229Y-19183850D01*
X11878229Y-19183850D02*
X11897277Y-19193374D01*
X11897277Y-19193374D02*
X11906801Y-19212422D01*
X11906801Y-19212422D02*
X11906801Y-19317184D01*
X11906801Y-19212422D02*
X11916324Y-19193374D01*
X11916324Y-19193374D02*
X11935372Y-19183850D01*
X11935372Y-19183850D02*
X11963943Y-19183850D01*
X11963943Y-19183850D02*
X11982991Y-19193374D01*
X11982991Y-19193374D02*
X11992515Y-19212422D01*
X11992515Y-19212422D02*
X11992515Y-19317184D01*
X12382991Y-19107660D02*
X12211563Y-19364803D01*
X12640134Y-19117184D02*
X12659182Y-19117184D01*
X12659182Y-19117184D02*
X12678229Y-19126708D01*
X12678229Y-19126708D02*
X12687753Y-19136231D01*
X12687753Y-19136231D02*
X12697277Y-19155279D01*
X12697277Y-19155279D02*
X12706801Y-19193374D01*
X12706801Y-19193374D02*
X12706801Y-19240993D01*
X12706801Y-19240993D02*
X12697277Y-19279089D01*
X12697277Y-19279089D02*
X12687753Y-19298136D01*
X12687753Y-19298136D02*
X12678229Y-19307660D01*
X12678229Y-19307660D02*
X12659182Y-19317184D01*
X12659182Y-19317184D02*
X12640134Y-19317184D01*
X12640134Y-19317184D02*
X12621086Y-19307660D01*
X12621086Y-19307660D02*
X12611563Y-19298136D01*
X12611563Y-19298136D02*
X12602039Y-19279089D01*
X12602039Y-19279089D02*
X12592515Y-19240993D01*
X12592515Y-19240993D02*
X12592515Y-19193374D01*
X12592515Y-19193374D02*
X12602039Y-19155279D01*
X12602039Y-19155279D02*
X12611563Y-19136231D01*
X12611563Y-19136231D02*
X12621086Y-19126708D01*
X12621086Y-19126708D02*
X12640134Y-19117184D01*
X12792515Y-19298136D02*
X12802039Y-19307660D01*
X12802039Y-19307660D02*
X12792515Y-19317184D01*
X12792515Y-19317184D02*
X12782991Y-19307660D01*
X12782991Y-19307660D02*
X12792515Y-19298136D01*
X12792515Y-19298136D02*
X12792515Y-19317184D01*
X12925848Y-19117184D02*
X12944896Y-19117184D01*
X12944896Y-19117184D02*
X12963944Y-19126708D01*
X12963944Y-19126708D02*
X12973467Y-19136231D01*
X12973467Y-19136231D02*
X12982991Y-19155279D01*
X12982991Y-19155279D02*
X12992515Y-19193374D01*
X12992515Y-19193374D02*
X12992515Y-19240993D01*
X12992515Y-19240993D02*
X12982991Y-19279089D01*
X12982991Y-19279089D02*
X12973467Y-19298136D01*
X12973467Y-19298136D02*
X12963944Y-19307660D01*
X12963944Y-19307660D02*
X12944896Y-19317184D01*
X12944896Y-19317184D02*
X12925848Y-19317184D01*
X12925848Y-19317184D02*
X12906801Y-19307660D01*
X12906801Y-19307660D02*
X12897277Y-19298136D01*
X12897277Y-19298136D02*
X12887753Y-19279089D01*
X12887753Y-19279089D02*
X12878229Y-19240993D01*
X12878229Y-19240993D02*
X12878229Y-19193374D01*
X12878229Y-19193374D02*
X12887753Y-19155279D01*
X12887753Y-19155279D02*
X12897277Y-19136231D01*
X12897277Y-19136231D02*
X12906801Y-19126708D01*
X12906801Y-19126708D02*
X12925848Y-19117184D01*
X13173467Y-19117184D02*
X13078229Y-19117184D01*
X13078229Y-19117184D02*
X13068706Y-19212422D01*
X13068706Y-19212422D02*
X13078229Y-19202898D01*
X13078229Y-19202898D02*
X13097277Y-19193374D01*
X13097277Y-19193374D02*
X13144896Y-19193374D01*
X13144896Y-19193374D02*
X13163944Y-19202898D01*
X13163944Y-19202898D02*
X13173467Y-19212422D01*
X13173467Y-19212422D02*
X13182991Y-19231470D01*
X13182991Y-19231470D02*
X13182991Y-19279089D01*
X13182991Y-19279089D02*
X13173467Y-19298136D01*
X13173467Y-19298136D02*
X13163944Y-19307660D01*
X13163944Y-19307660D02*
X13144896Y-19317184D01*
X13144896Y-19317184D02*
X13097277Y-19317184D01*
X13097277Y-19317184D02*
X13078229Y-19307660D01*
X13078229Y-19307660D02*
X13068706Y-19298136D01*
X13373467Y-19317184D02*
X13259182Y-19317184D01*
X13316325Y-19317184D02*
X13316325Y-19117184D01*
X13316325Y-19117184D02*
X13297277Y-19145755D01*
X13297277Y-19145755D02*
X13278229Y-19164803D01*
X13278229Y-19164803D02*
X13259182Y-19174327D01*
X13449658Y-19136231D02*
X13459182Y-19126708D01*
X13459182Y-19126708D02*
X13478229Y-19117184D01*
X13478229Y-19117184D02*
X13525848Y-19117184D01*
X13525848Y-19117184D02*
X13544896Y-19126708D01*
X13544896Y-19126708D02*
X13554420Y-19136231D01*
X13554420Y-19136231D02*
X13563944Y-19155279D01*
X13563944Y-19155279D02*
X13563944Y-19174327D01*
X13563944Y-19174327D02*
X13554420Y-19202898D01*
X13554420Y-19202898D02*
X13440134Y-19317184D01*
X13440134Y-19317184D02*
X13563944Y-19317184D01*
X13640134Y-19117184D02*
X13640134Y-19155279D01*
X13716325Y-19117184D02*
X13716325Y-19155279D01*
X14011563Y-19393374D02*
X14002039Y-19383850D01*
X14002039Y-19383850D02*
X13982991Y-19355279D01*
X13982991Y-19355279D02*
X13973468Y-19336231D01*
X13973468Y-19336231D02*
X13963944Y-19307660D01*
X13963944Y-19307660D02*
X13954420Y-19260041D01*
X13954420Y-19260041D02*
X13954420Y-19221946D01*
X13954420Y-19221946D02*
X13963944Y-19174327D01*
X13963944Y-19174327D02*
X13973468Y-19145755D01*
X13973468Y-19145755D02*
X13982991Y-19126708D01*
X13982991Y-19126708D02*
X14002039Y-19098136D01*
X14002039Y-19098136D02*
X14011563Y-19088612D01*
X14078229Y-19136231D02*
X14087753Y-19126708D01*
X14087753Y-19126708D02*
X14106801Y-19117184D01*
X14106801Y-19117184D02*
X14154420Y-19117184D01*
X14154420Y-19117184D02*
X14173468Y-19126708D01*
X14173468Y-19126708D02*
X14182991Y-19136231D01*
X14182991Y-19136231D02*
X14192515Y-19155279D01*
X14192515Y-19155279D02*
X14192515Y-19174327D01*
X14192515Y-19174327D02*
X14182991Y-19202898D01*
X14182991Y-19202898D02*
X14068706Y-19317184D01*
X14068706Y-19317184D02*
X14192515Y-19317184D01*
X14430610Y-19317184D02*
X14430610Y-19117184D01*
X14516325Y-19317184D02*
X14516325Y-19212422D01*
X14516325Y-19212422D02*
X14506801Y-19193374D01*
X14506801Y-19193374D02*
X14487753Y-19183850D01*
X14487753Y-19183850D02*
X14459182Y-19183850D01*
X14459182Y-19183850D02*
X14440134Y-19193374D01*
X14440134Y-19193374D02*
X14430610Y-19202898D01*
X14640134Y-19317184D02*
X14621087Y-19307660D01*
X14621087Y-19307660D02*
X14611563Y-19298136D01*
X14611563Y-19298136D02*
X14602039Y-19279089D01*
X14602039Y-19279089D02*
X14602039Y-19221946D01*
X14602039Y-19221946D02*
X14611563Y-19202898D01*
X14611563Y-19202898D02*
X14621087Y-19193374D01*
X14621087Y-19193374D02*
X14640134Y-19183850D01*
X14640134Y-19183850D02*
X14668706Y-19183850D01*
X14668706Y-19183850D02*
X14687753Y-19193374D01*
X14687753Y-19193374D02*
X14697277Y-19202898D01*
X14697277Y-19202898D02*
X14706801Y-19221946D01*
X14706801Y-19221946D02*
X14706801Y-19279089D01*
X14706801Y-19279089D02*
X14697277Y-19298136D01*
X14697277Y-19298136D02*
X14687753Y-19307660D01*
X14687753Y-19307660D02*
X14668706Y-19317184D01*
X14668706Y-19317184D02*
X14640134Y-19317184D01*
X14821087Y-19317184D02*
X14802039Y-19307660D01*
X14802039Y-19307660D02*
X14792515Y-19288612D01*
X14792515Y-19288612D02*
X14792515Y-19117184D01*
X14973468Y-19307660D02*
X14954420Y-19317184D01*
X14954420Y-19317184D02*
X14916325Y-19317184D01*
X14916325Y-19317184D02*
X14897277Y-19307660D01*
X14897277Y-19307660D02*
X14887753Y-19288612D01*
X14887753Y-19288612D02*
X14887753Y-19212422D01*
X14887753Y-19212422D02*
X14897277Y-19193374D01*
X14897277Y-19193374D02*
X14916325Y-19183850D01*
X14916325Y-19183850D02*
X14954420Y-19183850D01*
X14954420Y-19183850D02*
X14973468Y-19193374D01*
X14973468Y-19193374D02*
X14982991Y-19212422D01*
X14982991Y-19212422D02*
X14982991Y-19231470D01*
X14982991Y-19231470D02*
X14887753Y-19250517D01*
X15059182Y-19307660D02*
X15078230Y-19317184D01*
X15078230Y-19317184D02*
X15116325Y-19317184D01*
X15116325Y-19317184D02*
X15135372Y-19307660D01*
X15135372Y-19307660D02*
X15144896Y-19288612D01*
X15144896Y-19288612D02*
X15144896Y-19279089D01*
X15144896Y-19279089D02*
X15135372Y-19260041D01*
X15135372Y-19260041D02*
X15116325Y-19250517D01*
X15116325Y-19250517D02*
X15087753Y-19250517D01*
X15087753Y-19250517D02*
X15068706Y-19240993D01*
X15068706Y-19240993D02*
X15059182Y-19221946D01*
X15059182Y-19221946D02*
X15059182Y-19212422D01*
X15059182Y-19212422D02*
X15068706Y-19193374D01*
X15068706Y-19193374D02*
X15087753Y-19183850D01*
X15087753Y-19183850D02*
X15116325Y-19183850D01*
X15116325Y-19183850D02*
X15135372Y-19193374D01*
X15211563Y-19393374D02*
X15221087Y-19383850D01*
X15221087Y-19383850D02*
X15240134Y-19355279D01*
X15240134Y-19355279D02*
X15249658Y-19336231D01*
X15249658Y-19336231D02*
X15259182Y-19307660D01*
X15259182Y-19307660D02*
X15268706Y-19260041D01*
X15268706Y-19260041D02*
X15268706Y-19221946D01*
X15268706Y-19221946D02*
X15259182Y-19174327D01*
X15259182Y-19174327D02*
X15249658Y-19145755D01*
X15249658Y-19145755D02*
X15240134Y-19126708D01*
X15240134Y-19126708D02*
X15221087Y-19098136D01*
X15221087Y-19098136D02*
X15211563Y-19088612D01*
X10236500Y-19389700D02*
X10436500Y-19589700D01*
X10436500Y-19389700D02*
X10236500Y-19589700D01*
X10436500Y-19489700D02*
G75*
G02*
X10236500Y-19489700I-100000J0D01*
G01*
X10236500Y-19489700D02*
G75*
G02*
X10436500Y-19489700I100000J0D01*
G01*
X10678229Y-19381184D02*
X10802039Y-19381184D01*
X10802039Y-19381184D02*
X10735372Y-19457374D01*
X10735372Y-19457374D02*
X10763944Y-19457374D01*
X10763944Y-19457374D02*
X10782991Y-19466898D01*
X10782991Y-19466898D02*
X10792515Y-19476422D01*
X10792515Y-19476422D02*
X10802039Y-19495470D01*
X10802039Y-19495470D02*
X10802039Y-19543089D01*
X10802039Y-19543089D02*
X10792515Y-19562136D01*
X10792515Y-19562136D02*
X10782991Y-19571660D01*
X10782991Y-19571660D02*
X10763944Y-19581184D01*
X10763944Y-19581184D02*
X10706801Y-19581184D01*
X10706801Y-19581184D02*
X10687753Y-19571660D01*
X10687753Y-19571660D02*
X10678229Y-19562136D01*
X10887753Y-19562136D02*
X10897277Y-19571660D01*
X10897277Y-19571660D02*
X10887753Y-19581184D01*
X10887753Y-19581184D02*
X10878229Y-19571660D01*
X10878229Y-19571660D02*
X10887753Y-19562136D01*
X10887753Y-19562136D02*
X10887753Y-19581184D01*
X10973467Y-19400231D02*
X10982991Y-19390708D01*
X10982991Y-19390708D02*
X11002039Y-19381184D01*
X11002039Y-19381184D02*
X11049658Y-19381184D01*
X11049658Y-19381184D02*
X11068705Y-19390708D01*
X11068705Y-19390708D02*
X11078229Y-19400231D01*
X11078229Y-19400231D02*
X11087753Y-19419279D01*
X11087753Y-19419279D02*
X11087753Y-19438327D01*
X11087753Y-19438327D02*
X11078229Y-19466898D01*
X11078229Y-19466898D02*
X10963944Y-19581184D01*
X10963944Y-19581184D02*
X11087753Y-19581184D01*
X11211562Y-19381184D02*
X11230610Y-19381184D01*
X11230610Y-19381184D02*
X11249658Y-19390708D01*
X11249658Y-19390708D02*
X11259182Y-19400231D01*
X11259182Y-19400231D02*
X11268705Y-19419279D01*
X11268705Y-19419279D02*
X11278229Y-19457374D01*
X11278229Y-19457374D02*
X11278229Y-19504993D01*
X11278229Y-19504993D02*
X11268705Y-19543089D01*
X11268705Y-19543089D02*
X11259182Y-19562136D01*
X11259182Y-19562136D02*
X11249658Y-19571660D01*
X11249658Y-19571660D02*
X11230610Y-19581184D01*
X11230610Y-19581184D02*
X11211562Y-19581184D01*
X11211562Y-19581184D02*
X11192515Y-19571660D01*
X11192515Y-19571660D02*
X11182991Y-19562136D01*
X11182991Y-19562136D02*
X11173467Y-19543089D01*
X11173467Y-19543089D02*
X11163944Y-19504993D01*
X11163944Y-19504993D02*
X11163944Y-19457374D01*
X11163944Y-19457374D02*
X11173467Y-19419279D01*
X11173467Y-19419279D02*
X11182991Y-19400231D01*
X11182991Y-19400231D02*
X11192515Y-19390708D01*
X11192515Y-19390708D02*
X11211562Y-19381184D01*
X11402039Y-19381184D02*
X11421086Y-19381184D01*
X11421086Y-19381184D02*
X11440134Y-19390708D01*
X11440134Y-19390708D02*
X11449658Y-19400231D01*
X11449658Y-19400231D02*
X11459182Y-19419279D01*
X11459182Y-19419279D02*
X11468705Y-19457374D01*
X11468705Y-19457374D02*
X11468705Y-19504993D01*
X11468705Y-19504993D02*
X11459182Y-19543089D01*
X11459182Y-19543089D02*
X11449658Y-19562136D01*
X11449658Y-19562136D02*
X11440134Y-19571660D01*
X11440134Y-19571660D02*
X11421086Y-19581184D01*
X11421086Y-19581184D02*
X11402039Y-19581184D01*
X11402039Y-19581184D02*
X11382991Y-19571660D01*
X11382991Y-19571660D02*
X11373467Y-19562136D01*
X11373467Y-19562136D02*
X11363943Y-19543089D01*
X11363943Y-19543089D02*
X11354420Y-19504993D01*
X11354420Y-19504993D02*
X11354420Y-19457374D01*
X11354420Y-19457374D02*
X11363943Y-19419279D01*
X11363943Y-19419279D02*
X11373467Y-19400231D01*
X11373467Y-19400231D02*
X11382991Y-19390708D01*
X11382991Y-19390708D02*
X11402039Y-19381184D01*
X11554420Y-19581184D02*
X11554420Y-19447850D01*
X11554420Y-19466898D02*
X11563943Y-19457374D01*
X11563943Y-19457374D02*
X11582991Y-19447850D01*
X11582991Y-19447850D02*
X11611563Y-19447850D01*
X11611563Y-19447850D02*
X11630610Y-19457374D01*
X11630610Y-19457374D02*
X11640134Y-19476422D01*
X11640134Y-19476422D02*
X11640134Y-19581184D01*
X11640134Y-19476422D02*
X11649658Y-19457374D01*
X11649658Y-19457374D02*
X11668705Y-19447850D01*
X11668705Y-19447850D02*
X11697277Y-19447850D01*
X11697277Y-19447850D02*
X11716324Y-19457374D01*
X11716324Y-19457374D02*
X11725848Y-19476422D01*
X11725848Y-19476422D02*
X11725848Y-19581184D01*
X11821086Y-19581184D02*
X11821086Y-19447850D01*
X11821086Y-19466898D02*
X11830610Y-19457374D01*
X11830610Y-19457374D02*
X11849658Y-19447850D01*
X11849658Y-19447850D02*
X11878229Y-19447850D01*
X11878229Y-19447850D02*
X11897277Y-19457374D01*
X11897277Y-19457374D02*
X11906801Y-19476422D01*
X11906801Y-19476422D02*
X11906801Y-19581184D01*
X11906801Y-19476422D02*
X11916324Y-19457374D01*
X11916324Y-19457374D02*
X11935372Y-19447850D01*
X11935372Y-19447850D02*
X11963943Y-19447850D01*
X11963943Y-19447850D02*
X11982991Y-19457374D01*
X11982991Y-19457374D02*
X11992515Y-19476422D01*
X11992515Y-19476422D02*
X11992515Y-19581184D01*
X12382991Y-19371660D02*
X12211563Y-19628803D01*
X12640134Y-19381184D02*
X12659182Y-19381184D01*
X12659182Y-19381184D02*
X12678229Y-19390708D01*
X12678229Y-19390708D02*
X12687753Y-19400231D01*
X12687753Y-19400231D02*
X12697277Y-19419279D01*
X12697277Y-19419279D02*
X12706801Y-19457374D01*
X12706801Y-19457374D02*
X12706801Y-19504993D01*
X12706801Y-19504993D02*
X12697277Y-19543089D01*
X12697277Y-19543089D02*
X12687753Y-19562136D01*
X12687753Y-19562136D02*
X12678229Y-19571660D01*
X12678229Y-19571660D02*
X12659182Y-19581184D01*
X12659182Y-19581184D02*
X12640134Y-19581184D01*
X12640134Y-19581184D02*
X12621086Y-19571660D01*
X12621086Y-19571660D02*
X12611563Y-19562136D01*
X12611563Y-19562136D02*
X12602039Y-19543089D01*
X12602039Y-19543089D02*
X12592515Y-19504993D01*
X12592515Y-19504993D02*
X12592515Y-19457374D01*
X12592515Y-19457374D02*
X12602039Y-19419279D01*
X12602039Y-19419279D02*
X12611563Y-19400231D01*
X12611563Y-19400231D02*
X12621086Y-19390708D01*
X12621086Y-19390708D02*
X12640134Y-19381184D01*
X12792515Y-19562136D02*
X12802039Y-19571660D01*
X12802039Y-19571660D02*
X12792515Y-19581184D01*
X12792515Y-19581184D02*
X12782991Y-19571660D01*
X12782991Y-19571660D02*
X12792515Y-19562136D01*
X12792515Y-19562136D02*
X12792515Y-19581184D01*
X12992515Y-19581184D02*
X12878229Y-19581184D01*
X12935372Y-19581184D02*
X12935372Y-19381184D01*
X12935372Y-19381184D02*
X12916325Y-19409755D01*
X12916325Y-19409755D02*
X12897277Y-19428803D01*
X12897277Y-19428803D02*
X12878229Y-19438327D01*
X13068706Y-19400231D02*
X13078229Y-19390708D01*
X13078229Y-19390708D02*
X13097277Y-19381184D01*
X13097277Y-19381184D02*
X13144896Y-19381184D01*
X13144896Y-19381184D02*
X13163944Y-19390708D01*
X13163944Y-19390708D02*
X13173467Y-19400231D01*
X13173467Y-19400231D02*
X13182991Y-19419279D01*
X13182991Y-19419279D02*
X13182991Y-19438327D01*
X13182991Y-19438327D02*
X13173467Y-19466898D01*
X13173467Y-19466898D02*
X13059182Y-19581184D01*
X13059182Y-19581184D02*
X13182991Y-19581184D01*
X13354420Y-19381184D02*
X13316325Y-19381184D01*
X13316325Y-19381184D02*
X13297277Y-19390708D01*
X13297277Y-19390708D02*
X13287753Y-19400231D01*
X13287753Y-19400231D02*
X13268706Y-19428803D01*
X13268706Y-19428803D02*
X13259182Y-19466898D01*
X13259182Y-19466898D02*
X13259182Y-19543089D01*
X13259182Y-19543089D02*
X13268706Y-19562136D01*
X13268706Y-19562136D02*
X13278229Y-19571660D01*
X13278229Y-19571660D02*
X13297277Y-19581184D01*
X13297277Y-19581184D02*
X13335372Y-19581184D01*
X13335372Y-19581184D02*
X13354420Y-19571660D01*
X13354420Y-19571660D02*
X13363944Y-19562136D01*
X13363944Y-19562136D02*
X13373467Y-19543089D01*
X13373467Y-19543089D02*
X13373467Y-19495470D01*
X13373467Y-19495470D02*
X13363944Y-19476422D01*
X13363944Y-19476422D02*
X13354420Y-19466898D01*
X13354420Y-19466898D02*
X13335372Y-19457374D01*
X13335372Y-19457374D02*
X13297277Y-19457374D01*
X13297277Y-19457374D02*
X13278229Y-19466898D01*
X13278229Y-19466898D02*
X13268706Y-19476422D01*
X13268706Y-19476422D02*
X13259182Y-19495470D01*
X13497277Y-19381184D02*
X13516325Y-19381184D01*
X13516325Y-19381184D02*
X13535372Y-19390708D01*
X13535372Y-19390708D02*
X13544896Y-19400231D01*
X13544896Y-19400231D02*
X13554420Y-19419279D01*
X13554420Y-19419279D02*
X13563944Y-19457374D01*
X13563944Y-19457374D02*
X13563944Y-19504993D01*
X13563944Y-19504993D02*
X13554420Y-19543089D01*
X13554420Y-19543089D02*
X13544896Y-19562136D01*
X13544896Y-19562136D02*
X13535372Y-19571660D01*
X13535372Y-19571660D02*
X13516325Y-19581184D01*
X13516325Y-19581184D02*
X13497277Y-19581184D01*
X13497277Y-19581184D02*
X13478229Y-19571660D01*
X13478229Y-19571660D02*
X13468706Y-19562136D01*
X13468706Y-19562136D02*
X13459182Y-19543089D01*
X13459182Y-19543089D02*
X13449658Y-19504993D01*
X13449658Y-19504993D02*
X13449658Y-19457374D01*
X13449658Y-19457374D02*
X13459182Y-19419279D01*
X13459182Y-19419279D02*
X13468706Y-19400231D01*
X13468706Y-19400231D02*
X13478229Y-19390708D01*
X13478229Y-19390708D02*
X13497277Y-19381184D01*
X13640134Y-19381184D02*
X13640134Y-19419279D01*
X13716325Y-19381184D02*
X13716325Y-19419279D01*
X14011563Y-19657374D02*
X14002039Y-19647850D01*
X14002039Y-19647850D02*
X13982991Y-19619279D01*
X13982991Y-19619279D02*
X13973468Y-19600231D01*
X13973468Y-19600231D02*
X13963944Y-19571660D01*
X13963944Y-19571660D02*
X13954420Y-19524041D01*
X13954420Y-19524041D02*
X13954420Y-19485946D01*
X13954420Y-19485946D02*
X13963944Y-19438327D01*
X13963944Y-19438327D02*
X13973468Y-19409755D01*
X13973468Y-19409755D02*
X13982991Y-19390708D01*
X13982991Y-19390708D02*
X14002039Y-19362136D01*
X14002039Y-19362136D02*
X14011563Y-19352612D01*
X14192515Y-19581184D02*
X14078229Y-19581184D01*
X14135372Y-19581184D02*
X14135372Y-19381184D01*
X14135372Y-19381184D02*
X14116325Y-19409755D01*
X14116325Y-19409755D02*
X14097277Y-19428803D01*
X14097277Y-19428803D02*
X14078229Y-19438327D01*
X14430610Y-19581184D02*
X14430610Y-19381184D01*
X14516325Y-19581184D02*
X14516325Y-19476422D01*
X14516325Y-19476422D02*
X14506801Y-19457374D01*
X14506801Y-19457374D02*
X14487753Y-19447850D01*
X14487753Y-19447850D02*
X14459182Y-19447850D01*
X14459182Y-19447850D02*
X14440134Y-19457374D01*
X14440134Y-19457374D02*
X14430610Y-19466898D01*
X14640134Y-19581184D02*
X14621087Y-19571660D01*
X14621087Y-19571660D02*
X14611563Y-19562136D01*
X14611563Y-19562136D02*
X14602039Y-19543089D01*
X14602039Y-19543089D02*
X14602039Y-19485946D01*
X14602039Y-19485946D02*
X14611563Y-19466898D01*
X14611563Y-19466898D02*
X14621087Y-19457374D01*
X14621087Y-19457374D02*
X14640134Y-19447850D01*
X14640134Y-19447850D02*
X14668706Y-19447850D01*
X14668706Y-19447850D02*
X14687753Y-19457374D01*
X14687753Y-19457374D02*
X14697277Y-19466898D01*
X14697277Y-19466898D02*
X14706801Y-19485946D01*
X14706801Y-19485946D02*
X14706801Y-19543089D01*
X14706801Y-19543089D02*
X14697277Y-19562136D01*
X14697277Y-19562136D02*
X14687753Y-19571660D01*
X14687753Y-19571660D02*
X14668706Y-19581184D01*
X14668706Y-19581184D02*
X14640134Y-19581184D01*
X14821087Y-19581184D02*
X14802039Y-19571660D01*
X14802039Y-19571660D02*
X14792515Y-19552612D01*
X14792515Y-19552612D02*
X14792515Y-19381184D01*
X14973468Y-19571660D02*
X14954420Y-19581184D01*
X14954420Y-19581184D02*
X14916325Y-19581184D01*
X14916325Y-19581184D02*
X14897277Y-19571660D01*
X14897277Y-19571660D02*
X14887753Y-19552612D01*
X14887753Y-19552612D02*
X14887753Y-19476422D01*
X14887753Y-19476422D02*
X14897277Y-19457374D01*
X14897277Y-19457374D02*
X14916325Y-19447850D01*
X14916325Y-19447850D02*
X14954420Y-19447850D01*
X14954420Y-19447850D02*
X14973468Y-19457374D01*
X14973468Y-19457374D02*
X14982991Y-19476422D01*
X14982991Y-19476422D02*
X14982991Y-19495470D01*
X14982991Y-19495470D02*
X14887753Y-19514517D01*
X15049658Y-19657374D02*
X15059182Y-19647850D01*
X15059182Y-19647850D02*
X15078230Y-19619279D01*
X15078230Y-19619279D02*
X15087753Y-19600231D01*
X15087753Y-19600231D02*
X15097277Y-19571660D01*
X15097277Y-19571660D02*
X15106801Y-19524041D01*
X15106801Y-19524041D02*
X15106801Y-19485946D01*
X15106801Y-19485946D02*
X15097277Y-19438327D01*
X15097277Y-19438327D02*
X15087753Y-19409755D01*
X15087753Y-19409755D02*
X15078230Y-19390708D01*
X15078230Y-19390708D02*
X15059182Y-19362136D01*
X15059182Y-19362136D02*
X15049658Y-19352612D01*
M02*
