%TF.GenerationSoftware,KiCad,Pcbnew,10.0.5*%
%TF.CreationDate,2026-08-08T12:56:24-06:00*%
%TF.ProjectId,picoemp-rev2026,7069636f-656d-4702-9d72-657632303236,A*%
%TF.SameCoordinates,Original*%
%TF.FileFunction,Paste,Top*%
%TF.FilePolarity,Positive*%
%FSLAX46Y46*%
G04 Gerber Fmt 4.6, Leading zero omitted, Abs format (unit mm)*
G04 Created by KiCad (PCBNEW 10.0.5) date 2026-08-08 12:56:24*
%MOMM*%
%LPD*%
G01*
G04 APERTURE LIST*
G04 Aperture macros list*
%AMRoundRect*
0 Rectangle with rounded corners*
0 $1 Rounding radius*
0 $2 $3 $4 $5 $6 $7 $8 $9 X,Y pos of 4 corners*
0 Add a 4 corners polygon primitive as box body*
4,1,4,$2,$3,$4,$5,$6,$7,$8,$9,$2,$3,0*
0 Add four circle primitives for the rounded corners*
1,1,$1+$1,$2,$3*
1,1,$1+$1,$4,$5*
1,1,$1+$1,$6,$7*
1,1,$1+$1,$8,$9*
0 Add four rect primitives between the rounded corners*
20,1,$1+$1,$2,$3,$4,$5,0*
20,1,$1+$1,$4,$5,$6,$7,0*
20,1,$1+$1,$6,$7,$8,$9,0*
20,1,$1+$1,$8,$9,$2,$3,0*%
G04 Aperture macros list end*
%ADD10RoundRect,0.218750X0.218750X0.256250X-0.218750X0.256250X-0.218750X-0.256250X0.218750X-0.256250X0*%
%ADD11RoundRect,0.225000X-0.250000X0.225000X-0.250000X-0.225000X0.250000X-0.225000X0.250000X0.225000X0*%
%ADD12RoundRect,0.250000X0.262500X0.450000X-0.262500X0.450000X-0.262500X-0.450000X0.262500X-0.450000X0*%
%ADD13RoundRect,0.200000X-0.275000X0.200000X-0.275000X-0.200000X0.275000X-0.200000X0.275000X0.200000X0*%
%ADD14RoundRect,0.150000X-0.587500X-0.150000X0.587500X-0.150000X0.587500X0.150000X-0.587500X0.150000X0*%
%ADD15RoundRect,0.250000X0.250000X0.475000X-0.250000X0.475000X-0.250000X-0.475000X0.250000X-0.475000X0*%
%ADD16RoundRect,0.287500X-0.287500X-0.362500X0.287500X-0.362500X0.287500X0.362500X-0.287500X0.362500X0*%
%ADD17R,1.500000X5.600000*%
%ADD18R,1.600000X4.900000*%
%ADD19R,0.550000X1.000000*%
%ADD20RoundRect,0.250000X-0.362500X-1.425000X0.362500X-1.425000X0.362500X1.425000X-0.362500X1.425000X0*%
%ADD21RoundRect,0.250000X1.075000X-0.362500X1.075000X0.362500X-1.075000X0.362500X-1.075000X-0.362500X0*%
%ADD22RoundRect,0.200000X-0.200000X-0.275000X0.200000X-0.275000X0.200000X0.275000X-0.200000X0.275000X0*%
%ADD23RoundRect,0.218750X-0.218750X-0.256250X0.218750X-0.256250X0.218750X0.256250X-0.218750X0.256250X0*%
%ADD24RoundRect,0.250000X1.125000X-1.275000X1.125000X1.275000X-1.125000X1.275000X-1.125000X-1.275000X0*%
%ADD25RoundRect,0.250000X0.350000X-0.850000X0.350000X0.850000X-0.350000X0.850000X-0.350000X-0.850000X0*%
%ADD26RoundRect,0.200000X0.200000X0.275000X-0.200000X0.275000X-0.200000X-0.275000X0.200000X-0.275000X0*%
%ADD27RoundRect,0.125000X-0.125000X-0.125000X0.125000X-0.125000X0.125000X0.125000X-0.125000X0.125000X0*%
%ADD28RoundRect,0.200000X0.275000X-0.200000X0.275000X0.200000X-0.275000X0.200000X-0.275000X-0.200000X0*%
%ADD29RoundRect,0.250000X0.250000X-1.150000X0.250000X1.150000X-0.250000X1.150000X-0.250000X-1.150000X0*%
%ADD30R,1.270000X2.540000*%
%ADD31RoundRect,0.350000X0.350000X-0.665000X0.350000X0.665000X-0.350000X0.665000X-0.350000X-0.665000X0*%
%ADD32RoundRect,0.250000X0.450000X-0.262500X0.450000X0.262500X-0.450000X0.262500X-0.450000X-0.262500X0*%
%ADD33RoundRect,0.250000X-0.250000X1.150000X-0.250000X-1.150000X0.250000X-1.150000X0.250000X1.150000X0*%
%ADD34RoundRect,0.225000X-0.225000X-0.250000X0.225000X-0.250000X0.225000X0.250000X-0.225000X0.250000X0*%
%ADD35RoundRect,0.250000X-1.000000X-0.650000X1.000000X-0.650000X1.000000X0.650000X-1.000000X0.650000X0*%
%ADD36R,3.800000X2.200000*%
%ADD37O,1.100000X1.800000*%
%ADD38R,2.200000X3.800000*%
%ADD39O,1.050000X1.450000*%
%ADD40RoundRect,0.300000X-0.450000X-0.450000X0.450000X-0.450000X0.450000X0.450000X-0.450000X0.450000X0*%
%ADD41RoundRect,0.150000X-0.150000X0.512500X-0.150000X-0.512500X0.150000X-0.512500X0.150000X0.512500X0*%
%ADD42RoundRect,0.250000X-2.450000X0.650000X-2.450000X-0.650000X2.450000X-0.650000X2.450000X0.650000X0*%
G04 APERTURE END LIST*
D10*
%TO.C,D9*%
X142487500Y-83150000D03*
X140912500Y-83150000D03*
%TD*%
D11*
%TO.C,C6*%
X111500000Y-60125000D03*
X111500000Y-61675000D03*
%TD*%
D12*
%TO.C,R9*%
X114912500Y-146900000D03*
X113087500Y-146900000D03*
%TD*%
D13*
%TO.C,R5*%
X132900000Y-125975000D03*
X132900000Y-127625000D03*
%TD*%
D14*
%TO.C,Q3*%
X133062500Y-129650000D03*
X133062500Y-131550000D03*
X134937500Y-130600000D03*
%TD*%
D15*
%TO.C,C2*%
X132350000Y-133450000D03*
X130450000Y-133450000D03*
%TD*%
D16*
%TO.C,D1*%
X137650000Y-62100000D03*
X140750000Y-62100000D03*
%TD*%
D17*
%TO.C,J3*%
X137400000Y-48600000D03*
D18*
X141660000Y-48250000D03*
X133140000Y-48250000D03*
%TD*%
D19*
%TO.C,T2*%
X118390000Y-137515000D03*
X118390000Y-139285000D03*
X115390000Y-139285000D03*
X115390000Y-137515000D03*
%TD*%
D20*
%TO.C,R2*%
X128037500Y-147900000D03*
X133962500Y-147900000D03*
%TD*%
D21*
%TO.C,R1*%
X121875200Y-144135300D03*
X121875200Y-139510300D03*
%TD*%
D22*
%TO.C,R3*%
X116775000Y-135300000D03*
X118425000Y-135300000D03*
%TD*%
D14*
%TO.C,Q4*%
X114262500Y-131150000D03*
X114262500Y-133050000D03*
X116137500Y-132100000D03*
%TD*%
D22*
%TO.C,R7*%
X113175000Y-143300000D03*
X114825000Y-143300000D03*
%TD*%
D23*
%TO.C,D8*%
X107112500Y-86300000D03*
X108687500Y-86300000D03*
%TD*%
D16*
%TO.C,D5*%
X117300000Y-123800000D03*
X120400000Y-123800000D03*
%TD*%
D24*
%TO.C,Q2*%
X117665000Y-162015000D03*
X120715000Y-162015000D03*
X117665000Y-158665000D03*
X120715000Y-158665000D03*
D25*
X116910000Y-166640000D03*
X119190000Y-166640000D03*
X121470000Y-166640000D03*
%TD*%
D26*
%TO.C,R10*%
X117725000Y-128800000D03*
X116075000Y-128800000D03*
%TD*%
D27*
%TO.C,D7*%
X112900000Y-150100000D03*
X115100000Y-150100000D03*
%TD*%
D19*
%TO.C,T1*%
X133390000Y-137515000D03*
X133390000Y-139285000D03*
X130390000Y-139285000D03*
X130390000Y-137515000D03*
%TD*%
D28*
%TO.C,R16*%
X109000000Y-61725000D03*
X109000000Y-60075000D03*
%TD*%
D23*
%TO.C,D6*%
X107112500Y-82800000D03*
X108687500Y-82800000D03*
%TD*%
D29*
%TO.C,SW1*%
X138000000Y-78950000D03*
X138000000Y-73150000D03*
X142000000Y-78950000D03*
X142000000Y-73150000D03*
%TD*%
D30*
%TO.C,Q1*%
X121860000Y-135525000D03*
X124400000Y-135525000D03*
X126940000Y-135525000D03*
X126940000Y-126675000D03*
X124400000Y-126675000D03*
X121860000Y-126675000D03*
%TD*%
D26*
%TO.C,R12*%
X111932100Y-86300000D03*
X110282100Y-86300000D03*
%TD*%
D16*
%TO.C,D3*%
X123250000Y-123800000D03*
X126350000Y-123800000D03*
%TD*%
D15*
%TO.C,C1*%
X132350000Y-135650000D03*
X130450000Y-135650000D03*
%TD*%
D26*
%TO.C,R11*%
X111932100Y-82800000D03*
X110282100Y-82800000D03*
%TD*%
D31*
%TO.C,SW3*%
X118442000Y-155234000D03*
X118442000Y-149664000D03*
X122942000Y-155234000D03*
X122942000Y-149664000D03*
%TD*%
D32*
%TO.C,R4*%
X130400000Y-131300000D03*
X130400000Y-129475000D03*
%TD*%
D33*
%TO.C,SW2*%
X110700000Y-99900000D03*
X110700000Y-105700000D03*
X106700000Y-99900000D03*
X106700000Y-105700000D03*
%TD*%
D34*
%TO.C,C5*%
X113825000Y-135300000D03*
X115375000Y-135300000D03*
%TD*%
D22*
%TO.C,R13*%
X137500000Y-83150000D03*
X139150000Y-83150000D03*
%TD*%
D35*
%TO.C,D2*%
X128850000Y-142700000D03*
X132850000Y-142700000D03*
%TD*%
D28*
%TO.C,R15*%
X113800000Y-57725000D03*
X113800000Y-56075000D03*
%TD*%
D36*
%TO.C,U1*%
X114700000Y-62067100D03*
X114700000Y-64607100D03*
X114700000Y-67147100D03*
X114700000Y-69687100D03*
X114700000Y-72227100D03*
X114700000Y-74767100D03*
X114700000Y-77307100D03*
X114700000Y-79847100D03*
X114700000Y-82387100D03*
X114700000Y-84927100D03*
X114700000Y-87467100D03*
X114700000Y-90007100D03*
X114700000Y-92547100D03*
X114700000Y-95087100D03*
X114700000Y-97627100D03*
X114700000Y-100167100D03*
X114700000Y-102707100D03*
X114700000Y-105247100D03*
X114700000Y-107787100D03*
X114700000Y-110327100D03*
D37*
X121665000Y-62197100D03*
D38*
X121850000Y-110897100D03*
D39*
X121965000Y-65227100D03*
D38*
X124390000Y-110897100D03*
D39*
X126815000Y-65227100D03*
D38*
X126930000Y-110897100D03*
D37*
X127115000Y-62197100D03*
D36*
X134080000Y-62067100D03*
X134080000Y-64607100D03*
X134080000Y-67147100D03*
X134080000Y-69687100D03*
X134080000Y-72227100D03*
X134080000Y-74767100D03*
X134080000Y-77307100D03*
X134080000Y-79847100D03*
X134080000Y-82387100D03*
X134080000Y-84927100D03*
X134080000Y-87467100D03*
X134080000Y-90007100D03*
X134080000Y-92547100D03*
X134080000Y-95087100D03*
X134080000Y-97627100D03*
X134080000Y-100167100D03*
X134080000Y-102707100D03*
X134080000Y-105247100D03*
X134080000Y-107787100D03*
X134080000Y-110327100D03*
D40*
X124390000Y-65197100D03*
X125390000Y-61897100D03*
X123390000Y-61897100D03*
X121890000Y-68697100D03*
X121890000Y-71197100D03*
X121890000Y-73697100D03*
%TD*%
D17*
%TO.C,J1*%
X124390000Y-172372000D03*
D18*
X120130000Y-172722000D03*
X128650000Y-172722000D03*
%TD*%
D41*
%TO.C,U2*%
X111950000Y-55762500D03*
X111000000Y-55762500D03*
X110050000Y-55762500D03*
X110050000Y-58037500D03*
X111950000Y-58037500D03*
%TD*%
D28*
%TO.C,R6*%
X128100000Y-124300000D03*
X128100000Y-122650000D03*
%TD*%
D26*
%TO.C,R14*%
X115425000Y-59500000D03*
X113775000Y-59500000D03*
%TD*%
D42*
%TO.C,C3*%
X126900000Y-162190000D03*
X126900000Y-167290000D03*
%TD*%
D16*
%TO.C,D4*%
X129800000Y-123800000D03*
X132900000Y-123800000D03*
%TD*%
M02*
